%TF.GenerationSoftware,KiCad,Pcbnew,10.0.4*%
%TF.CreationDate,2026-09-23T11:11:11-03:00*%
%TF.ProjectId,PCB,5043422e-6b69-4636-9164-5f7063625858,rev?*%
%TF.SameCoordinates,Original*%
%TF.FileFunction,Copper,L2,Bot*%
%TF.FilePolarity,Positive*%
%FSLAX46Y46*%
G04 Gerber Fmt 4.6, Leading zero omitted, Abs format (unit mm)*
G04 Created by KiCad (PCBNEW 10.0.4) date 2026-09-23 11:11:11*
%MOMM*%
%LPD*%
G01*
G04 APERTURE LIST*
G04 Aperture macros list*
%AMRoundRect*
0 Rectangle with rounded corners*
0 $1 Rounding radius*
0 $2 $3 $4 $5 $6 $7 $8 $9 X,Y pos of 4 corners*
0 Add a 4 corners polygon primitive as box body*
4,1,4,$2,$3,$4,$5,$6,$7,$8,$9,$2,$3,0*
0 Add four circle primitives for the rounded corners*
1,1,$1+$1,$2,$3*
1,1,$1+$1,$4,$5*
1,1,$1+$1,$6,$7*
1,1,$1+$1,$8,$9*
0 Add four rect primitives between the rounded corners*
20,1,$1+$1,$2,$3,$4,$5,0*
20,1,$1+$1,$4,$5,$6,$7,0*
20,1,$1+$1,$6,$7,$8,$9,0*
20,1,$1+$1,$8,$9,$2,$3,0*%
G04 Aperture macros list end*
%TA.AperFunction,ComponentPad*%
%ADD10R,1.700000X1.700000*%
%TD*%
%TA.AperFunction,ComponentPad*%
%ADD11C,1.700000*%
%TD*%
%TA.AperFunction,ComponentPad*%
%ADD12RoundRect,0.249999X0.850001X-0.850001X0.850001X0.850001X-0.850001X0.850001X-0.850001X-0.850001X0*%
%TD*%
%TA.AperFunction,ComponentPad*%
%ADD13C,2.200000*%
%TD*%
%TA.AperFunction,ComponentPad*%
%ADD14O,1.800000X1.800000*%
%TD*%
%TA.AperFunction,ComponentPad*%
%ADD15C,1.800000*%
%TD*%
%TA.AperFunction,HeatsinkPad*%
%ADD16C,0.600000*%
%TD*%
%TA.AperFunction,ComponentPad*%
%ADD17R,2.500000X2.500000*%
%TD*%
%TA.AperFunction,ComponentPad*%
%ADD18C,2.500000*%
%TD*%
%TA.AperFunction,ComponentPad*%
%ADD19RoundRect,0.250000X1.050000X-1.050000X1.050000X1.050000X-1.050000X1.050000X-1.050000X-1.050000X0*%
%TD*%
%TA.AperFunction,ComponentPad*%
%ADD20C,2.600000*%
%TD*%
%TA.AperFunction,ComponentPad*%
%ADD21RoundRect,0.250000X0.600000X0.750000X-0.600000X0.750000X-0.600000X-0.750000X0.600000X-0.750000X0*%
%TD*%
%TA.AperFunction,ComponentPad*%
%ADD22O,1.700000X2.000000*%
%TD*%
%TA.AperFunction,ComponentPad*%
%ADD23RoundRect,0.250000X0.625000X-0.350000X0.625000X0.350000X-0.625000X0.350000X-0.625000X-0.350000X0*%
%TD*%
%TA.AperFunction,ComponentPad*%
%ADD24O,1.750000X1.200000*%
%TD*%
%TA.AperFunction,ViaPad*%
%ADD25C,0.600000*%
%TD*%
%TA.AperFunction,ViaPad*%
%ADD26C,0.500000*%
%TD*%
%TA.AperFunction,Conductor*%
%ADD27C,0.200000*%
%TD*%
%TA.AperFunction,Conductor*%
%ADD28C,0.300000*%
%TD*%
%TA.AperFunction,Conductor*%
%ADD29C,0.600000*%
%TD*%
%TA.AperFunction,Conductor*%
%ADD30C,0.500000*%
%TD*%
G04 APERTURE END LIST*
D10*
%TO.P,J9,1,Pin_1_1*%
%TO.N,/IRQ0*%
X127920000Y-136275000D03*
D11*
%TO.P,J9,2,Pin_2_2*%
%TO.N,/DMA*%
X127920000Y-133735000D03*
%TO.P,J9,3,Pin_3_3*%
%TO.N,/CF2*%
X130460000Y-136275000D03*
%TO.P,J9,4,Pin_4_4*%
%TO.N,/CF4*%
X130460000Y-133735000D03*
%TO.P,J9,5,Pin_5_5*%
%TO.N,/IRQ1*%
X133000000Y-136275000D03*
%TO.P,J9,6,Pin_6_6*%
%TO.N,/CF1*%
X133000000Y-133735000D03*
%TO.P,J9,7,Pin_7_7*%
%TO.N,/CF3*%
X135540000Y-136275000D03*
%TO.P,J9,8,Pin_8_8*%
%TO.N,/WARN*%
X135540000Y-133735000D03*
%TO.P,J9,9,Pin_9_9*%
%TO.N,/ZX1*%
X138080000Y-136275000D03*
%TO.P,J9,10,Pin_10_10*%
%TO.N,/ZX2*%
X138080000Y-133735000D03*
%TO.P,J9,11,Pin_11_11*%
%TO.N,N*%
X140620000Y-136275000D03*
%TO.P,J9,12,Pin_12_12*%
%TO.N,/ZX0*%
X140620000Y-133735000D03*
%TD*%
D12*
%TO.P,J8,1,Pin_1_1*%
%TO.N,I1+*%
X156000000Y-128540000D03*
D13*
%TO.P,J8,2,Pin_2_2*%
%TO.N,I1-*%
X156000000Y-126000000D03*
%TO.P,J8,3,Pin_3_3*%
%TO.N,I2+*%
X156000000Y-123460000D03*
%TO.P,J8,4,Pin_4_4*%
%TO.N,I2-*%
X156000000Y-120920000D03*
%TO.P,J8,5,Pin_5_5*%
%TO.N,I3+*%
X156000000Y-118380000D03*
%TO.P,J8,6,Pin_6_6*%
%TO.N,I3-*%
X156000000Y-115840000D03*
%TO.P,J8,7,Pin_7_7*%
%TO.N,IN+*%
X156000000Y-113300000D03*
%TO.P,J8,8,Pin_8_8*%
%TO.N,IN-*%
X156000000Y-110760000D03*
%TD*%
D14*
%TO.P,U7,1,-Vin_1*%
%TO.N,GND*%
X114140000Y-97650000D03*
%TO.P,U7,2,+Vin_2*%
%TO.N,+3V3*%
X116680000Y-97650000D03*
%TO.P,U7,3,-Vout_3*%
%TO.N,N*%
X119220000Y-97650000D03*
%TO.P,U7,4,+Vout_4*%
%TO.N,+3V3PWR*%
X121760000Y-97650000D03*
%TD*%
D15*
%TO.P,MOV1,1,1_1*%
%TO.N,Net-(U6-AC{slash}L)*%
X137750000Y-55350000D03*
%TO.P,MOV1,2,2_2*%
%TO.N,N*%
X145250000Y-56650000D03*
%TD*%
D10*
%TO.P,J1,1,Pin_1_1*%
%TO.N,Net-(D1-A)*%
X97550000Y-124898000D03*
D11*
%TO.P,J1,2,Pin_2_2*%
%TO.N,GND*%
X97550000Y-127438000D03*
%TD*%
D16*
%TO.P,U1,41,GND_41*%
%TO.N,GND*%
X97010000Y-110150000D03*
X98410000Y-110150000D03*
X96310000Y-109450000D03*
X97710000Y-109450000D03*
X99110000Y-109450000D03*
X97010000Y-108750000D03*
X98410000Y-108750000D03*
X96310000Y-108050000D03*
X97710000Y-108050000D03*
X99110000Y-108050000D03*
X97010000Y-107350000D03*
X98410000Y-107350000D03*
%TD*%
D17*
%TO.P,F1,1,1_1*%
%TO.N,L1*%
X157500000Y-66250000D03*
D18*
%TO.P,F1,2,2_2*%
%TO.N,Net-(U6-AC{slash}L)*%
X135000000Y-66250000D03*
%TD*%
D19*
%TO.P,J7,1,Pin_1_1*%
%TO.N,N*%
X153917500Y-91620000D03*
D20*
%TO.P,J7,2,Pin_2_2*%
%TO.N,L1*%
X153917500Y-86540000D03*
%TO.P,J7,3,Pin_3_3*%
%TO.N,L2*%
X153917500Y-81460000D03*
%TO.P,J7,4,Pin_4_4*%
%TO.N,L3*%
X153917500Y-76380000D03*
%TD*%
D10*
%TO.P,J4,1,Pin_1_1*%
%TO.N,GND*%
X94650000Y-134750000D03*
D11*
%TO.P,J4,2,Pin_2_2*%
%TO.N,+3V3*%
X97190000Y-134750000D03*
%TO.P,J4,3,Pin_3_3*%
%TO.N,/EN*%
X99730000Y-134750000D03*
%TO.P,J4,4,Pin_4_4*%
%TO.N,/TXD0*%
X102270000Y-134750000D03*
%TO.P,J4,5,Pin_5_5*%
%TO.N,/RXD0*%
X104810000Y-134750000D03*
%TO.P,J4,6,Pin_6_6*%
%TO.N,/IO0*%
X107350000Y-134750000D03*
%TD*%
D10*
%TO.P,J2,1,Pin_1_1*%
%TO.N,Net-(D2-A)*%
X102700000Y-124898000D03*
D11*
%TO.P,J2,2,Pin_2_2*%
%TO.N,GND*%
X102700000Y-127438000D03*
%TD*%
D21*
%TO.P,U6,1,AC/L_1*%
%TO.N,Net-(U6-AC{slash}L)*%
X128547500Y-67000000D03*
D22*
%TO.P,U6,2,AC/N_2*%
%TO.N,N*%
X128547500Y-61000000D03*
%TO.P,U6,3,-Vout_3*%
%TO.N,GND*%
X94947500Y-73000000D03*
%TO.P,U6,4,+Vout_4*%
%TO.N,+5V_EXT*%
X94947500Y-55000000D03*
%TD*%
D10*
%TO.P,J3,1,Pin_1_1*%
%TO.N,GND*%
X115450000Y-81590000D03*
D11*
%TO.P,J3,2,Pin_2_2*%
%TO.N,+3V3*%
X115450000Y-84130000D03*
%TO.P,J3,3,Pin_3_3*%
%TO.N,/SCL*%
X115450000Y-86670000D03*
%TO.P,J3,4,Pin_4_4*%
%TO.N,/SDA*%
X115450000Y-89210000D03*
%TD*%
D10*
%TO.P,J5,1,Pin_1_1*%
%TO.N,Net-(D3-A)*%
X107900000Y-124825000D03*
D11*
%TO.P,J5,2,Pin_2_2*%
%TO.N,GND*%
X107900000Y-127365000D03*
%TD*%
D10*
%TO.P,J6,1,Pin_1_1*%
%TO.N,Net-(D4-A)*%
X92400000Y-124898000D03*
D11*
%TO.P,J6,2,Pin_2_2*%
%TO.N,GND*%
X92400000Y-127438000D03*
%TD*%
D23*
%TO.P,J10,1,Pin_1_1*%
%TO.N,+VBAT_IN*%
X93300000Y-88550000D03*
D24*
%TO.P,J10,2,Pin_2_2*%
%TO.N,/TS*%
X93300000Y-86550000D03*
%TO.P,J10,3,Pin_3_3*%
%TO.N,GND*%
X93300000Y-84550000D03*
%TD*%
D25*
%TO.N,N*%
X146490600Y-90368400D03*
X139734200Y-110282000D03*
X141664600Y-112034600D03*
X144357000Y-106014800D03*
X129218600Y-101925400D03*
X129701200Y-107284800D03*
X132546000Y-105659200D03*
X127516800Y-121712000D03*
X123249600Y-118613200D03*
X124087800Y-122778800D03*
X124748200Y-124937800D03*
X122233600Y-101442800D03*
%TO.N,GND*%
X115045400Y-93594200D03*
X113038800Y-102966800D03*
X111311600Y-101798400D03*
X108619200Y-115285800D03*
X110727400Y-125979200D03*
X89162800Y-94076800D03*
X95208000Y-90343000D03*
X98027400Y-89555600D03*
X100618200Y-87422000D03*
X100897600Y-85059800D03*
X98865600Y-77643000D03*
X114054800Y-85872600D03*
X106333200Y-89936600D03*
X93684000Y-77465200D03*
X93684000Y-81707000D03*
X86775200Y-79548000D03*
X92668000Y-99918800D03*
X112810200Y-87930000D03*
X97367000Y-96108800D03*
X99907000Y-96312000D03*
X107425400Y-96388200D03*
X89899400Y-120619800D03*
X105520400Y-106624400D03*
X105520400Y-107894400D03*
X105495000Y-109164400D03*
X105469600Y-110459800D03*
X103894800Y-108554800D03*
X97316200Y-104795600D03*
X105926800Y-100274400D03*
X101126200Y-100325200D03*
%TO.N,N*%
X137397400Y-79167000D03*
X135365400Y-113939600D03*
X137219600Y-115971600D03*
X139124600Y-128290600D03*
X139886600Y-130525800D03*
X154161400Y-111348800D03*
X151469000Y-109316800D03*
X154136000Y-117165400D03*
X154034400Y-119680000D03*
X154034400Y-122220000D03*
X149005200Y-119680000D03*
X149487800Y-126563400D03*
X144331600Y-125242600D03*
X146541400Y-126563400D03*
X153805800Y-125293400D03*
X148040000Y-109367600D03*
X147000000Y-105000000D03*
X147000000Y-70000000D03*
X122000000Y-90000000D03*
X144600000Y-112800000D03*
X141715400Y-120188000D03*
X122000000Y-65000000D03*
X127700000Y-120000000D03*
X127000000Y-80000000D03*
X127000000Y-75000000D03*
X127389800Y-103754200D03*
X157000000Y-105000000D03*
X122000000Y-135000000D03*
X128867834Y-117389010D03*
X157000000Y-100000000D03*
X122000000Y-80000000D03*
X127000000Y-60000000D03*
X127000000Y-70000000D03*
X135390800Y-126233200D03*
X122000000Y-95000000D03*
X141400000Y-95750000D03*
X127000000Y-55000000D03*
X127000000Y-100000000D03*
X142000000Y-65000000D03*
X150700000Y-123200000D03*
X127500000Y-116300000D03*
X132000000Y-75000000D03*
X157000000Y-60000000D03*
X142000000Y-135000000D03*
X137000000Y-70000000D03*
X145804800Y-103728800D03*
X152000000Y-130000000D03*
X136600000Y-107200000D03*
X143900000Y-78975000D03*
X133587400Y-103754200D03*
X152000000Y-120000000D03*
X132000000Y-55000000D03*
X122000000Y-60000000D03*
X137397400Y-114117400D03*
X133400000Y-82600000D03*
X148150000Y-84525000D03*
X152000000Y-135000000D03*
X128525000Y-113300000D03*
X147000000Y-60000000D03*
X127900000Y-123350000D03*
X148040000Y-123134400D03*
X122000000Y-85000000D03*
X122000000Y-55000000D03*
X121014400Y-120873800D03*
X132000000Y-60000000D03*
X142000000Y-125000000D03*
X136356000Y-123972600D03*
X132000000Y-70000000D03*
X121975000Y-112900000D03*
X141775000Y-100800000D03*
X148850000Y-112800000D03*
X149100000Y-78825000D03*
X142000000Y-70000000D03*
X137676800Y-124252000D03*
X132650000Y-87850000D03*
X140675000Y-88800000D03*
X152000000Y-55000000D03*
X152000000Y-105000000D03*
X127825000Y-107475000D03*
X122000000Y-105000000D03*
X142000000Y-55000000D03*
X136711600Y-119807000D03*
X152000000Y-60000000D03*
X119450000Y-117000000D03*
X157000000Y-95000000D03*
X119490400Y-110775000D03*
X152000000Y-65000000D03*
X148014600Y-129967000D03*
X122000000Y-130000000D03*
X122000000Y-70000000D03*
X147000000Y-55000000D03*
X157000000Y-90000000D03*
X138362600Y-112136200D03*
X148014600Y-116301800D03*
X139683400Y-103754200D03*
X137397400Y-119095800D03*
X127000000Y-95000000D03*
X153350000Y-114050000D03*
X129980600Y-121737400D03*
X133425000Y-95375000D03*
X123960800Y-127858800D03*
X122000000Y-75000000D03*
X143700000Y-114800000D03*
X152000000Y-70000000D03*
X138875000Y-106350000D03*
X147000000Y-65000000D03*
X134650000Y-100900000D03*
X135850000Y-116900000D03*
X147000000Y-135000000D03*
X141075000Y-85025000D03*
X131650000Y-110625000D03*
X120074600Y-101392000D03*
X124575000Y-107050000D03*
X142000000Y-60000000D03*
X133925000Y-106450000D03*
X127000000Y-130000000D03*
X119550000Y-122250000D03*
X142000000Y-130000000D03*
X146550000Y-119700000D03*
%TO.N,/IRQ0*%
X129000000Y-116600000D03*
%TO.N,/DMA*%
X129000000Y-119600000D03*
%TO.N,/CF2*%
X129000000Y-114600000D03*
%TO.N,/CF4*%
X129000000Y-115600000D03*
%TO.N,/IRQ1*%
X132200000Y-117050000D03*
%TO.N,/CF1*%
X130200000Y-113350000D03*
%TO.N,/CF3*%
X132200000Y-115100000D03*
%TO.N,/WARN*%
X132200000Y-116100000D03*
%TO.N,/ZX1*%
X134000000Y-114700000D03*
%TO.N,/ZX2*%
X133100000Y-114750000D03*
%TO.N,/ZX0*%
X134850000Y-114700000D03*
%TO.N,+VIN*%
X104174200Y-80025000D03*
X105647400Y-84704200D03*
X88013000Y-79522600D03*
%TO.N,+3V3*%
X107641000Y-87142600D03*
X91448800Y-120416600D03*
%TO.N,GND*%
X112000000Y-75000000D03*
X90636000Y-86787000D03*
X102000000Y-55000000D03*
X103310600Y-94965800D03*
X112000000Y-70000000D03*
X103412200Y-83942200D03*
X91194800Y-90190600D03*
X92000000Y-70000000D03*
X112000000Y-65000000D03*
X99754600Y-117978200D03*
X84717800Y-81630800D03*
X102000000Y-65000000D03*
X97113000Y-84551800D03*
X92000000Y-65000000D03*
X96224000Y-99944200D03*
X112000000Y-55000000D03*
X92000000Y-60000000D03*
X102000000Y-70000000D03*
X102000000Y-75000000D03*
X106841200Y-83891400D03*
X92795000Y-106472000D03*
X92000000Y-130000000D03*
X92795000Y-122601000D03*
X99627600Y-80005200D03*
X102000000Y-60000000D03*
X90458200Y-82291200D03*
X95665200Y-119629200D03*
X111591000Y-128519200D03*
X92000000Y-135000000D03*
X92000000Y-55000000D03*
X107000000Y-65000000D03*
X100465800Y-113660200D03*
X87000000Y-70000000D03*
X104402800Y-113152200D03*
X104326600Y-104795600D03*
X89112000Y-118664000D03*
X107000000Y-55000000D03*
X107247600Y-92552800D03*
X99018000Y-93238600D03*
X106104600Y-87269600D03*
X105850600Y-78125600D03*
X87000000Y-60000000D03*
X107000000Y-120000000D03*
X111235400Y-89377800D03*
X97062200Y-86152000D03*
X102167600Y-87930000D03*
X97087600Y-87777600D03*
X112000000Y-80000000D03*
X112000000Y-130000000D03*
X94547600Y-117698800D03*
X89924800Y-106802200D03*
X89772400Y-100223600D03*
X112000000Y-135000000D03*
X107000000Y-60000000D03*
X107000000Y-70000000D03*
X112962600Y-104897200D03*
X110448000Y-86964800D03*
X102574000Y-122778800D03*
X114689800Y-120875000D03*
X97570200Y-122372400D03*
X106790400Y-82367400D03*
X110600400Y-85415400D03*
X92845800Y-94788000D03*
X112000000Y-60000000D03*
X92000000Y-75000000D03*
X107000000Y-75000000D03*
X87000000Y-75000000D03*
X100059400Y-129332000D03*
X87000000Y-65000000D03*
D26*
%TO.N,/ILIM*%
X102151992Y-81398008D03*
X102201992Y-78148008D03*
D25*
%TO.N,+3V3PWR*%
X126450000Y-112364800D03*
D26*
X125713400Y-124810800D03*
D25*
X124621200Y-103525600D03*
D26*
X131125000Y-126665000D03*
D25*
X125434000Y-117952800D03*
%TO.N,/EN*%
X92550000Y-114650000D03*
D26*
%TO.N,/MCU_MISO*%
X106500000Y-110450000D03*
X112000000Y-125955000D03*
%TO.N,/MCU_MOSI*%
X106500000Y-109150000D03*
X111950000Y-124685000D03*
%TO.N,/MCU_SCLK*%
X112000000Y-123415000D03*
X106500000Y-107900000D03*
%TO.N,/MCU_CS*%
X106500000Y-106600000D03*
X111997400Y-122143800D03*
D25*
%TO.N,/IO0*%
X106500000Y-97150000D03*
%TO.N,/SDA*%
X98880000Y-97150000D03*
%TO.N,/SCL*%
X97610000Y-97150000D03*
%TO.N,/RXD0*%
X95100000Y-99800000D03*
%TO.N,/TXD0*%
X93800000Y-99800000D03*
D26*
%TO.N,/PG*%
X93582400Y-80614800D03*
X105701992Y-83248008D03*
%TO.N,/CHG*%
X104751992Y-81548008D03*
X93582400Y-78430400D03*
%TD*%
%TO.N,/IRQ0*%
D27*
X129904400Y-119426000D02*
X129904400Y-117504400D01*
X129244000Y-131135400D02*
X132139600Y-128239800D01*
X129244000Y-134951000D02*
X129244000Y-131135400D01*
X127920000Y-136275000D02*
X129244000Y-134951000D01*
X129904400Y-117504400D02*
X129000000Y-116600000D01*
X132139600Y-121661200D02*
X129904400Y-119426000D01*
X132139600Y-128239800D02*
X132139600Y-121661200D01*
%TO.N,/DMA*%
X130056800Y-128290600D02*
X127920000Y-130427400D01*
X127920000Y-130427400D02*
X127920000Y-133735000D01*
X130844200Y-128290600D02*
X130056800Y-128290600D01*
X129000000Y-119600000D02*
X131707800Y-122307800D01*
X131707800Y-127427000D02*
X130844200Y-128290600D01*
X131707800Y-122307800D02*
X131707800Y-127427000D01*
%TO.N,/CF2*%
X131834800Y-132329200D02*
X131834800Y-134900200D01*
X130895000Y-118689400D02*
X133104800Y-120899200D01*
X131834800Y-134900200D02*
X130460000Y-136275000D01*
X133104800Y-131059200D02*
X131834800Y-132329200D01*
X129000000Y-114600000D02*
X130895000Y-116495000D01*
X133104800Y-120899200D02*
X133104800Y-131059200D01*
X130895000Y-116495000D02*
X130895000Y-118689400D01*
%TO.N,/CF4*%
X130463200Y-117063200D02*
X129000000Y-115600000D01*
X130460000Y-133735000D02*
X130460000Y-131494200D01*
X132647600Y-121229400D02*
X130463200Y-119045000D01*
X130460000Y-131494200D02*
X132647600Y-129306600D01*
X130463200Y-119045000D02*
X130463200Y-117063200D01*
X132647600Y-129306600D02*
X132647600Y-121229400D01*
%TO.N,/IRQ1*%
X132200000Y-118114800D02*
X134305000Y-120219800D01*
X134305000Y-134970000D02*
X133000000Y-136275000D01*
X132200000Y-117050000D02*
X132200000Y-118114800D01*
X134305000Y-120219800D02*
X134305000Y-134970000D01*
%TO.N,/CF1*%
X131600000Y-118353000D02*
X133587400Y-120340400D01*
X130200000Y-113350000D02*
X130200000Y-114997200D01*
X133587400Y-120340400D02*
X133587400Y-133147600D01*
X130200000Y-114997200D02*
X131600000Y-116397200D01*
X131600000Y-116397200D02*
X131600000Y-118353000D01*
X133587400Y-133147600D02*
X133000000Y-133735000D01*
%TO.N,/CF3*%
X132200000Y-115100000D02*
X133200000Y-116100000D01*
X135111400Y-124912400D02*
X136690000Y-126491000D01*
X136690000Y-126491000D02*
X136690000Y-135125000D01*
X133200000Y-117413000D02*
X135111400Y-119324400D01*
X136690000Y-135125000D02*
X135540000Y-136275000D01*
X133200000Y-116100000D02*
X133200000Y-117413000D01*
X135111400Y-119324400D02*
X135111400Y-124912400D01*
%TO.N,/WARN*%
X135540000Y-128668400D02*
X135540000Y-133735000D01*
X135540000Y-128668400D02*
X134705000Y-127833400D01*
X132800000Y-116657400D02*
X132800000Y-117978200D01*
X132800000Y-117978200D02*
X134705000Y-119883200D01*
X132200000Y-116100000D02*
X132242600Y-116100000D01*
X134705000Y-119883200D02*
X134705000Y-127833400D01*
X132242600Y-116100000D02*
X132800000Y-116657400D01*
%TO.N,/ZX1*%
X138362600Y-126334800D02*
X138362600Y-130144800D01*
X134298600Y-116657400D02*
X136102000Y-118460800D01*
X134298600Y-114998600D02*
X134298600Y-116657400D01*
X137016400Y-123185200D02*
X137016400Y-124988600D01*
X136102000Y-118460800D02*
X136102000Y-122270800D01*
X136102000Y-122270800D02*
X137016400Y-123185200D01*
X139378600Y-134976400D02*
X138080000Y-136275000D01*
X138362600Y-130144800D02*
X139378600Y-131160800D01*
X134000000Y-114700000D02*
X134298600Y-114998600D01*
X139378600Y-131160800D02*
X139378600Y-134976400D01*
X137016400Y-124988600D02*
X138362600Y-126334800D01*
%TO.N,/ZX2*%
X137473600Y-133128600D02*
X138080000Y-133735000D01*
X133816000Y-115466000D02*
X133816000Y-117216200D01*
X133816000Y-117216200D02*
X135594000Y-118994200D01*
X135594000Y-124531400D02*
X137473600Y-126411000D01*
X137473600Y-126411000D02*
X137473600Y-133128600D01*
X135594000Y-118994200D02*
X135594000Y-124531400D01*
X133100000Y-114750000D02*
X133816000Y-115466000D01*
%TO.N,/ZX0*%
X140620000Y-120470000D02*
X140620000Y-133735000D01*
X134850000Y-114700000D02*
X140620000Y-120470000D01*
%TO.N,+VIN*%
D28*
X108263600Y-83942200D02*
X107501600Y-84704200D01*
X107501600Y-84704200D02*
X105647400Y-84704200D01*
X107267400Y-80025000D02*
X108263600Y-81021200D01*
X104174200Y-78278000D02*
X102675600Y-76779400D01*
X104174200Y-80025000D02*
X104174200Y-78278000D01*
X104174200Y-80025000D02*
X107267400Y-80025000D01*
X108263600Y-81021200D02*
X108263600Y-83942200D01*
X90756200Y-76779400D02*
X88013000Y-79522600D01*
X102675600Y-76779400D02*
X90756200Y-76779400D01*
%TO.N,+3V3*%
D29*
X89543800Y-124937800D02*
X89543800Y-122321600D01*
X105939200Y-88844400D02*
X107641000Y-87142600D01*
X107641000Y-87142600D02*
X110653600Y-84130000D01*
X101862800Y-88844400D02*
X105939200Y-88844400D01*
X91448800Y-99258400D02*
X101862800Y-88844400D01*
X97190000Y-133295200D02*
X95081000Y-131186200D01*
X89594600Y-124988600D02*
X89543800Y-124937800D01*
X97190000Y-134750000D02*
X97190000Y-133295200D01*
X110653600Y-84130000D02*
X115450000Y-84130000D01*
X89543800Y-122321600D02*
X91448800Y-120416600D01*
X95081000Y-131186200D02*
X91067800Y-131186200D01*
X91067800Y-131186200D02*
X89594600Y-129713000D01*
X89594600Y-129713000D02*
X89594600Y-124988600D01*
X91448800Y-120416600D02*
X91448800Y-99258400D01*
%TO.N,/ILIM*%
D27*
X102151992Y-81398008D02*
X102151992Y-78198008D01*
X102151992Y-78198008D02*
X102201992Y-78148008D01*
%TO.N,+3V3PWR*%
D30*
X125713400Y-124810800D02*
X125713400Y-124836200D01*
X125434000Y-114422200D02*
X125434000Y-117952800D01*
X126450000Y-105354400D02*
X126450000Y-112364800D01*
X125434000Y-117952800D02*
X125434000Y-124531400D01*
X127542200Y-126665000D02*
X131125000Y-126665000D01*
X125713400Y-124836200D02*
X127542200Y-126665000D01*
X124621200Y-103525600D02*
X126450000Y-105354400D01*
X126450000Y-112364800D02*
X126450000Y-113406200D01*
X126450000Y-113406200D02*
X125434000Y-114422200D01*
X125434000Y-124531400D02*
X125713400Y-124810800D01*
%TO.N,/EN*%
D28*
X94954000Y-122550200D02*
X92550000Y-120146200D01*
X92550000Y-120146200D02*
X92550000Y-114650000D01*
X99730000Y-133371400D02*
X94954000Y-128595400D01*
X99730000Y-134750000D02*
X99730000Y-133371400D01*
X94954000Y-128595400D02*
X94954000Y-122550200D01*
%TO.N,/MCU_MISO*%
X109457400Y-113407400D02*
X106500000Y-110450000D01*
X112000000Y-125955000D02*
X109457400Y-123412400D01*
X109457400Y-123412400D02*
X109457400Y-113407400D01*
%TO.N,/MCU_MOSI*%
X111947800Y-124685000D02*
X111950000Y-124685000D01*
X110295600Y-123032800D02*
X111947800Y-124685000D01*
X107741200Y-109150000D02*
X110295600Y-111704400D01*
X106500000Y-109150000D02*
X107741200Y-109150000D01*
X110295600Y-111704400D02*
X110295600Y-123032800D01*
%TO.N,/MCU_SCLK*%
X106500000Y-107900000D02*
X108091400Y-107900000D01*
X111108400Y-122523400D02*
X112000000Y-123415000D01*
X108091400Y-107900000D02*
X111108400Y-110917000D01*
X111108400Y-110917000D02*
X111108400Y-122523400D01*
%TO.N,/MCU_CS*%
X108391600Y-106600000D02*
X111997400Y-110205800D01*
X106500000Y-106600000D02*
X108391600Y-106600000D01*
X111997400Y-110205800D02*
X111997400Y-122143800D01*
%TO.N,/IO0*%
X104809200Y-123413800D02*
X102269200Y-120873800D01*
X107350000Y-132761800D02*
X104809200Y-130221000D01*
X102269200Y-120873800D02*
X102269200Y-101380800D01*
X104809200Y-130221000D02*
X104809200Y-123413800D01*
X102269200Y-101380800D02*
X106500000Y-97150000D01*
X107350000Y-134750000D02*
X107350000Y-132761800D01*
%TO.N,/SDA*%
X110354600Y-94305400D02*
X115450000Y-89210000D01*
X98880000Y-97150000D02*
X103971200Y-97150000D01*
X106815800Y-94305400D02*
X110354600Y-94305400D01*
X103971200Y-97150000D02*
X106815800Y-94305400D01*
%TO.N,/SCL*%
X115450000Y-86670000D02*
X112241400Y-86670000D01*
X108111200Y-90800200D02*
X103959800Y-90800200D01*
X103959800Y-90800200D02*
X97610000Y-97150000D01*
X112241400Y-86670000D02*
X108111200Y-90800200D01*
%TO.N,/RXD0*%
X104810000Y-134750000D02*
X104810000Y-132939600D01*
X100542000Y-128671600D02*
X100542000Y-117444800D01*
X104810000Y-132939600D02*
X100542000Y-128671600D01*
X100542000Y-117444800D02*
X95100000Y-112002800D01*
X95100000Y-112002800D02*
X95100000Y-99800000D01*
%TO.N,/TXD0*%
X93800000Y-113598400D02*
X93800000Y-99800000D01*
X102270000Y-132736400D02*
X99119600Y-129586000D01*
X102270000Y-134750000D02*
X102270000Y-132736400D01*
X99119600Y-118918000D02*
X93800000Y-113598400D01*
X99119600Y-129586000D02*
X99119600Y-118918000D01*
%TO.N,/PG*%
X96799808Y-83248008D02*
X94166600Y-80614800D01*
X105701992Y-83248008D02*
X96799808Y-83248008D01*
X94166600Y-80614800D02*
X93582400Y-80614800D01*
%TO.N,/CHG*%
X104739592Y-81548008D02*
X103945600Y-82342000D01*
X95462000Y-78430400D02*
X93582400Y-78430400D01*
X104751992Y-81548008D02*
X104739592Y-81548008D01*
X103945600Y-82342000D02*
X99373600Y-82342000D01*
X99373600Y-82342000D02*
X95462000Y-78430400D01*
%TD*%
%TA.AperFunction,Conductor*%
%TO.N,N*%
G36*
X134784108Y-115200500D02*
G01*
X134784111Y-115200500D01*
X134884521Y-115200500D01*
X134942712Y-115219407D01*
X134954525Y-115229496D01*
X140290504Y-120565475D01*
X140318281Y-120619992D01*
X140319500Y-120635479D01*
X140319500Y-132656267D01*
X140300593Y-132714458D01*
X140258387Y-132747731D01*
X140122401Y-132804059D01*
X139950348Y-132919020D01*
X139950345Y-132919022D01*
X139950345Y-132919023D01*
X139848101Y-133021266D01*
X139793587Y-133049042D01*
X139733155Y-133039471D01*
X139689890Y-132996206D01*
X139679100Y-132951261D01*
X139679100Y-131121237D01*
X139679099Y-131121235D01*
X139658621Y-131044811D01*
X139658619Y-131044807D01*
X139619060Y-130976289D01*
X139563111Y-130920339D01*
X139563111Y-130920340D01*
X138692096Y-130049325D01*
X138664319Y-129994808D01*
X138663100Y-129979321D01*
X138663100Y-126295237D01*
X138663099Y-126295235D01*
X138642621Y-126218811D01*
X138642619Y-126218807D01*
X138603060Y-126150289D01*
X138547111Y-126094339D01*
X138547111Y-126094340D01*
X137345896Y-124893125D01*
X137318119Y-124838608D01*
X137316900Y-124823121D01*
X137316900Y-123145637D01*
X137316899Y-123145635D01*
X137296421Y-123069211D01*
X137296419Y-123069207D01*
X137256860Y-123000689D01*
X137200911Y-122944739D01*
X137200911Y-122944740D01*
X136431496Y-122175325D01*
X136403719Y-122120808D01*
X136402500Y-122105321D01*
X136402500Y-118421235D01*
X136402499Y-118421234D01*
X136399323Y-118409380D01*
X136399321Y-118409376D01*
X136394816Y-118392562D01*
X136382022Y-118344812D01*
X136342460Y-118276289D01*
X134628096Y-116561925D01*
X134600319Y-116507408D01*
X134599100Y-116491921D01*
X134599100Y-115279946D01*
X134607793Y-115253188D01*
X134615072Y-115226026D01*
X134617171Y-115224325D01*
X134618007Y-115221755D01*
X134640765Y-115205219D01*
X134662622Y-115187521D01*
X134665320Y-115187379D01*
X134667507Y-115185791D01*
X134723719Y-115184319D01*
X134784108Y-115200500D01*
G37*
%TD.AperFunction*%
%TA.AperFunction,Conductor*%
G36*
X135174504Y-125400475D02*
G01*
X136360504Y-126586475D01*
X136388281Y-126640992D01*
X136389500Y-126656479D01*
X136389500Y-132859861D01*
X136370593Y-132918052D01*
X136321093Y-132954016D01*
X136259907Y-132954016D01*
X136220498Y-132929866D01*
X136209655Y-132919023D01*
X136143859Y-132875060D01*
X136037598Y-132804059D01*
X135901613Y-132747731D01*
X135855088Y-132707994D01*
X135840500Y-132656267D01*
X135840500Y-128628837D01*
X135840499Y-128628835D01*
X135838157Y-128620096D01*
X135820021Y-128552411D01*
X135780460Y-128483889D01*
X135753842Y-128457271D01*
X135724511Y-128427939D01*
X135724511Y-128427940D01*
X135034496Y-127737925D01*
X135006719Y-127683408D01*
X135005500Y-127667921D01*
X135005500Y-125470479D01*
X135024407Y-125412288D01*
X135073907Y-125376324D01*
X135135093Y-125376324D01*
X135174504Y-125400475D01*
G37*
%TD.AperFunction*%
%TA.AperFunction,Conductor*%
G36*
X136063504Y-122657275D02*
G01*
X136686904Y-123280675D01*
X136714681Y-123335192D01*
X136715900Y-123350679D01*
X136715900Y-124989321D01*
X136696993Y-125047512D01*
X136647493Y-125083476D01*
X136586307Y-125083476D01*
X136546896Y-125059325D01*
X135923496Y-124435925D01*
X135895719Y-124381408D01*
X135894500Y-124365921D01*
X135894500Y-122727279D01*
X135913407Y-122669088D01*
X135962907Y-122633124D01*
X136024093Y-122633124D01*
X136063504Y-122657275D01*
G37*
%TD.AperFunction*%
%TA.AperFunction,Conductor*%
G36*
X159658691Y-50319407D02*
G01*
X159694655Y-50368907D01*
X159699500Y-50399500D01*
X159699500Y-63923174D01*
X159680593Y-63981365D01*
X159631093Y-64017329D01*
X159569907Y-64017329D01*
X159544121Y-64004552D01*
X159379541Y-63890531D01*
X159379538Y-63890529D01*
X159379536Y-63890528D01*
X159171316Y-63795949D01*
X159171314Y-63795948D01*
X159171312Y-63795947D01*
X158949555Y-63740070D01*
X158949556Y-63740070D01*
X158909261Y-63736899D01*
X158815247Y-63729500D01*
X158815240Y-63729500D01*
X156184759Y-63729500D01*
X156050444Y-63740070D01*
X155828687Y-63795947D01*
X155828685Y-63795948D01*
X155620468Y-63890526D01*
X155620458Y-63890531D01*
X155432480Y-64020763D01*
X155270763Y-64182480D01*
X155140531Y-64370458D01*
X155140526Y-64370468D01*
X155045948Y-64578685D01*
X155045947Y-64578687D01*
X154990070Y-64800443D01*
X154990070Y-64800447D01*
X154983394Y-64885283D01*
X154979500Y-64934759D01*
X154979500Y-67565240D01*
X154990070Y-67699555D01*
X155045947Y-67921312D01*
X155045948Y-67921314D01*
X155065486Y-67964327D01*
X155140528Y-68129536D01*
X155140529Y-68129538D01*
X155140531Y-68129541D01*
X155264764Y-68308860D01*
X155270766Y-68317523D01*
X155432477Y-68479234D01*
X155620464Y-68609472D01*
X155828684Y-68704051D01*
X155828686Y-68704051D01*
X155828687Y-68704052D01*
X155939565Y-68731990D01*
X156050447Y-68759930D01*
X156184753Y-68770500D01*
X158815246Y-68770499D01*
X158949553Y-68759930D01*
X159171316Y-68704051D01*
X159379536Y-68609472D01*
X159544121Y-68495447D01*
X159602721Y-68477850D01*
X159660473Y-68498058D01*
X159695317Y-68548353D01*
X159699500Y-68576825D01*
X159699500Y-139600500D01*
X159680593Y-139658691D01*
X159631093Y-139694655D01*
X159600500Y-139699500D01*
X119183000Y-139699500D01*
X119124809Y-139680593D01*
X119088845Y-139631093D01*
X119084000Y-139600500D01*
X119084000Y-103459708D01*
X124120700Y-103459708D01*
X124120700Y-103591492D01*
X124150779Y-103703751D01*
X124154809Y-103718790D01*
X124220696Y-103832909D01*
X124220698Y-103832911D01*
X124220700Y-103832914D01*
X124313886Y-103926100D01*
X124428014Y-103991992D01*
X124433087Y-103993351D01*
X124477471Y-104018974D01*
X125970504Y-105512007D01*
X125998281Y-105566524D01*
X125999500Y-105582011D01*
X125999500Y-112117561D01*
X125986238Y-112167059D01*
X125983608Y-112171613D01*
X125979294Y-112187713D01*
X125949500Y-112298908D01*
X125949500Y-112430692D01*
X125983608Y-112557986D01*
X125986234Y-112562535D01*
X125999500Y-112612038D01*
X125999500Y-113178589D01*
X125980593Y-113236780D01*
X125970504Y-113248593D01*
X125073507Y-114145590D01*
X125014200Y-114248312D01*
X125014200Y-114248313D01*
X125014201Y-114248314D01*
X125000487Y-114299497D01*
X124983500Y-114362892D01*
X124983500Y-117705561D01*
X124970238Y-117755059D01*
X124967608Y-117759613D01*
X124967608Y-117759614D01*
X124933500Y-117886908D01*
X124933500Y-118018692D01*
X124967608Y-118145986D01*
X124970234Y-118150535D01*
X124983500Y-118200038D01*
X124983500Y-124590709D01*
X124986927Y-124603497D01*
X125003464Y-124665219D01*
X125014200Y-124705286D01*
X125014202Y-124705290D01*
X125073507Y-124808009D01*
X125073511Y-124808014D01*
X125308999Y-125043503D01*
X125324729Y-125064002D01*
X125352911Y-125112814D01*
X127265586Y-127025490D01*
X127368313Y-127084799D01*
X127392520Y-127091284D01*
X127392525Y-127091287D01*
X127392526Y-127091286D01*
X127482888Y-127115499D01*
X127482890Y-127115500D01*
X127482891Y-127115500D01*
X131184308Y-127115500D01*
X131184309Y-127115500D01*
X131282677Y-127089142D01*
X131310755Y-127090613D01*
X131338893Y-127090613D01*
X131341079Y-127092201D01*
X131343778Y-127092343D01*
X131365634Y-127110041D01*
X131388393Y-127126577D01*
X131389228Y-127129147D01*
X131391328Y-127130848D01*
X131407300Y-127184768D01*
X131407300Y-127261521D01*
X131388393Y-127319712D01*
X131378304Y-127331525D01*
X130748725Y-127961104D01*
X130694208Y-127988881D01*
X130678721Y-127990100D01*
X130096362Y-127990100D01*
X130017238Y-127990100D01*
X129970461Y-128002633D01*
X129940807Y-128010579D01*
X129872293Y-128050136D01*
X127735489Y-130186940D01*
X127735488Y-130186939D01*
X127679539Y-130242889D01*
X127639980Y-130311407D01*
X127639979Y-130311410D01*
X127619500Y-130387835D01*
X127619500Y-132656267D01*
X127600593Y-132714458D01*
X127558387Y-132747731D01*
X127422401Y-132804059D01*
X127250348Y-132919020D01*
X127104020Y-133065348D01*
X126989058Y-133237402D01*
X126909869Y-133428581D01*
X126869500Y-133631532D01*
X126869500Y-133838467D01*
X126909869Y-134041418D01*
X126989058Y-134232597D01*
X127103523Y-134403907D01*
X127104023Y-134404655D01*
X127250345Y-134550977D01*
X127422402Y-134665941D01*
X127613580Y-134745130D01*
X127816535Y-134785500D01*
X127816536Y-134785500D01*
X128023464Y-134785500D01*
X128023465Y-134785500D01*
X128226420Y-134745130D01*
X128417598Y-134665941D01*
X128589655Y-134550977D01*
X128735977Y-134404655D01*
X128762184Y-134365432D01*
X128810234Y-134327553D01*
X128871372Y-134325151D01*
X128922246Y-134359143D01*
X128943424Y-134416547D01*
X128943500Y-134420434D01*
X128943500Y-134785521D01*
X128924593Y-134843712D01*
X128914504Y-134855525D01*
X128574525Y-135195504D01*
X128520008Y-135223281D01*
X128504521Y-135224500D01*
X127050252Y-135224500D01*
X127050251Y-135224500D01*
X127050241Y-135224501D01*
X126991772Y-135236132D01*
X126991766Y-135236134D01*
X126925451Y-135280445D01*
X126925445Y-135280451D01*
X126881134Y-135346766D01*
X126881132Y-135346772D01*
X126869501Y-135405241D01*
X126869500Y-135405253D01*
X126869500Y-137144746D01*
X126869501Y-137144758D01*
X126881132Y-137203227D01*
X126881134Y-137203233D01*
X126925445Y-137269548D01*
X126925448Y-137269552D01*
X126991769Y-137313867D01*
X127036231Y-137322711D01*
X127050241Y-137325498D01*
X127050246Y-137325498D01*
X127050252Y-137325500D01*
X127050253Y-137325500D01*
X128789747Y-137325500D01*
X128789748Y-137325500D01*
X128848231Y-137313867D01*
X128914552Y-137269552D01*
X128958867Y-137203231D01*
X128970500Y-137144748D01*
X128970500Y-135690478D01*
X128989407Y-135632287D01*
X128999490Y-135620480D01*
X129484460Y-135135511D01*
X129524022Y-135066988D01*
X129544500Y-134990562D01*
X129544500Y-134911438D01*
X129544500Y-134544139D01*
X129563407Y-134485948D01*
X129612907Y-134449984D01*
X129674093Y-134449984D01*
X129713501Y-134474133D01*
X129790345Y-134550977D01*
X129962402Y-134665941D01*
X130153580Y-134745130D01*
X130356535Y-134785500D01*
X130356536Y-134785500D01*
X130563464Y-134785500D01*
X130563465Y-134785500D01*
X130766420Y-134745130D01*
X130957598Y-134665941D01*
X131129655Y-134550977D01*
X131275977Y-134404655D01*
X131352984Y-134289404D01*
X131401034Y-134251525D01*
X131462172Y-134249123D01*
X131513046Y-134283115D01*
X131534224Y-134340519D01*
X131534300Y-134344406D01*
X131534300Y-134734720D01*
X131515393Y-134792911D01*
X131505304Y-134804724D01*
X131010292Y-135299736D01*
X130955775Y-135327513D01*
X130902402Y-135321196D01*
X130766418Y-135264869D01*
X130563467Y-135224500D01*
X130563465Y-135224500D01*
X130356535Y-135224500D01*
X130356532Y-135224500D01*
X130153581Y-135264869D01*
X129962402Y-135344058D01*
X129790348Y-135459020D01*
X129644020Y-135605348D01*
X129529058Y-135777402D01*
X129449869Y-135968581D01*
X129409500Y-136171532D01*
X129409500Y-136378467D01*
X129449869Y-136581418D01*
X129529058Y-136772597D01*
X129644020Y-136944651D01*
X129644023Y-136944655D01*
X129790345Y-137090977D01*
X129962402Y-137205941D01*
X130153580Y-137285130D01*
X130356535Y-137325500D01*
X130356536Y-137325500D01*
X130563464Y-137325500D01*
X130563465Y-137325500D01*
X130766420Y-137285130D01*
X130957598Y-137205941D01*
X131129655Y-137090977D01*
X131275977Y-136944655D01*
X131390941Y-136772598D01*
X131470130Y-136581420D01*
X131510500Y-136378465D01*
X131510500Y-136171535D01*
X131470130Y-135968580D01*
X131413802Y-135832595D01*
X131409002Y-135771599D01*
X131435261Y-135724708D01*
X132075260Y-135084711D01*
X132085492Y-135066988D01*
X132114821Y-135016189D01*
X132135300Y-134939762D01*
X132135300Y-134594939D01*
X132154207Y-134536748D01*
X132203707Y-134500784D01*
X132264893Y-134500784D01*
X132304301Y-134524933D01*
X132330345Y-134550977D01*
X132502402Y-134665941D01*
X132693580Y-134745130D01*
X132896535Y-134785500D01*
X132896536Y-134785500D01*
X133103464Y-134785500D01*
X133103465Y-134785500D01*
X133306420Y-134745130D01*
X133497598Y-134665941D01*
X133669655Y-134550977D01*
X133815977Y-134404655D01*
X133823184Y-134393869D01*
X133871234Y-134355989D01*
X133932372Y-134353587D01*
X133983246Y-134387579D01*
X134004424Y-134444983D01*
X134004500Y-134448870D01*
X134004500Y-134804520D01*
X133985593Y-134862711D01*
X133975504Y-134874524D01*
X133550292Y-135299736D01*
X133495775Y-135327513D01*
X133442402Y-135321196D01*
X133306418Y-135264869D01*
X133103467Y-135224500D01*
X133103465Y-135224500D01*
X132896535Y-135224500D01*
X132896532Y-135224500D01*
X132693581Y-135264869D01*
X132502402Y-135344058D01*
X132330348Y-135459020D01*
X132184020Y-135605348D01*
X132069058Y-135777402D01*
X131989869Y-135968581D01*
X131949500Y-136171532D01*
X131949500Y-136378467D01*
X131989869Y-136581418D01*
X132069058Y-136772597D01*
X132184020Y-136944651D01*
X132184023Y-136944655D01*
X132330345Y-137090977D01*
X132502402Y-137205941D01*
X132693580Y-137285130D01*
X132896535Y-137325500D01*
X132896536Y-137325500D01*
X133103464Y-137325500D01*
X133103465Y-137325500D01*
X133306420Y-137285130D01*
X133497598Y-137205941D01*
X133669655Y-137090977D01*
X133815977Y-136944655D01*
X133930941Y-136772598D01*
X134010130Y-136581420D01*
X134050500Y-136378465D01*
X134050500Y-136171535D01*
X134010130Y-135968580D01*
X133953802Y-135832595D01*
X133949002Y-135771599D01*
X133975261Y-135724708D01*
X134545460Y-135154511D01*
X134564641Y-135121289D01*
X134585020Y-135085992D01*
X134585020Y-135085990D01*
X134585022Y-135085988D01*
X134605500Y-135009562D01*
X134605500Y-134930438D01*
X134605500Y-134525139D01*
X134624407Y-134466948D01*
X134673907Y-134430984D01*
X134735093Y-134430984D01*
X134774501Y-134455133D01*
X134870345Y-134550977D01*
X135042402Y-134665941D01*
X135233580Y-134745130D01*
X135436535Y-134785500D01*
X135436536Y-134785500D01*
X135643464Y-134785500D01*
X135643465Y-134785500D01*
X135846420Y-134745130D01*
X136037598Y-134665941D01*
X136209655Y-134550977D01*
X136220498Y-134540133D01*
X136275013Y-134512358D01*
X136335445Y-134521929D01*
X136378710Y-134565194D01*
X136389500Y-134610139D01*
X136389500Y-134959521D01*
X136370593Y-135017712D01*
X136360503Y-135029525D01*
X136090291Y-135299736D01*
X136035775Y-135327513D01*
X135982402Y-135321196D01*
X135846418Y-135264869D01*
X135643467Y-135224500D01*
X135643465Y-135224500D01*
X135436535Y-135224500D01*
X135436532Y-135224500D01*
X135233581Y-135264869D01*
X135042402Y-135344058D01*
X134870348Y-135459020D01*
X134724020Y-135605348D01*
X134609058Y-135777402D01*
X134529869Y-135968581D01*
X134489500Y-136171532D01*
X134489500Y-136378467D01*
X134529869Y-136581418D01*
X134609058Y-136772597D01*
X134724020Y-136944651D01*
X134724023Y-136944655D01*
X134870345Y-137090977D01*
X135042402Y-137205941D01*
X135233580Y-137285130D01*
X135436535Y-137325500D01*
X135436536Y-137325500D01*
X135643464Y-137325500D01*
X135643465Y-137325500D01*
X135846420Y-137285130D01*
X136037598Y-137205941D01*
X136209655Y-137090977D01*
X136355977Y-136944655D01*
X136470941Y-136772598D01*
X136550130Y-136581420D01*
X136590500Y-136378465D01*
X136590500Y-136171535D01*
X136550130Y-135968580D01*
X136493801Y-135832592D01*
X136489001Y-135771600D01*
X136515261Y-135724708D01*
X136930460Y-135309511D01*
X136936104Y-135299736D01*
X136970020Y-135240992D01*
X136970020Y-135240990D01*
X136970022Y-135240988D01*
X136990500Y-135164562D01*
X136990500Y-135085438D01*
X136990500Y-134321657D01*
X137009407Y-134263466D01*
X137058907Y-134227502D01*
X137120093Y-134227502D01*
X137169593Y-134263466D01*
X137171816Y-134266656D01*
X137263518Y-134403900D01*
X137264023Y-134404655D01*
X137410345Y-134550977D01*
X137582402Y-134665941D01*
X137773580Y-134745130D01*
X137976535Y-134785500D01*
X137976536Y-134785500D01*
X138183464Y-134785500D01*
X138183465Y-134785500D01*
X138386420Y-134745130D01*
X138577598Y-134665941D01*
X138749655Y-134550977D01*
X138895977Y-134404655D01*
X138896477Y-134403907D01*
X138896783Y-134403450D01*
X138897302Y-134403040D01*
X138899065Y-134400893D01*
X138899535Y-134401279D01*
X138944831Y-134365568D01*
X139005969Y-134363164D01*
X139056844Y-134397155D01*
X139078024Y-134454558D01*
X139078100Y-134458448D01*
X139078100Y-134810920D01*
X139059193Y-134869111D01*
X139049104Y-134880924D01*
X138630292Y-135299736D01*
X138575775Y-135327513D01*
X138522402Y-135321196D01*
X138386418Y-135264869D01*
X138183467Y-135224500D01*
X138183465Y-135224500D01*
X137976535Y-135224500D01*
X137976532Y-135224500D01*
X137773581Y-135264869D01*
X137582402Y-135344058D01*
X137410348Y-135459020D01*
X137264020Y-135605348D01*
X137149058Y-135777402D01*
X137069869Y-135968581D01*
X137029500Y-136171532D01*
X137029500Y-136378467D01*
X137069869Y-136581418D01*
X137149058Y-136772597D01*
X137264020Y-136944651D01*
X137264023Y-136944655D01*
X137410345Y-137090977D01*
X137582402Y-137205941D01*
X137773580Y-137285130D01*
X137976535Y-137325500D01*
X137976536Y-137325500D01*
X138183464Y-137325500D01*
X138183465Y-137325500D01*
X138386420Y-137285130D01*
X138577598Y-137205941D01*
X138749655Y-137090977D01*
X138895977Y-136944655D01*
X139010941Y-136772598D01*
X139090130Y-136581420D01*
X139130500Y-136378465D01*
X139130500Y-136184489D01*
X139470000Y-136184489D01*
X139470000Y-136365510D01*
X139498316Y-136544289D01*
X139554250Y-136716440D01*
X139636430Y-136877728D01*
X139707424Y-136975442D01*
X140176328Y-136506536D01*
X140219901Y-136582007D01*
X140312993Y-136675099D01*
X140388460Y-136718670D01*
X139919556Y-137187574D01*
X139919556Y-137187575D01*
X140017263Y-137258564D01*
X140017269Y-137258568D01*
X140178559Y-137340749D01*
X140350710Y-137396683D01*
X140529490Y-137425000D01*
X140710510Y-137425000D01*
X140889289Y-137396683D01*
X141061440Y-137340749D01*
X141222730Y-137258568D01*
X141222735Y-137258564D01*
X141320442Y-137187575D01*
X141320442Y-137187574D01*
X140851538Y-136718670D01*
X140927007Y-136675099D01*
X141020099Y-136582007D01*
X141063670Y-136506538D01*
X141532574Y-136975442D01*
X141532575Y-136975442D01*
X141603564Y-136877735D01*
X141603568Y-136877730D01*
X141685749Y-136716440D01*
X141741683Y-136544289D01*
X141770000Y-136365510D01*
X141770000Y-136184489D01*
X141741683Y-136005710D01*
X141685749Y-135833559D01*
X141603568Y-135672269D01*
X141603564Y-135672263D01*
X141532575Y-135574556D01*
X141532574Y-135574556D01*
X141063670Y-136043460D01*
X141020099Y-135967993D01*
X140927007Y-135874901D01*
X140851536Y-135831328D01*
X141320442Y-135362424D01*
X141222728Y-135291430D01*
X141061440Y-135209250D01*
X140889289Y-135153316D01*
X140710510Y-135125000D01*
X140529490Y-135125000D01*
X140350710Y-135153316D01*
X140178559Y-135209250D01*
X140017269Y-135291431D01*
X140017265Y-135291433D01*
X139919556Y-135362423D01*
X140388461Y-135831328D01*
X140312993Y-135874901D01*
X140219901Y-135967993D01*
X140176328Y-136043461D01*
X139707423Y-135574556D01*
X139636433Y-135672265D01*
X139636431Y-135672269D01*
X139554250Y-135833559D01*
X139498316Y-136005710D01*
X139470000Y-136184489D01*
X139130500Y-136184489D01*
X139130500Y-136171535D01*
X139090130Y-135968580D01*
X139033802Y-135832595D01*
X139029002Y-135771599D01*
X139055264Y-135724706D01*
X139205414Y-135574556D01*
X139619060Y-135160911D01*
X139633728Y-135135506D01*
X139658620Y-135092392D01*
X139658620Y-135092390D01*
X139658622Y-135092388D01*
X139679100Y-135015962D01*
X139679100Y-134936838D01*
X139679100Y-134878710D01*
X153149500Y-134878710D01*
X153149500Y-135121289D01*
X153181161Y-135361781D01*
X153181161Y-135361786D01*
X153243944Y-135596092D01*
X153243948Y-135596105D01*
X153336772Y-135820204D01*
X153336774Y-135820208D01*
X153336776Y-135820212D01*
X153458064Y-136030289D01*
X153458066Y-136030292D01*
X153605729Y-136222731D01*
X153605731Y-136222733D01*
X153605735Y-136222738D01*
X153777262Y-136394265D01*
X153777266Y-136394268D01*
X153777268Y-136394270D01*
X153873346Y-136467993D01*
X153969711Y-136541936D01*
X154179788Y-136663224D01*
X154403900Y-136756054D01*
X154638211Y-136818838D01*
X154878712Y-136850500D01*
X154878713Y-136850500D01*
X155121287Y-136850500D01*
X155121288Y-136850500D01*
X155361789Y-136818838D01*
X155596100Y-136756054D01*
X155820212Y-136663224D01*
X156030289Y-136541936D01*
X156222738Y-136394265D01*
X156394265Y-136222738D01*
X156541936Y-136030289D01*
X156663224Y-135820212D01*
X156756054Y-135596100D01*
X156818838Y-135361789D01*
X156850500Y-135121288D01*
X156850500Y-134878712D01*
X156818838Y-134638211D01*
X156756054Y-134403900D01*
X156663224Y-134179788D01*
X156541936Y-133969711D01*
X156394265Y-133777262D01*
X156222738Y-133605735D01*
X156222733Y-133605731D01*
X156222731Y-133605729D01*
X156030292Y-133458066D01*
X156030289Y-133458064D01*
X155820212Y-133336776D01*
X155820208Y-133336774D01*
X155820204Y-133336772D01*
X155596105Y-133243948D01*
X155596104Y-133243947D01*
X155596100Y-133243946D01*
X155361789Y-133181162D01*
X155361786Y-133181161D01*
X155361784Y-133181161D01*
X155121289Y-133149500D01*
X155121288Y-133149500D01*
X154878712Y-133149500D01*
X154878710Y-133149500D01*
X154638218Y-133181161D01*
X154638213Y-133181161D01*
X154403907Y-133243944D01*
X154403894Y-133243948D01*
X154179795Y-133336772D01*
X153969707Y-133458066D01*
X153777268Y-133605729D01*
X153605729Y-133777268D01*
X153458066Y-133969707D01*
X153336772Y-134179795D01*
X153243948Y-134403894D01*
X153243944Y-134403907D01*
X153181161Y-134638213D01*
X153181161Y-134638218D01*
X153149500Y-134878710D01*
X139679100Y-134878710D01*
X139679100Y-134518739D01*
X139698007Y-134460548D01*
X139747507Y-134424584D01*
X139808693Y-134424584D01*
X139848101Y-134448733D01*
X139950345Y-134550977D01*
X140122402Y-134665941D01*
X140313580Y-134745130D01*
X140516535Y-134785500D01*
X140516536Y-134785500D01*
X140723464Y-134785500D01*
X140723465Y-134785500D01*
X140750937Y-134780035D01*
X140759296Y-134778373D01*
X140811994Y-134767890D01*
X140926420Y-134745130D01*
X141117598Y-134665941D01*
X141289655Y-134550977D01*
X141435977Y-134404655D01*
X141550941Y-134232598D01*
X141630130Y-134041420D01*
X141670500Y-133838465D01*
X141670500Y-133631535D01*
X141630130Y-133428580D01*
X141550941Y-133237402D01*
X141435977Y-133065345D01*
X141289655Y-132919023D01*
X141223859Y-132875060D01*
X141117598Y-132804059D01*
X140981613Y-132747731D01*
X140935088Y-132707994D01*
X140920500Y-132656267D01*
X140920500Y-120430437D01*
X140920499Y-120430435D01*
X140900021Y-120354011D01*
X140900019Y-120354007D01*
X140860460Y-120285489D01*
X140804511Y-120229539D01*
X140804511Y-120229540D01*
X135379496Y-114804525D01*
X135351719Y-114750008D01*
X135350500Y-114734521D01*
X135350500Y-114634109D01*
X135345365Y-114614945D01*
X135316392Y-114506814D01*
X135316390Y-114506811D01*
X135316390Y-114506809D01*
X135250503Y-114392690D01*
X135250501Y-114392688D01*
X135250500Y-114392686D01*
X135157314Y-114299500D01*
X135157311Y-114299498D01*
X135157309Y-114299496D01*
X135043189Y-114233609D01*
X135043191Y-114233609D01*
X134993799Y-114220375D01*
X134915892Y-114199500D01*
X134784108Y-114199500D01*
X134706200Y-114220375D01*
X134656809Y-114233609D01*
X134542690Y-114299496D01*
X134542689Y-114299497D01*
X134542686Y-114299499D01*
X134542686Y-114299500D01*
X134495001Y-114347184D01*
X134440487Y-114374960D01*
X134380055Y-114365389D01*
X134354999Y-114347185D01*
X134307314Y-114299500D01*
X134307311Y-114299498D01*
X134307309Y-114299496D01*
X134193189Y-114233609D01*
X134193191Y-114233609D01*
X134143799Y-114220375D01*
X134065892Y-114199500D01*
X133934108Y-114199500D01*
X133856200Y-114220375D01*
X133806809Y-114233609D01*
X133692690Y-114299496D01*
X133692689Y-114299497D01*
X133692686Y-114299499D01*
X133692686Y-114299500D01*
X133599500Y-114392686D01*
X133599498Y-114392688D01*
X133595004Y-114397183D01*
X133540487Y-114424960D01*
X133480055Y-114415389D01*
X133454999Y-114397185D01*
X133407314Y-114349500D01*
X133407311Y-114349498D01*
X133407309Y-114349496D01*
X133293189Y-114283609D01*
X133293191Y-114283609D01*
X133243799Y-114270375D01*
X133165892Y-114249500D01*
X133034108Y-114249500D01*
X132956200Y-114270375D01*
X132906809Y-114283609D01*
X132792690Y-114349496D01*
X132699496Y-114442690D01*
X132633609Y-114556810D01*
X132633607Y-114556814D01*
X132616969Y-114618908D01*
X132583645Y-114670222D01*
X132526523Y-114692148D01*
X132471843Y-114679020D01*
X132393189Y-114633609D01*
X132393191Y-114633609D01*
X132323534Y-114614945D01*
X132265892Y-114599500D01*
X132134108Y-114599500D01*
X132076466Y-114614945D01*
X132006809Y-114633609D01*
X131892690Y-114699496D01*
X131799496Y-114792690D01*
X131733609Y-114906809D01*
X131733608Y-114906814D01*
X131699500Y-115034108D01*
X131699500Y-115165892D01*
X131729275Y-115277016D01*
X131733609Y-115293190D01*
X131799496Y-115407309D01*
X131799498Y-115407311D01*
X131799500Y-115407314D01*
X131892686Y-115500500D01*
X131892688Y-115500501D01*
X131916525Y-115514264D01*
X131957465Y-115559734D01*
X131963860Y-115620584D01*
X131933267Y-115673572D01*
X131916525Y-115685736D01*
X131892688Y-115699498D01*
X131799496Y-115792690D01*
X131733607Y-115906814D01*
X131732013Y-115910662D01*
X131692274Y-115957186D01*
X131632779Y-115971466D01*
X131576252Y-115948049D01*
X131570547Y-115942776D01*
X130529496Y-114901725D01*
X130501719Y-114847208D01*
X130500500Y-114831721D01*
X130500500Y-113798321D01*
X130519407Y-113740130D01*
X130529490Y-113728323D01*
X130600500Y-113657314D01*
X130666392Y-113543186D01*
X130700500Y-113415892D01*
X130700500Y-113284108D01*
X130666392Y-113156814D01*
X130666390Y-113156811D01*
X130666390Y-113156809D01*
X130600503Y-113042690D01*
X130600501Y-113042688D01*
X130600500Y-113042686D01*
X130507314Y-112949500D01*
X130507311Y-112949498D01*
X130507309Y-112949496D01*
X130393189Y-112883609D01*
X130393191Y-112883609D01*
X130343799Y-112870375D01*
X130265892Y-112849500D01*
X130134108Y-112849500D01*
X130056200Y-112870375D01*
X130006809Y-112883609D01*
X129892690Y-112949496D01*
X129799496Y-113042690D01*
X129733609Y-113156809D01*
X129714539Y-113227978D01*
X129699500Y-113284108D01*
X129699500Y-113415892D01*
X129712795Y-113465509D01*
X129733609Y-113543190D01*
X129799496Y-113657309D01*
X129799498Y-113657311D01*
X129799500Y-113657314D01*
X129870505Y-113728319D01*
X129898281Y-113782834D01*
X129899500Y-113798321D01*
X129899500Y-114835521D01*
X129880593Y-114893712D01*
X129831093Y-114929676D01*
X129769907Y-114929676D01*
X129730496Y-114905525D01*
X129529496Y-114704525D01*
X129501719Y-114650008D01*
X129500500Y-114634521D01*
X129500500Y-114534109D01*
X129498074Y-114525055D01*
X129466392Y-114406814D01*
X129466390Y-114406811D01*
X129466390Y-114406809D01*
X129400503Y-114292690D01*
X129400501Y-114292688D01*
X129400500Y-114292686D01*
X129307314Y-114199500D01*
X129307311Y-114199498D01*
X129307309Y-114199496D01*
X129193189Y-114133609D01*
X129193191Y-114133609D01*
X129143799Y-114120375D01*
X129065892Y-114099500D01*
X128934108Y-114099500D01*
X128856200Y-114120375D01*
X128806809Y-114133609D01*
X128692690Y-114199496D01*
X128599496Y-114292690D01*
X128533609Y-114406809D01*
X128531310Y-114415389D01*
X128499500Y-114534108D01*
X128499500Y-114665892D01*
X128516065Y-114727713D01*
X128533609Y-114793190D01*
X128599496Y-114907309D01*
X128599498Y-114907311D01*
X128599500Y-114907314D01*
X128692686Y-115000500D01*
X128692688Y-115000501D01*
X128716525Y-115014264D01*
X128757465Y-115059734D01*
X128763860Y-115120584D01*
X128733267Y-115173572D01*
X128716525Y-115185736D01*
X128692688Y-115199498D01*
X128599496Y-115292690D01*
X128533609Y-115406809D01*
X128530855Y-115417089D01*
X128499500Y-115534108D01*
X128499500Y-115665892D01*
X128518726Y-115737644D01*
X128533609Y-115793190D01*
X128599496Y-115907309D01*
X128599498Y-115907311D01*
X128599500Y-115907314D01*
X128692686Y-116000500D01*
X128692688Y-116000501D01*
X128716525Y-116014264D01*
X128757465Y-116059734D01*
X128763860Y-116120584D01*
X128733267Y-116173572D01*
X128716525Y-116185736D01*
X128692688Y-116199498D01*
X128599496Y-116292690D01*
X128533609Y-116406809D01*
X128533608Y-116406814D01*
X128499500Y-116534108D01*
X128499500Y-116665892D01*
X128527269Y-116769529D01*
X128533609Y-116793190D01*
X128599496Y-116907309D01*
X128599498Y-116907311D01*
X128599500Y-116907314D01*
X128692686Y-117000500D01*
X128692688Y-117000501D01*
X128692690Y-117000503D01*
X128806810Y-117066390D01*
X128806808Y-117066390D01*
X128806812Y-117066391D01*
X128806814Y-117066392D01*
X128934108Y-117100500D01*
X128934110Y-117100500D01*
X129034521Y-117100500D01*
X129092712Y-117119407D01*
X129104525Y-117129496D01*
X129574904Y-117599875D01*
X129602681Y-117654392D01*
X129603900Y-117669879D01*
X129603900Y-119275511D01*
X129584993Y-119333702D01*
X129535493Y-119369666D01*
X129474307Y-119369666D01*
X129424807Y-119333702D01*
X129419164Y-119325012D01*
X129400501Y-119292688D01*
X129400500Y-119292686D01*
X129307314Y-119199500D01*
X129307311Y-119199498D01*
X129307309Y-119199496D01*
X129193189Y-119133609D01*
X129193191Y-119133609D01*
X129143799Y-119120375D01*
X129065892Y-119099500D01*
X128934108Y-119099500D01*
X128856200Y-119120375D01*
X128806809Y-119133609D01*
X128692690Y-119199496D01*
X128599496Y-119292690D01*
X128533609Y-119406809D01*
X128533608Y-119406814D01*
X128499500Y-119534108D01*
X128499500Y-119665892D01*
X128529579Y-119778151D01*
X128533609Y-119793190D01*
X128599496Y-119907309D01*
X128599498Y-119907311D01*
X128599500Y-119907314D01*
X128692686Y-120000500D01*
X128692688Y-120000501D01*
X128692690Y-120000503D01*
X128806810Y-120066390D01*
X128806808Y-120066390D01*
X128806812Y-120066391D01*
X128806814Y-120066392D01*
X128934108Y-120100500D01*
X128934110Y-120100500D01*
X129034521Y-120100500D01*
X129092712Y-120119407D01*
X129104525Y-120129496D01*
X131378304Y-122403275D01*
X131406081Y-122457792D01*
X131407300Y-122473279D01*
X131407300Y-126145231D01*
X131388393Y-126203422D01*
X131338893Y-126239386D01*
X131282677Y-126240857D01*
X131184309Y-126214500D01*
X131184307Y-126214500D01*
X127769812Y-126214500D01*
X127711621Y-126195593D01*
X127699808Y-126185504D01*
X126117800Y-124603497D01*
X126102066Y-124582991D01*
X126091613Y-124564885D01*
X126091613Y-124564884D01*
X126073888Y-124534185D01*
X125913496Y-124373792D01*
X125885719Y-124319276D01*
X125884500Y-124303789D01*
X125884500Y-118200038D01*
X125897765Y-118150535D01*
X125900392Y-118145986D01*
X125934500Y-118018692D01*
X125934500Y-117886908D01*
X125900392Y-117759614D01*
X125897761Y-117755058D01*
X125884500Y-117705561D01*
X125884500Y-114649810D01*
X125903407Y-114591619D01*
X125913490Y-114579812D01*
X126810489Y-113682814D01*
X126869799Y-113580087D01*
X126879686Y-113543186D01*
X126900500Y-113465509D01*
X126900500Y-112612038D01*
X126913765Y-112562535D01*
X126916392Y-112557986D01*
X126950500Y-112430692D01*
X126950500Y-112298908D01*
X126916392Y-112171614D01*
X126913761Y-112167058D01*
X126900500Y-112117561D01*
X126900500Y-110657644D01*
X154699500Y-110657644D01*
X154699500Y-110862355D01*
X154731521Y-111064529D01*
X154794780Y-111259219D01*
X154887712Y-111441609D01*
X154887714Y-111441613D01*
X155008029Y-111607213D01*
X155008031Y-111607215D01*
X155008034Y-111607219D01*
X155152781Y-111751966D01*
X155152784Y-111751968D01*
X155152786Y-111751970D01*
X155318386Y-111872285D01*
X155318390Y-111872287D01*
X155454797Y-111941790D01*
X155498062Y-111985055D01*
X155507633Y-112045487D01*
X155479856Y-112100004D01*
X155454797Y-112118210D01*
X155318390Y-112187712D01*
X155318386Y-112187714D01*
X155152786Y-112308029D01*
X155008029Y-112452786D01*
X154887714Y-112618386D01*
X154887712Y-112618390D01*
X154794780Y-112800780D01*
X154731521Y-112995470D01*
X154699500Y-113197644D01*
X154699500Y-113402355D01*
X154731521Y-113604529D01*
X154794780Y-113799219D01*
X154887712Y-113981609D01*
X154887714Y-113981613D01*
X155008029Y-114147213D01*
X155008031Y-114147215D01*
X155008034Y-114147219D01*
X155152781Y-114291966D01*
X155152784Y-114291968D01*
X155152786Y-114291970D01*
X155318386Y-114412285D01*
X155318390Y-114412287D01*
X155454797Y-114481790D01*
X155498062Y-114525055D01*
X155507633Y-114585487D01*
X155479856Y-114640004D01*
X155454797Y-114658210D01*
X155318390Y-114727712D01*
X155318386Y-114727714D01*
X155152786Y-114848029D01*
X155008029Y-114992786D01*
X154887714Y-115158386D01*
X154887712Y-115158390D01*
X154794780Y-115340780D01*
X154731521Y-115535470D01*
X154699500Y-115737644D01*
X154699500Y-115942355D01*
X154731521Y-116144529D01*
X154794780Y-116339219D01*
X154887712Y-116521609D01*
X154887714Y-116521613D01*
X155008029Y-116687213D01*
X155008031Y-116687215D01*
X155008034Y-116687219D01*
X155152781Y-116831966D01*
X155152784Y-116831968D01*
X155152786Y-116831970D01*
X155318386Y-116952285D01*
X155318390Y-116952287D01*
X155454797Y-117021790D01*
X155498062Y-117065055D01*
X155507633Y-117125487D01*
X155479856Y-117180004D01*
X155454797Y-117198210D01*
X155318390Y-117267712D01*
X155318386Y-117267714D01*
X155152786Y-117388029D01*
X155008029Y-117532786D01*
X154887714Y-117698386D01*
X154887712Y-117698390D01*
X154794780Y-117880780D01*
X154731521Y-118075470D01*
X154699500Y-118277644D01*
X154699500Y-118482355D01*
X154731521Y-118684529D01*
X154794780Y-118879219D01*
X154887712Y-119061609D01*
X154887714Y-119061613D01*
X155008029Y-119227213D01*
X155008031Y-119227215D01*
X155008034Y-119227219D01*
X155152781Y-119371966D01*
X155152784Y-119371968D01*
X155152786Y-119371970D01*
X155318386Y-119492285D01*
X155318390Y-119492287D01*
X155454797Y-119561790D01*
X155498062Y-119605055D01*
X155507633Y-119665487D01*
X155479856Y-119720004D01*
X155454797Y-119738210D01*
X155318390Y-119807712D01*
X155318386Y-119807714D01*
X155152786Y-119928029D01*
X155008029Y-120072786D01*
X154887714Y-120238386D01*
X154887712Y-120238390D01*
X154794780Y-120420780D01*
X154731521Y-120615470D01*
X154699500Y-120817644D01*
X154699500Y-121022355D01*
X154731521Y-121224529D01*
X154794780Y-121419219D01*
X154887712Y-121601609D01*
X154887714Y-121601613D01*
X155008029Y-121767213D01*
X155008031Y-121767215D01*
X155008034Y-121767219D01*
X155152781Y-121911966D01*
X155152784Y-121911968D01*
X155152786Y-121911970D01*
X155318386Y-122032285D01*
X155318390Y-122032287D01*
X155454797Y-122101790D01*
X155498062Y-122145055D01*
X155507633Y-122205487D01*
X155479856Y-122260004D01*
X155454797Y-122278210D01*
X155318390Y-122347712D01*
X155318386Y-122347714D01*
X155152786Y-122468029D01*
X155008029Y-122612786D01*
X154887714Y-122778386D01*
X154887712Y-122778390D01*
X154794780Y-122960780D01*
X154731521Y-123155470D01*
X154699500Y-123357644D01*
X154699500Y-123562355D01*
X154731521Y-123764529D01*
X154794780Y-123959219D01*
X154887712Y-124141609D01*
X154887714Y-124141613D01*
X155008029Y-124307213D01*
X155008031Y-124307215D01*
X155008034Y-124307219D01*
X155152781Y-124451966D01*
X155152784Y-124451968D01*
X155152786Y-124451970D01*
X155318386Y-124572285D01*
X155318390Y-124572287D01*
X155454797Y-124641790D01*
X155498062Y-124685055D01*
X155507633Y-124745487D01*
X155479856Y-124800004D01*
X155454797Y-124818210D01*
X155318390Y-124887712D01*
X155318386Y-124887714D01*
X155152786Y-125008029D01*
X155008029Y-125152786D01*
X154887714Y-125318386D01*
X154887712Y-125318390D01*
X154794780Y-125500780D01*
X154731521Y-125695470D01*
X154699500Y-125897644D01*
X154699500Y-126102355D01*
X154731521Y-126304529D01*
X154794780Y-126499219D01*
X154887712Y-126681609D01*
X154887714Y-126681613D01*
X155008029Y-126847213D01*
X155008031Y-126847215D01*
X155008034Y-126847219D01*
X155152781Y-126991966D01*
X155152784Y-126991968D01*
X155152786Y-126991970D01*
X155246983Y-127060407D01*
X155282947Y-127109907D01*
X155282948Y-127171092D01*
X155246984Y-127220592D01*
X155188794Y-127239500D01*
X155095732Y-127239500D01*
X155065303Y-127242353D01*
X154937113Y-127287208D01*
X154827854Y-127367845D01*
X154827845Y-127367854D01*
X154747207Y-127477115D01*
X154702355Y-127605295D01*
X154702353Y-127605304D01*
X154699500Y-127635724D01*
X154699500Y-129444267D01*
X154702353Y-129474696D01*
X154702353Y-129474698D01*
X154702354Y-129474700D01*
X154737405Y-129574871D01*
X154747208Y-129602886D01*
X154827845Y-129712145D01*
X154827854Y-129712154D01*
X154937115Y-129792792D01*
X154937116Y-129792792D01*
X154937117Y-129792793D01*
X155065300Y-129837646D01*
X155095733Y-129840500D01*
X156904266Y-129840499D01*
X156904267Y-129840499D01*
X156910352Y-129839928D01*
X156934700Y-129837646D01*
X157062883Y-129792793D01*
X157095211Y-129768934D01*
X157172145Y-129712154D01*
X157172146Y-129712152D01*
X157172150Y-129712150D01*
X157252793Y-129602883D01*
X157297646Y-129474700D01*
X157300500Y-129444267D01*
X157300499Y-127635734D01*
X157297646Y-127605300D01*
X157252793Y-127477117D01*
X157252791Y-127477115D01*
X157252791Y-127477113D01*
X157172154Y-127367854D01*
X157172145Y-127367845D01*
X157062884Y-127287207D01*
X156934704Y-127242355D01*
X156934695Y-127242353D01*
X156904275Y-127239500D01*
X156904267Y-127239500D01*
X156811208Y-127239500D01*
X156753017Y-127220593D01*
X156717053Y-127171093D01*
X156717053Y-127109907D01*
X156753017Y-127060407D01*
X156753018Y-127060407D01*
X156847213Y-126991970D01*
X156847219Y-126991966D01*
X156991966Y-126847219D01*
X157112287Y-126681610D01*
X157205220Y-126499219D01*
X157268477Y-126304534D01*
X157268481Y-126304511D01*
X157300500Y-126102355D01*
X157300500Y-125897644D01*
X157268478Y-125695470D01*
X157268477Y-125695466D01*
X157205220Y-125500781D01*
X157112287Y-125318390D01*
X157112285Y-125318386D01*
X156991970Y-125152786D01*
X156991968Y-125152784D01*
X156991966Y-125152781D01*
X156847219Y-125008034D01*
X156847215Y-125008031D01*
X156847213Y-125008029D01*
X156681613Y-124887714D01*
X156681609Y-124887712D01*
X156585236Y-124838608D01*
X156545201Y-124818209D01*
X156501937Y-124774945D01*
X156492366Y-124714513D01*
X156520143Y-124659997D01*
X156545199Y-124641791D01*
X156681610Y-124572287D01*
X156691796Y-124564887D01*
X156847213Y-124451970D01*
X156847219Y-124451966D01*
X156991966Y-124307219D01*
X157112287Y-124141610D01*
X157205220Y-123959219D01*
X157268477Y-123764534D01*
X157300500Y-123562352D01*
X157300500Y-123357648D01*
X157300500Y-123357644D01*
X157268478Y-123155470D01*
X157268477Y-123155466D01*
X157205220Y-122960781D01*
X157112287Y-122778390D01*
X157112285Y-122778386D01*
X156991970Y-122612786D01*
X156991968Y-122612784D01*
X156991966Y-122612781D01*
X156847219Y-122468034D01*
X156847215Y-122468031D01*
X156847213Y-122468029D01*
X156681613Y-122347714D01*
X156681609Y-122347712D01*
X156610847Y-122311657D01*
X156545201Y-122278209D01*
X156501937Y-122234945D01*
X156492366Y-122174513D01*
X156520143Y-122119997D01*
X156545199Y-122101791D01*
X156681610Y-122032287D01*
X156847219Y-121911966D01*
X156991966Y-121767219D01*
X157112287Y-121601610D01*
X157205220Y-121419219D01*
X157268477Y-121224534D01*
X157300500Y-121022352D01*
X157300500Y-120817648D01*
X157300500Y-120817644D01*
X157268478Y-120615470D01*
X157252234Y-120565475D01*
X157205220Y-120420781D01*
X157112287Y-120238390D01*
X157112285Y-120238386D01*
X156991970Y-120072786D01*
X156991968Y-120072784D01*
X156991966Y-120072781D01*
X156847219Y-119928034D01*
X156847215Y-119928031D01*
X156847213Y-119928029D01*
X156681613Y-119807714D01*
X156681609Y-119807712D01*
X156610847Y-119771657D01*
X156545201Y-119738209D01*
X156501937Y-119694945D01*
X156492366Y-119634513D01*
X156520143Y-119579997D01*
X156545199Y-119561791D01*
X156681610Y-119492287D01*
X156847219Y-119371966D01*
X156991966Y-119227219D01*
X157112287Y-119061610D01*
X157205220Y-118879219D01*
X157268477Y-118684534D01*
X157291764Y-118537511D01*
X157300500Y-118482355D01*
X157300500Y-118277644D01*
X157268478Y-118075470D01*
X157250029Y-118018690D01*
X157205220Y-117880781D01*
X157112287Y-117698390D01*
X157112285Y-117698386D01*
X156991970Y-117532786D01*
X156991968Y-117532784D01*
X156991966Y-117532781D01*
X156847219Y-117388034D01*
X156847215Y-117388031D01*
X156847213Y-117388029D01*
X156681613Y-117267714D01*
X156681609Y-117267712D01*
X156610847Y-117231657D01*
X156545201Y-117198209D01*
X156501937Y-117154945D01*
X156492366Y-117094513D01*
X156520143Y-117039997D01*
X156545199Y-117021791D01*
X156681610Y-116952287D01*
X156847219Y-116831966D01*
X156991966Y-116687219D01*
X157112287Y-116521610D01*
X157205220Y-116339219D01*
X157268477Y-116144534D01*
X157270315Y-116132929D01*
X157300500Y-115942355D01*
X157300500Y-115737644D01*
X157268478Y-115535470D01*
X157268036Y-115534109D01*
X157205220Y-115340781D01*
X157112287Y-115158390D01*
X157112285Y-115158386D01*
X156991970Y-114992786D01*
X156991968Y-114992784D01*
X156991966Y-114992781D01*
X156847219Y-114848034D01*
X156847215Y-114848031D01*
X156847213Y-114848029D01*
X156681613Y-114727714D01*
X156681609Y-114727712D01*
X156610847Y-114691657D01*
X156545201Y-114658209D01*
X156501937Y-114614945D01*
X156492366Y-114554513D01*
X156520143Y-114499997D01*
X156545199Y-114481791D01*
X156681610Y-114412287D01*
X156847219Y-114291966D01*
X156991966Y-114147219D01*
X157112287Y-113981610D01*
X157205220Y-113799219D01*
X157268477Y-113604534D01*
X157278194Y-113543186D01*
X157300500Y-113402355D01*
X157300500Y-113197644D01*
X157268478Y-112995470D01*
X157268477Y-112995466D01*
X157205220Y-112800781D01*
X157112287Y-112618390D01*
X157112285Y-112618386D01*
X156991970Y-112452786D01*
X156991968Y-112452784D01*
X156991966Y-112452781D01*
X156847219Y-112308034D01*
X156847215Y-112308031D01*
X156847213Y-112308029D01*
X156681613Y-112187714D01*
X156681609Y-112187712D01*
X156595991Y-112144088D01*
X156545201Y-112118209D01*
X156501937Y-112074945D01*
X156492366Y-112014513D01*
X156520143Y-111959997D01*
X156545199Y-111941791D01*
X156681610Y-111872287D01*
X156847219Y-111751966D01*
X156991966Y-111607219D01*
X157112287Y-111441610D01*
X157205220Y-111259219D01*
X157268477Y-111064534D01*
X157300500Y-110862352D01*
X157300500Y-110657648D01*
X157300500Y-110657644D01*
X157268478Y-110455470D01*
X157268477Y-110455466D01*
X157205220Y-110260781D01*
X157112287Y-110078390D01*
X157112285Y-110078386D01*
X156991970Y-109912786D01*
X156991968Y-109912784D01*
X156991966Y-109912781D01*
X156847219Y-109768034D01*
X156847215Y-109768031D01*
X156847213Y-109768029D01*
X156681613Y-109647714D01*
X156681609Y-109647712D01*
X156499219Y-109554780D01*
X156304529Y-109491521D01*
X156102355Y-109459500D01*
X156102352Y-109459500D01*
X155897648Y-109459500D01*
X155897645Y-109459500D01*
X155695470Y-109491521D01*
X155500780Y-109554780D01*
X155318390Y-109647712D01*
X155318386Y-109647714D01*
X155152786Y-109768029D01*
X155008029Y-109912786D01*
X154887714Y-110078386D01*
X154887712Y-110078390D01*
X154794780Y-110260780D01*
X154731521Y-110455470D01*
X154699500Y-110657644D01*
X126900500Y-110657644D01*
X126900500Y-105295092D01*
X126869800Y-105180518D01*
X126869799Y-105180514D01*
X126869799Y-105180513D01*
X126810490Y-105077786D01*
X125114573Y-103381870D01*
X125088951Y-103337487D01*
X125087592Y-103332415D01*
X125087592Y-103332414D01*
X125021700Y-103218286D01*
X124928514Y-103125100D01*
X124928511Y-103125098D01*
X124928509Y-103125096D01*
X124814389Y-103059209D01*
X124814391Y-103059209D01*
X124764999Y-103045975D01*
X124687092Y-103025100D01*
X124555308Y-103025100D01*
X124477400Y-103045975D01*
X124428009Y-103059209D01*
X124313890Y-103125096D01*
X124220696Y-103218290D01*
X124154809Y-103332409D01*
X124146582Y-103363115D01*
X124120700Y-103459708D01*
X119084000Y-103459708D01*
X119084000Y-98940564D01*
X119084000Y-98131196D01*
X119154174Y-98150000D01*
X119285826Y-98150000D01*
X119370000Y-98127445D01*
X119370000Y-98841199D01*
X119500996Y-98820453D01*
X119680635Y-98762085D01*
X119848936Y-98676332D01*
X119848940Y-98676330D01*
X120001742Y-98565313D01*
X120135313Y-98431742D01*
X120246330Y-98278940D01*
X120246332Y-98278936D01*
X120332085Y-98110635D01*
X120390453Y-97930996D01*
X120411201Y-97800000D01*
X119697445Y-97800000D01*
X119720000Y-97715826D01*
X119720000Y-97584174D01*
X119714429Y-97563385D01*
X120659500Y-97563385D01*
X120659500Y-97736614D01*
X120686597Y-97907702D01*
X120686598Y-97907706D01*
X120740123Y-98072438D01*
X120740125Y-98072441D01*
X120740126Y-98072444D01*
X120740127Y-98072445D01*
X120818768Y-98226788D01*
X120920586Y-98366928D01*
X121043072Y-98489414D01*
X121183212Y-98591232D01*
X121337555Y-98669873D01*
X121337557Y-98669873D01*
X121337558Y-98669874D01*
X121337561Y-98669876D01*
X121502293Y-98723401D01*
X121502297Y-98723402D01*
X121673386Y-98750500D01*
X121673389Y-98750500D01*
X121846614Y-98750500D01*
X122017702Y-98723402D01*
X122017706Y-98723401D01*
X122182438Y-98669876D01*
X122182440Y-98669874D01*
X122182445Y-98669873D01*
X122336788Y-98591232D01*
X122476928Y-98489414D01*
X122599414Y-98366928D01*
X122701232Y-98226788D01*
X122779873Y-98072445D01*
X122779874Y-98072440D01*
X122779876Y-98072438D01*
X122833401Y-97907706D01*
X122833402Y-97907702D01*
X122860500Y-97736614D01*
X122860500Y-97563385D01*
X122833402Y-97392297D01*
X122833401Y-97392293D01*
X122779876Y-97227561D01*
X122779874Y-97227558D01*
X122779873Y-97227557D01*
X122779873Y-97227555D01*
X122701232Y-97073212D01*
X122599414Y-96933072D01*
X122476928Y-96810586D01*
X122336788Y-96708768D01*
X122336787Y-96708767D01*
X122336785Y-96708766D01*
X122182441Y-96630125D01*
X122182438Y-96630123D01*
X122017706Y-96576598D01*
X122017702Y-96576597D01*
X121846614Y-96549500D01*
X121846611Y-96549500D01*
X121673389Y-96549500D01*
X121673386Y-96549500D01*
X121502297Y-96576597D01*
X121502293Y-96576598D01*
X121337561Y-96630123D01*
X121337558Y-96630125D01*
X121183214Y-96708766D01*
X121043073Y-96810585D01*
X120920585Y-96933073D01*
X120818766Y-97073214D01*
X120740125Y-97227558D01*
X120740123Y-97227561D01*
X120686598Y-97392293D01*
X120686597Y-97392297D01*
X120659500Y-97563385D01*
X119714429Y-97563385D01*
X119697445Y-97500000D01*
X120411200Y-97500000D01*
X120390453Y-97369003D01*
X120332085Y-97189364D01*
X120246332Y-97021063D01*
X120246330Y-97021059D01*
X120135313Y-96868257D01*
X120001742Y-96734686D01*
X119848940Y-96623669D01*
X119848936Y-96623667D01*
X119680635Y-96537914D01*
X119500996Y-96479546D01*
X119370000Y-96458798D01*
X119370000Y-97172554D01*
X119285826Y-97150000D01*
X119154174Y-97150000D01*
X119084000Y-97168803D01*
X119084000Y-90526935D01*
X152317500Y-90526935D01*
X152317500Y-91469999D01*
X152317501Y-91470000D01*
X153284603Y-91470000D01*
X153267500Y-91555981D01*
X153267500Y-91684019D01*
X153284603Y-91770000D01*
X152317501Y-91770000D01*
X152317500Y-91770001D01*
X152317500Y-92713064D01*
X152328113Y-92801443D01*
X152383580Y-92942095D01*
X152474935Y-93062564D01*
X152595404Y-93153919D01*
X152736056Y-93209386D01*
X152824435Y-93219999D01*
X152824442Y-93220000D01*
X153767499Y-93220000D01*
X153767500Y-93219999D01*
X153767500Y-92252897D01*
X153853481Y-92270000D01*
X153981519Y-92270000D01*
X154067500Y-92252897D01*
X154067500Y-93219999D01*
X154067501Y-93220000D01*
X155010558Y-93220000D01*
X155010564Y-93219999D01*
X155098943Y-93209386D01*
X155239595Y-93153919D01*
X155360064Y-93062564D01*
X155451419Y-92942095D01*
X155506886Y-92801443D01*
X155517499Y-92713064D01*
X155517500Y-92713058D01*
X155517500Y-91770001D01*
X155517499Y-91770000D01*
X154550397Y-91770000D01*
X154567500Y-91684019D01*
X154567500Y-91555981D01*
X154550397Y-91470000D01*
X155517499Y-91470000D01*
X155517500Y-91469999D01*
X155517500Y-90526941D01*
X155517499Y-90526935D01*
X155506886Y-90438556D01*
X155451419Y-90297904D01*
X155360064Y-90177435D01*
X155239595Y-90086080D01*
X155098943Y-90030613D01*
X155010564Y-90020000D01*
X154067501Y-90020000D01*
X154067500Y-90020001D01*
X154067500Y-90987102D01*
X153981519Y-90970000D01*
X153853481Y-90970000D01*
X153767500Y-90987102D01*
X153767500Y-90020001D01*
X153767499Y-90020000D01*
X152824435Y-90020000D01*
X152736056Y-90030613D01*
X152595404Y-90086080D01*
X152474935Y-90177435D01*
X152383580Y-90297904D01*
X152328113Y-90438556D01*
X152317500Y-90526935D01*
X119084000Y-90526935D01*
X119084000Y-76235627D01*
X151347000Y-76235627D01*
X151347000Y-76524372D01*
X151379325Y-76811252D01*
X151443570Y-77092730D01*
X151538923Y-77365231D01*
X151664194Y-77625359D01*
X151817800Y-77869821D01*
X151817802Y-77869824D01*
X151997797Y-78095532D01*
X151997803Y-78095538D01*
X151997807Y-78095543D01*
X152201957Y-78299693D01*
X152201961Y-78299696D01*
X152201967Y-78299702D01*
X152427675Y-78479697D01*
X152427679Y-78479699D01*
X152427682Y-78479702D01*
X152672142Y-78633306D01*
X152932262Y-78758574D01*
X152932268Y-78758576D01*
X153126541Y-78826556D01*
X153175221Y-78863621D01*
X153192818Y-78922222D01*
X153172610Y-78979973D01*
X153126541Y-79013444D01*
X152932268Y-79081423D01*
X152672140Y-79206694D01*
X152427678Y-79360300D01*
X152427675Y-79360302D01*
X152201967Y-79540297D01*
X151997797Y-79744467D01*
X151817802Y-79970175D01*
X151817800Y-79970178D01*
X151664194Y-80214640D01*
X151538923Y-80474768D01*
X151443570Y-80747269D01*
X151379325Y-81028747D01*
X151347000Y-81315627D01*
X151347000Y-81604372D01*
X151379325Y-81891252D01*
X151443570Y-82172730D01*
X151538923Y-82445231D01*
X151664194Y-82705359D01*
X151817800Y-82949821D01*
X151817802Y-82949824D01*
X151997797Y-83175532D01*
X151997803Y-83175538D01*
X151997807Y-83175543D01*
X152201957Y-83379693D01*
X152201961Y-83379696D01*
X152201967Y-83379702D01*
X152427675Y-83559697D01*
X152427679Y-83559699D01*
X152427682Y-83559702D01*
X152672142Y-83713306D01*
X152932262Y-83838574D01*
X152932268Y-83838576D01*
X153126541Y-83906556D01*
X153175221Y-83943621D01*
X153192818Y-84002222D01*
X153172610Y-84059973D01*
X153126541Y-84093444D01*
X152932268Y-84161423D01*
X152672140Y-84286694D01*
X152427678Y-84440300D01*
X152427675Y-84440302D01*
X152201967Y-84620297D01*
X151997797Y-84824467D01*
X151817802Y-85050175D01*
X151817800Y-85050178D01*
X151664194Y-85294640D01*
X151538923Y-85554768D01*
X151443570Y-85827269D01*
X151379325Y-86108747D01*
X151347000Y-86395627D01*
X151347000Y-86684372D01*
X151379325Y-86971252D01*
X151443570Y-87252730D01*
X151538923Y-87525231D01*
X151664194Y-87785359D01*
X151817800Y-88029821D01*
X151817802Y-88029824D01*
X151997797Y-88255532D01*
X151997803Y-88255538D01*
X151997807Y-88255543D01*
X152201957Y-88459693D01*
X152201961Y-88459696D01*
X152201967Y-88459702D01*
X152427675Y-88639697D01*
X152427679Y-88639699D01*
X152427682Y-88639702D01*
X152672142Y-88793306D01*
X152932262Y-88918574D01*
X152932268Y-88918576D01*
X153204769Y-89013929D01*
X153486247Y-89078174D01*
X153773127Y-89110499D01*
X153773143Y-89110499D01*
X153773144Y-89110500D01*
X153773145Y-89110500D01*
X154061855Y-89110500D01*
X154061856Y-89110500D01*
X154061857Y-89110499D01*
X154061872Y-89110499D01*
X154313443Y-89082152D01*
X154348753Y-89078174D01*
X154630227Y-89013930D01*
X154902738Y-88918574D01*
X155162858Y-88793306D01*
X155407318Y-88639702D01*
X155633043Y-88459693D01*
X155837193Y-88255543D01*
X156017202Y-88029818D01*
X156170806Y-87785358D01*
X156296074Y-87525238D01*
X156391430Y-87252727D01*
X156455674Y-86971253D01*
X156459652Y-86935943D01*
X156487999Y-86684372D01*
X156488000Y-86684355D01*
X156488000Y-86395644D01*
X156487999Y-86395627D01*
X156455674Y-86108747D01*
X156391429Y-85827269D01*
X156296076Y-85554768D01*
X156296074Y-85554762D01*
X156170806Y-85294642D01*
X156017202Y-85050182D01*
X156017199Y-85050178D01*
X156017197Y-85050175D01*
X155837202Y-84824467D01*
X155837196Y-84824461D01*
X155837193Y-84824457D01*
X155633043Y-84620307D01*
X155633038Y-84620303D01*
X155633032Y-84620297D01*
X155407324Y-84440302D01*
X155407321Y-84440300D01*
X155162859Y-84286694D01*
X155015933Y-84215938D01*
X154902738Y-84161426D01*
X154902735Y-84161425D01*
X154902731Y-84161423D01*
X154708458Y-84093444D01*
X154659778Y-84056379D01*
X154642181Y-83997779D01*
X154662389Y-83940027D01*
X154708458Y-83906556D01*
X154784707Y-83879874D01*
X154902738Y-83838574D01*
X155162858Y-83713306D01*
X155407318Y-83559702D01*
X155633043Y-83379693D01*
X155837193Y-83175543D01*
X156017202Y-82949818D01*
X156170806Y-82705358D01*
X156296074Y-82445238D01*
X156391430Y-82172727D01*
X156455674Y-81891253D01*
X156459652Y-81855943D01*
X156487999Y-81604372D01*
X156488000Y-81604355D01*
X156488000Y-81315644D01*
X156487999Y-81315627D01*
X156455674Y-81028747D01*
X156391429Y-80747269D01*
X156296076Y-80474768D01*
X156296074Y-80474762D01*
X156170806Y-80214642D01*
X156017202Y-79970182D01*
X156017199Y-79970178D01*
X156017197Y-79970175D01*
X155837202Y-79744467D01*
X155837196Y-79744461D01*
X155837193Y-79744457D01*
X155633043Y-79540307D01*
X155633038Y-79540303D01*
X155633032Y-79540297D01*
X155407324Y-79360302D01*
X155407321Y-79360300D01*
X155162859Y-79206694D01*
X155015933Y-79135938D01*
X154902738Y-79081426D01*
X154902735Y-79081425D01*
X154902731Y-79081423D01*
X154708458Y-79013444D01*
X154659778Y-78976379D01*
X154642181Y-78917779D01*
X154662389Y-78860027D01*
X154708458Y-78826556D01*
X154784707Y-78799874D01*
X154902738Y-78758574D01*
X155162858Y-78633306D01*
X155407318Y-78479702D01*
X155633043Y-78299693D01*
X155837193Y-78095543D01*
X156017202Y-77869818D01*
X156170806Y-77625358D01*
X156296074Y-77365238D01*
X156391430Y-77092727D01*
X156455674Y-76811253D01*
X156459652Y-76775943D01*
X156487999Y-76524372D01*
X156488000Y-76524355D01*
X156488000Y-76235644D01*
X156487999Y-76235627D01*
X156455674Y-75948747D01*
X156391429Y-75667269D01*
X156296076Y-75394768D01*
X156296074Y-75394762D01*
X156170806Y-75134642D01*
X156017202Y-74890182D01*
X156017199Y-74890178D01*
X156017197Y-74890175D01*
X155837202Y-74664467D01*
X155837196Y-74664461D01*
X155837193Y-74664457D01*
X155633043Y-74460307D01*
X155633038Y-74460303D01*
X155633032Y-74460297D01*
X155407324Y-74280302D01*
X155407321Y-74280300D01*
X155162859Y-74126694D01*
X155015933Y-74055938D01*
X154902738Y-74001426D01*
X154902735Y-74001425D01*
X154902731Y-74001423D01*
X154630230Y-73906070D01*
X154348752Y-73841825D01*
X154061872Y-73809500D01*
X154061856Y-73809500D01*
X153773144Y-73809500D01*
X153773127Y-73809500D01*
X153486247Y-73841825D01*
X153204769Y-73906070D01*
X152932268Y-74001423D01*
X152672140Y-74126694D01*
X152427678Y-74280300D01*
X152427675Y-74280302D01*
X152201967Y-74460297D01*
X151997797Y-74664467D01*
X151817802Y-74890175D01*
X151817800Y-74890178D01*
X151664194Y-75134640D01*
X151538923Y-75394768D01*
X151443570Y-75667269D01*
X151379325Y-75948747D01*
X151347000Y-76235627D01*
X119084000Y-76235627D01*
X119084000Y-66179928D01*
X126427000Y-66179928D01*
X126427000Y-67820070D01*
X126437184Y-67964327D01*
X126474392Y-68129531D01*
X126491124Y-68203825D01*
X126533397Y-68308860D01*
X126582783Y-68431570D01*
X126690327Y-68609468D01*
X126709786Y-68641657D01*
X126868846Y-68828654D01*
X127055843Y-68987714D01*
X127055848Y-68987717D01*
X127265929Y-69114716D01*
X127265931Y-69114716D01*
X127265933Y-69114718D01*
X127493675Y-69206376D01*
X127733171Y-69260315D01*
X127877431Y-69270500D01*
X129217568Y-69270499D01*
X129217570Y-69270499D01*
X129289698Y-69265407D01*
X129361829Y-69260315D01*
X129601325Y-69206376D01*
X129829067Y-69114718D01*
X130039157Y-68987714D01*
X130226154Y-68828654D01*
X130385214Y-68641657D01*
X130512218Y-68431567D01*
X130603876Y-68203825D01*
X130657815Y-67964329D01*
X130668000Y-67820069D01*
X130667999Y-66179932D01*
X130662952Y-66108435D01*
X132479500Y-66108435D01*
X132479500Y-66391564D01*
X132511196Y-66672861D01*
X132511197Y-66672867D01*
X132574192Y-66948866D01*
X132667692Y-67216071D01*
X132667693Y-67216073D01*
X132790522Y-67471132D01*
X132849654Y-67565240D01*
X132941140Y-67710839D01*
X133117648Y-67932173D01*
X133317827Y-68132352D01*
X133539161Y-68308860D01*
X133600270Y-68347257D01*
X133778867Y-68459477D01*
X133853560Y-68495447D01*
X134033927Y-68582307D01*
X134111549Y-68609468D01*
X134301133Y-68675807D01*
X134301136Y-68675807D01*
X134301137Y-68675808D01*
X134577135Y-68738803D01*
X134652994Y-68747350D01*
X134858435Y-68770499D01*
X134858451Y-68770499D01*
X134858452Y-68770500D01*
X134858453Y-68770500D01*
X135141547Y-68770500D01*
X135141548Y-68770500D01*
X135141549Y-68770499D01*
X135141564Y-68770499D01*
X135321718Y-68750199D01*
X135422865Y-68738803D01*
X135698863Y-68675808D01*
X135966073Y-68582307D01*
X136221134Y-68459476D01*
X136460839Y-68308860D01*
X136682173Y-68132352D01*
X136882352Y-67932173D01*
X137058860Y-67710839D01*
X137209476Y-67471134D01*
X137332307Y-67216073D01*
X137425808Y-66948863D01*
X137488803Y-66672865D01*
X137500199Y-66571718D01*
X137520499Y-66391564D01*
X137520500Y-66391547D01*
X137520500Y-66108452D01*
X137520499Y-66108435D01*
X137488803Y-65827138D01*
X137488802Y-65827132D01*
X137481736Y-65796175D01*
X137425808Y-65551137D01*
X137332307Y-65283927D01*
X137270891Y-65156396D01*
X137209477Y-65028867D01*
X137119257Y-64885283D01*
X137058860Y-64789161D01*
X136882352Y-64567827D01*
X136682173Y-64367648D01*
X136460839Y-64191140D01*
X136447052Y-64182477D01*
X136221132Y-64040522D01*
X135966073Y-63917693D01*
X135966071Y-63917692D01*
X135698866Y-63824192D01*
X135422867Y-63761197D01*
X135422861Y-63761196D01*
X135141564Y-63729500D01*
X135141548Y-63729500D01*
X134858452Y-63729500D01*
X134858435Y-63729500D01*
X134577138Y-63761196D01*
X134577132Y-63761197D01*
X134301133Y-63824192D01*
X134033928Y-63917692D01*
X134033926Y-63917693D01*
X133778867Y-64040522D01*
X133539160Y-64191140D01*
X133317828Y-64367647D01*
X133117647Y-64567828D01*
X132941140Y-64789160D01*
X132790522Y-65028867D01*
X132667693Y-65283926D01*
X132667692Y-65283928D01*
X132574192Y-65551133D01*
X132511197Y-65827132D01*
X132511196Y-65827138D01*
X132479500Y-66108435D01*
X130662952Y-66108435D01*
X130657815Y-66035671D01*
X130603876Y-65796175D01*
X130512218Y-65568433D01*
X130501762Y-65551137D01*
X130385217Y-65358348D01*
X130385214Y-65358343D01*
X130226154Y-65171346D01*
X130039157Y-65012286D01*
X130039152Y-65012283D01*
X130039151Y-65012282D01*
X129829070Y-64885283D01*
X129751620Y-64854112D01*
X129601325Y-64793624D01*
X129531705Y-64777944D01*
X129361827Y-64739684D01*
X129217571Y-64729500D01*
X127877429Y-64729500D01*
X127733172Y-64739684D01*
X127493675Y-64793624D01*
X127265929Y-64885283D01*
X127055848Y-65012282D01*
X127055844Y-65012285D01*
X127055843Y-65012286D01*
X126868846Y-65171346D01*
X126773085Y-65283927D01*
X126709782Y-65358348D01*
X126582783Y-65568429D01*
X126491124Y-65796175D01*
X126437184Y-66035672D01*
X126427000Y-66179928D01*
X119084000Y-66179928D01*
X119084000Y-60759489D01*
X127397500Y-60759489D01*
X127397500Y-60849999D01*
X127397501Y-60850000D01*
X128070055Y-60850000D01*
X128047500Y-60934174D01*
X128047500Y-61065826D01*
X128070055Y-61150000D01*
X127397501Y-61150000D01*
X127397500Y-61150001D01*
X127397500Y-61240510D01*
X127425816Y-61419289D01*
X127481750Y-61591440D01*
X127563931Y-61752730D01*
X127563933Y-61752734D01*
X127670324Y-61899169D01*
X127798330Y-62027175D01*
X127944765Y-62133566D01*
X127944769Y-62133568D01*
X128106059Y-62215749D01*
X128278210Y-62271683D01*
X128397500Y-62290577D01*
X128397500Y-61477445D01*
X128481674Y-61500000D01*
X128613326Y-61500000D01*
X128697500Y-61477445D01*
X128697500Y-62290576D01*
X128816789Y-62271683D01*
X128988940Y-62215749D01*
X129150230Y-62133568D01*
X129150234Y-62133566D01*
X129296669Y-62027175D01*
X129424675Y-61899169D01*
X129531066Y-61752734D01*
X129531068Y-61752730D01*
X129613249Y-61591440D01*
X129669183Y-61419289D01*
X129697500Y-61240510D01*
X129697500Y-61150001D01*
X129697499Y-61150000D01*
X129024945Y-61150000D01*
X129047500Y-61065826D01*
X129047500Y-60934174D01*
X129024945Y-60850000D01*
X129697499Y-60850000D01*
X129697500Y-60849999D01*
X129697500Y-60759489D01*
X129669183Y-60580710D01*
X129613249Y-60408559D01*
X129531068Y-60247269D01*
X129531066Y-60247265D01*
X129424675Y-60100830D01*
X129296669Y-59972824D01*
X129150234Y-59866433D01*
X129150230Y-59866431D01*
X128988940Y-59784250D01*
X128816790Y-59728316D01*
X128697500Y-59709422D01*
X128697500Y-60522554D01*
X128613326Y-60500000D01*
X128481674Y-60500000D01*
X128397500Y-60522554D01*
X128397500Y-59709422D01*
X128397499Y-59709422D01*
X128278209Y-59728316D01*
X128106059Y-59784250D01*
X127944769Y-59866431D01*
X127944765Y-59866433D01*
X127798330Y-59972824D01*
X127670324Y-60100830D01*
X127563933Y-60247265D01*
X127563931Y-60247269D01*
X127481750Y-60408559D01*
X127425816Y-60580710D01*
X127397500Y-60759489D01*
X119084000Y-60759489D01*
X119084000Y-55207737D01*
X135579500Y-55207737D01*
X135579500Y-55492262D01*
X135616637Y-55774344D01*
X135616637Y-55774349D01*
X135616638Y-55774352D01*
X135682745Y-56021069D01*
X135690276Y-56049173D01*
X135690278Y-56049181D01*
X135799158Y-56312042D01*
X135799161Y-56312047D01*
X135931887Y-56541936D01*
X135941425Y-56558455D01*
X136011669Y-56649999D01*
X136114630Y-56784181D01*
X136315819Y-56985370D01*
X136541548Y-57158577D01*
X136787953Y-57300839D01*
X136787954Y-57300839D01*
X136787957Y-57300841D01*
X136885056Y-57341060D01*
X137050819Y-57409722D01*
X137325648Y-57483362D01*
X137607738Y-57520500D01*
X137607739Y-57520500D01*
X137892261Y-57520500D01*
X137892262Y-57520500D01*
X138174352Y-57483362D01*
X138449181Y-57409722D01*
X138712047Y-57300839D01*
X138958452Y-57158577D01*
X139184181Y-56985370D01*
X139385370Y-56784181D01*
X139558577Y-56558452D01*
X139560250Y-56555554D01*
X144050000Y-56555554D01*
X144050000Y-56744445D01*
X144079546Y-56930996D01*
X144137914Y-57110635D01*
X144223667Y-57278935D01*
X144301626Y-57386239D01*
X144842930Y-56844934D01*
X144889910Y-56926306D01*
X144973694Y-57010090D01*
X145055062Y-57057068D01*
X144513759Y-57598372D01*
X144621059Y-57676330D01*
X144621063Y-57676332D01*
X144789364Y-57762085D01*
X144969003Y-57820453D01*
X145155555Y-57850000D01*
X145344445Y-57850000D01*
X145530996Y-57820453D01*
X145710635Y-57762085D01*
X145878934Y-57676333D01*
X145986238Y-57598371D01*
X145444935Y-57057068D01*
X145526306Y-57010090D01*
X145610090Y-56926306D01*
X145657068Y-56844935D01*
X146198371Y-57386238D01*
X146276333Y-57278934D01*
X146362085Y-57110635D01*
X146420453Y-56930996D01*
X146450000Y-56744445D01*
X146450000Y-56555554D01*
X146420453Y-56369003D01*
X146362085Y-56189364D01*
X146276332Y-56021063D01*
X146276330Y-56021059D01*
X146198372Y-55913759D01*
X145657068Y-56455062D01*
X145610090Y-56373694D01*
X145526306Y-56289910D01*
X145444934Y-56242930D01*
X145986239Y-55701626D01*
X145878935Y-55623667D01*
X145710635Y-55537914D01*
X145530996Y-55479546D01*
X145344445Y-55450000D01*
X145155555Y-55450000D01*
X144969003Y-55479546D01*
X144789364Y-55537914D01*
X144621069Y-55623664D01*
X144513760Y-55701627D01*
X145055064Y-56242931D01*
X144973694Y-56289910D01*
X144889910Y-56373694D01*
X144842931Y-56455064D01*
X144301627Y-55913760D01*
X144223664Y-56021069D01*
X144137914Y-56189364D01*
X144079546Y-56369003D01*
X144050000Y-56555554D01*
X139560250Y-56555554D01*
X139700839Y-56312047D01*
X139809722Y-56049181D01*
X139883362Y-55774352D01*
X139920500Y-55492262D01*
X139920500Y-55207738D01*
X139883362Y-54925648D01*
X139870785Y-54878710D01*
X153149500Y-54878710D01*
X153149500Y-55121289D01*
X153181161Y-55361781D01*
X153181161Y-55361786D01*
X153243944Y-55596092D01*
X153243948Y-55596105D01*
X153336772Y-55820204D01*
X153336774Y-55820208D01*
X153336776Y-55820212D01*
X153452741Y-56021069D01*
X153458066Y-56030292D01*
X153605729Y-56222731D01*
X153605731Y-56222733D01*
X153605735Y-56222738D01*
X153777262Y-56394265D01*
X153777266Y-56394268D01*
X153777268Y-56394270D01*
X153834084Y-56437866D01*
X153969711Y-56541936D01*
X154179788Y-56663224D01*
X154403900Y-56756054D01*
X154638211Y-56818838D01*
X154878712Y-56850500D01*
X154878713Y-56850500D01*
X155121287Y-56850500D01*
X155121288Y-56850500D01*
X155361789Y-56818838D01*
X155596100Y-56756054D01*
X155820212Y-56663224D01*
X156030289Y-56541936D01*
X156222738Y-56394265D01*
X156394265Y-56222738D01*
X156541936Y-56030289D01*
X156663224Y-55820212D01*
X156756054Y-55596100D01*
X156818838Y-55361789D01*
X156850500Y-55121288D01*
X156850500Y-54878712D01*
X156818838Y-54638211D01*
X156756054Y-54403900D01*
X156663224Y-54179788D01*
X156541936Y-53969711D01*
X156394265Y-53777262D01*
X156222738Y-53605735D01*
X156222733Y-53605731D01*
X156222731Y-53605729D01*
X156030292Y-53458066D01*
X156030289Y-53458064D01*
X155820212Y-53336776D01*
X155820208Y-53336774D01*
X155820204Y-53336772D01*
X155596105Y-53243948D01*
X155596104Y-53243947D01*
X155596100Y-53243946D01*
X155361789Y-53181162D01*
X155361786Y-53181161D01*
X155361784Y-53181161D01*
X155121289Y-53149500D01*
X155121288Y-53149500D01*
X154878712Y-53149500D01*
X154878710Y-53149500D01*
X154638218Y-53181161D01*
X154638213Y-53181161D01*
X154403907Y-53243944D01*
X154403894Y-53243948D01*
X154179795Y-53336772D01*
X153969707Y-53458066D01*
X153777268Y-53605729D01*
X153605729Y-53777268D01*
X153458066Y-53969707D01*
X153336772Y-54179795D01*
X153243948Y-54403894D01*
X153243944Y-54403907D01*
X153181161Y-54638213D01*
X153181161Y-54638218D01*
X153149500Y-54878710D01*
X139870785Y-54878710D01*
X139809722Y-54650819D01*
X139741060Y-54485056D01*
X139700841Y-54387957D01*
X139700839Y-54387953D01*
X139558577Y-54141548D01*
X139385370Y-53915819D01*
X139184181Y-53714630D01*
X139142048Y-53682300D01*
X138958455Y-53541425D01*
X138712042Y-53399158D01*
X138449181Y-53290278D01*
X138174352Y-53216638D01*
X138174349Y-53216637D01*
X138174347Y-53216637D01*
X137892262Y-53179500D01*
X137607738Y-53179500D01*
X137607737Y-53179500D01*
X137325655Y-53216637D01*
X137325650Y-53216637D01*
X137050826Y-53290276D01*
X137050818Y-53290278D01*
X136787957Y-53399158D01*
X136541544Y-53541425D01*
X136315822Y-53714627D01*
X136114627Y-53915822D01*
X135941425Y-54141544D01*
X135799158Y-54387957D01*
X135690278Y-54650818D01*
X135690276Y-54650826D01*
X135616637Y-54925650D01*
X135616637Y-54925655D01*
X135579500Y-55207737D01*
X119084000Y-55207737D01*
X119084000Y-50399500D01*
X119102907Y-50341309D01*
X119152407Y-50305345D01*
X119183000Y-50300500D01*
X159600500Y-50300500D01*
X159658691Y-50319407D01*
G37*
%TD.AperFunction*%
%TD*%
%TA.AperFunction,Conductor*%
%TO.N,GND*%
G36*
X116757819Y-50319407D02*
G01*
X116793783Y-50368907D01*
X116798627Y-50399443D01*
X116801639Y-55819651D01*
X116824211Y-96450445D01*
X116805336Y-96508646D01*
X116755856Y-96544638D01*
X116725211Y-96549500D01*
X116593386Y-96549500D01*
X116422297Y-96576597D01*
X116422293Y-96576598D01*
X116257561Y-96630123D01*
X116257558Y-96630125D01*
X116103214Y-96708766D01*
X115963073Y-96810585D01*
X115840585Y-96933073D01*
X115738766Y-97073214D01*
X115660125Y-97227558D01*
X115660123Y-97227561D01*
X115606598Y-97392293D01*
X115606597Y-97392297D01*
X115579500Y-97563385D01*
X115579500Y-97736614D01*
X115606597Y-97907702D01*
X115606598Y-97907706D01*
X115660123Y-98072438D01*
X115660125Y-98072441D01*
X115660126Y-98072444D01*
X115660127Y-98072445D01*
X115738768Y-98226788D01*
X115840586Y-98366928D01*
X115963072Y-98489414D01*
X116103212Y-98591232D01*
X116257555Y-98669873D01*
X116257557Y-98669873D01*
X116257558Y-98669874D01*
X116257561Y-98669876D01*
X116422293Y-98723401D01*
X116422297Y-98723402D01*
X116593386Y-98750500D01*
X116726544Y-98750500D01*
X116784735Y-98769407D01*
X116820699Y-98818907D01*
X116825544Y-98849445D01*
X116848184Y-139600445D01*
X116829309Y-139658646D01*
X116779829Y-139694638D01*
X116749184Y-139699500D01*
X82399500Y-139699500D01*
X82341309Y-139680593D01*
X82305345Y-139631093D01*
X82300500Y-139600500D01*
X82300500Y-134878710D01*
X85149500Y-134878710D01*
X85149500Y-135121289D01*
X85181161Y-135361781D01*
X85181161Y-135361786D01*
X85181162Y-135361789D01*
X85235874Y-135565977D01*
X85243944Y-135596092D01*
X85243948Y-135596105D01*
X85336772Y-135820204D01*
X85336774Y-135820208D01*
X85336776Y-135820212D01*
X85458064Y-136030289D01*
X85458066Y-136030292D01*
X85605729Y-136222731D01*
X85605731Y-136222733D01*
X85605735Y-136222738D01*
X85777262Y-136394265D01*
X85777266Y-136394268D01*
X85777268Y-136394270D01*
X85969707Y-136541933D01*
X85969711Y-136541936D01*
X86179788Y-136663224D01*
X86403900Y-136756054D01*
X86638211Y-136818838D01*
X86878712Y-136850500D01*
X86878713Y-136850500D01*
X87121287Y-136850500D01*
X87121288Y-136850500D01*
X87361789Y-136818838D01*
X87596100Y-136756054D01*
X87820212Y-136663224D01*
X88030289Y-136541936D01*
X88222738Y-136394265D01*
X88394265Y-136222738D01*
X88541936Y-136030289D01*
X88663224Y-135820212D01*
X88756054Y-135596100D01*
X88818838Y-135361789D01*
X88850500Y-135121288D01*
X88850500Y-134878712D01*
X88818838Y-134638211D01*
X88756054Y-134403900D01*
X88663224Y-134179788D01*
X88541936Y-133969711D01*
X88514552Y-133934023D01*
X88498125Y-133912615D01*
X88454071Y-133855202D01*
X93500000Y-133855202D01*
X93500000Y-134599999D01*
X93500001Y-134600000D01*
X94172555Y-134600000D01*
X94150000Y-134684174D01*
X94150000Y-134815826D01*
X94172555Y-134900000D01*
X93500002Y-134900000D01*
X93500001Y-134900001D01*
X93500001Y-135644791D01*
X93502909Y-135669874D01*
X93548213Y-135772477D01*
X93627522Y-135851786D01*
X93730127Y-135897090D01*
X93755203Y-135899999D01*
X94499998Y-135899999D01*
X94500000Y-135899998D01*
X94500000Y-135227445D01*
X94584174Y-135250000D01*
X94715826Y-135250000D01*
X94800000Y-135227445D01*
X94800000Y-135899998D01*
X94800001Y-135899999D01*
X95544790Y-135899999D01*
X95544791Y-135899998D01*
X95569874Y-135897090D01*
X95672477Y-135851786D01*
X95751786Y-135772477D01*
X95797090Y-135669872D01*
X95799999Y-135644797D01*
X95800000Y-135644795D01*
X95800000Y-134900001D01*
X95799999Y-134900000D01*
X95127445Y-134900000D01*
X95150000Y-134815826D01*
X95150000Y-134684174D01*
X95127445Y-134600000D01*
X95799998Y-134600000D01*
X95799999Y-134599999D01*
X95799999Y-133855210D01*
X95799998Y-133855208D01*
X95797090Y-133830125D01*
X95751786Y-133727522D01*
X95672477Y-133648213D01*
X95569872Y-133602909D01*
X95544797Y-133600000D01*
X94800001Y-133600000D01*
X94800000Y-133600001D01*
X94800000Y-134272554D01*
X94715826Y-134250000D01*
X94584174Y-134250000D01*
X94500000Y-134272554D01*
X94500000Y-133600001D01*
X94499999Y-133600000D01*
X93755210Y-133600000D01*
X93755207Y-133600001D01*
X93730125Y-133602909D01*
X93627522Y-133648213D01*
X93548213Y-133727522D01*
X93502909Y-133830127D01*
X93500000Y-133855202D01*
X88454071Y-133855202D01*
X88394270Y-133777268D01*
X88394268Y-133777266D01*
X88394265Y-133777262D01*
X88222738Y-133605735D01*
X88222733Y-133605731D01*
X88222731Y-133605729D01*
X88030292Y-133458066D01*
X88030289Y-133458064D01*
X87820212Y-133336776D01*
X87820208Y-133336774D01*
X87820204Y-133336772D01*
X87596105Y-133243948D01*
X87596104Y-133243947D01*
X87596100Y-133243946D01*
X87361789Y-133181162D01*
X87361786Y-133181161D01*
X87361784Y-133181161D01*
X87121289Y-133149500D01*
X87121288Y-133149500D01*
X86878712Y-133149500D01*
X86878710Y-133149500D01*
X86638218Y-133181161D01*
X86638213Y-133181161D01*
X86403907Y-133243944D01*
X86403894Y-133243948D01*
X86179795Y-133336772D01*
X85969707Y-133458066D01*
X85777268Y-133605729D01*
X85605729Y-133777268D01*
X85458066Y-133969707D01*
X85336772Y-134179795D01*
X85243948Y-134403894D01*
X85243944Y-134403907D01*
X85181161Y-134638213D01*
X85181161Y-134638218D01*
X85149500Y-134878710D01*
X82300500Y-134878710D01*
X82300500Y-131899500D01*
X82319407Y-131841309D01*
X82368907Y-131805345D01*
X82399500Y-131800500D01*
X88539563Y-131800500D01*
X88539563Y-131800499D01*
X88615989Y-131780021D01*
X88684511Y-131740460D01*
X88740460Y-131684511D01*
X88780021Y-131615989D01*
X88800500Y-131539562D01*
X88800500Y-122255708D01*
X89043300Y-122255708D01*
X89043300Y-124871908D01*
X89043300Y-125003692D01*
X89054500Y-125045492D01*
X89077408Y-125130987D01*
X89080835Y-125136921D01*
X89094100Y-125186424D01*
X89094100Y-129647108D01*
X89094100Y-129778892D01*
X89100081Y-129801212D01*
X89128209Y-129906190D01*
X89194096Y-130020309D01*
X89194097Y-130020310D01*
X89194098Y-130020311D01*
X89194100Y-130020314D01*
X90667300Y-131493514D01*
X90667299Y-131493514D01*
X90760483Y-131586697D01*
X90760486Y-131586700D01*
X90811216Y-131615989D01*
X90874614Y-131652592D01*
X91001907Y-131686700D01*
X91001908Y-131686700D01*
X94832678Y-131686700D01*
X94890869Y-131705607D01*
X94902682Y-131715696D01*
X96660504Y-133473518D01*
X96688281Y-133528035D01*
X96689500Y-133543522D01*
X96689500Y-133768080D01*
X96670593Y-133826271D01*
X96645502Y-133850395D01*
X96520349Y-133934019D01*
X96374020Y-134080348D01*
X96259058Y-134252402D01*
X96179869Y-134443581D01*
X96139500Y-134646532D01*
X96139500Y-134853467D01*
X96179869Y-135056418D01*
X96259058Y-135247597D01*
X96259059Y-135247598D01*
X96374023Y-135419655D01*
X96520345Y-135565977D01*
X96692402Y-135680941D01*
X96883580Y-135760130D01*
X97086535Y-135800500D01*
X97086536Y-135800500D01*
X97293464Y-135800500D01*
X97293465Y-135800500D01*
X97496420Y-135760130D01*
X97687598Y-135680941D01*
X97859655Y-135565977D01*
X98005977Y-135419655D01*
X98120941Y-135247598D01*
X98200130Y-135056420D01*
X98240500Y-134853465D01*
X98240500Y-134646535D01*
X98200130Y-134443580D01*
X98120941Y-134252402D01*
X98005977Y-134080345D01*
X97859655Y-133934023D01*
X97859651Y-133934020D01*
X97859650Y-133934019D01*
X97734498Y-133850395D01*
X97696619Y-133802345D01*
X97690500Y-133768080D01*
X97690500Y-133229308D01*
X97688024Y-133220069D01*
X97688023Y-133220065D01*
X97677599Y-133181161D01*
X97656392Y-133102014D01*
X97623351Y-133044786D01*
X97590500Y-132987886D01*
X97590499Y-132987884D01*
X97497314Y-132894699D01*
X97497314Y-132894700D01*
X95388314Y-130785700D01*
X95388311Y-130785698D01*
X95388310Y-130785697D01*
X95388309Y-130785696D01*
X95274189Y-130719809D01*
X95274191Y-130719809D01*
X95224799Y-130706575D01*
X95146892Y-130685700D01*
X95146890Y-130685700D01*
X91316122Y-130685700D01*
X91257931Y-130666793D01*
X91246118Y-130656704D01*
X90124096Y-129534682D01*
X90096319Y-129480165D01*
X90095100Y-129464678D01*
X90095100Y-127347489D01*
X91250000Y-127347489D01*
X91250000Y-127528510D01*
X91278316Y-127707289D01*
X91334250Y-127879440D01*
X91416430Y-128040728D01*
X91487424Y-128138442D01*
X91956328Y-127669536D01*
X91999901Y-127745007D01*
X92092993Y-127838099D01*
X92168460Y-127881670D01*
X91699556Y-128350574D01*
X91699556Y-128350575D01*
X91797263Y-128421564D01*
X91797269Y-128421568D01*
X91958559Y-128503749D01*
X92130710Y-128559683D01*
X92309490Y-128588000D01*
X92490510Y-128588000D01*
X92669289Y-128559683D01*
X92841440Y-128503749D01*
X93002730Y-128421568D01*
X93002735Y-128421564D01*
X93100442Y-128350575D01*
X93100442Y-128350574D01*
X92631538Y-127881670D01*
X92707007Y-127838099D01*
X92800099Y-127745007D01*
X92843670Y-127669538D01*
X93312574Y-128138442D01*
X93312575Y-128138442D01*
X93383564Y-128040735D01*
X93383568Y-128040730D01*
X93465749Y-127879440D01*
X93521683Y-127707289D01*
X93550000Y-127528510D01*
X93550000Y-127347489D01*
X93521683Y-127168710D01*
X93465749Y-126996559D01*
X93383568Y-126835269D01*
X93383564Y-126835263D01*
X93312575Y-126737556D01*
X93312574Y-126737556D01*
X92843670Y-127206460D01*
X92800099Y-127130993D01*
X92707007Y-127037901D01*
X92631536Y-126994328D01*
X93100442Y-126525424D01*
X93002728Y-126454430D01*
X92841440Y-126372250D01*
X92669289Y-126316316D01*
X92490510Y-126288000D01*
X92309490Y-126288000D01*
X92130710Y-126316316D01*
X91958559Y-126372250D01*
X91797269Y-126454431D01*
X91797265Y-126454433D01*
X91699556Y-126525423D01*
X92168461Y-126994328D01*
X92092993Y-127037901D01*
X91999901Y-127130993D01*
X91956328Y-127206461D01*
X91487423Y-126737556D01*
X91416433Y-126835265D01*
X91416431Y-126835269D01*
X91334250Y-126996559D01*
X91278316Y-127168710D01*
X91250000Y-127347489D01*
X90095100Y-127347489D01*
X90095100Y-124922709D01*
X90077999Y-124858886D01*
X90060992Y-124795414D01*
X90060990Y-124795410D01*
X90057562Y-124789472D01*
X90044300Y-124739975D01*
X90044300Y-124028253D01*
X91349500Y-124028253D01*
X91349500Y-125767746D01*
X91349501Y-125767758D01*
X91361132Y-125826227D01*
X91361134Y-125826233D01*
X91405445Y-125892548D01*
X91405448Y-125892552D01*
X91471769Y-125936867D01*
X91516231Y-125945711D01*
X91530241Y-125948498D01*
X91530246Y-125948498D01*
X91530252Y-125948500D01*
X91530253Y-125948500D01*
X93269747Y-125948500D01*
X93269748Y-125948500D01*
X93328231Y-125936867D01*
X93394552Y-125892552D01*
X93438867Y-125826231D01*
X93450500Y-125767748D01*
X93450500Y-124028252D01*
X93438867Y-123969769D01*
X93394552Y-123903448D01*
X93384561Y-123896772D01*
X93328233Y-123859134D01*
X93328231Y-123859133D01*
X93328228Y-123859132D01*
X93328227Y-123859132D01*
X93269758Y-123847501D01*
X93269748Y-123847500D01*
X91530252Y-123847500D01*
X91530251Y-123847500D01*
X91530241Y-123847501D01*
X91471772Y-123859132D01*
X91471766Y-123859134D01*
X91405451Y-123903445D01*
X91405445Y-123903451D01*
X91361134Y-123969766D01*
X91361132Y-123969772D01*
X91349501Y-124028241D01*
X91349500Y-124028253D01*
X90044300Y-124028253D01*
X90044300Y-122569921D01*
X90063207Y-122511730D01*
X90073290Y-122499923D01*
X91849300Y-120723914D01*
X91915192Y-120609786D01*
X91949300Y-120482492D01*
X91949300Y-120350707D01*
X91949300Y-114980030D01*
X91958399Y-114952023D01*
X91966816Y-114923804D01*
X91967817Y-114923038D01*
X91968207Y-114921839D01*
X91992044Y-114904519D01*
X92015427Y-114886647D01*
X92016686Y-114886616D01*
X92017707Y-114885875D01*
X92047161Y-114885875D01*
X92076594Y-114885159D01*
X92077500Y-114885875D01*
X92078893Y-114885875D01*
X92126954Y-114919909D01*
X92130837Y-114924989D01*
X92149500Y-114957314D01*
X92175157Y-114982971D01*
X92179154Y-114988200D01*
X92187233Y-115011151D01*
X92198281Y-115032834D01*
X92199264Y-115045326D01*
X92199471Y-115045914D01*
X92199344Y-115046339D01*
X92199500Y-115048321D01*
X92199500Y-120192343D01*
X92218168Y-120262013D01*
X92218168Y-120262015D01*
X92223383Y-120281482D01*
X92223384Y-120281484D01*
X92223385Y-120281487D01*
X92223386Y-120281488D01*
X92269530Y-120361412D01*
X93731477Y-121823358D01*
X94574504Y-122666385D01*
X94602281Y-122720902D01*
X94603500Y-122736389D01*
X94603500Y-128641543D01*
X94623918Y-128717744D01*
X94623917Y-128717744D01*
X94623918Y-128717746D01*
X94627383Y-128730680D01*
X94627384Y-128730683D01*
X94627386Y-128730688D01*
X94673530Y-128810612D01*
X99350505Y-133487587D01*
X99354130Y-133494702D01*
X99360593Y-133499398D01*
X99367756Y-133521446D01*
X99378281Y-133542102D01*
X99379500Y-133557589D01*
X99379500Y-133691978D01*
X99360593Y-133750169D01*
X99318387Y-133783442D01*
X99232401Y-133819059D01*
X99060348Y-133934020D01*
X98914020Y-134080348D01*
X98799058Y-134252402D01*
X98719869Y-134443581D01*
X98679500Y-134646532D01*
X98679500Y-134853467D01*
X98719869Y-135056418D01*
X98799058Y-135247597D01*
X98799059Y-135247598D01*
X98914023Y-135419655D01*
X99060345Y-135565977D01*
X99232402Y-135680941D01*
X99423580Y-135760130D01*
X99626535Y-135800500D01*
X99626536Y-135800500D01*
X99833464Y-135800500D01*
X99833465Y-135800500D01*
X100036420Y-135760130D01*
X100227598Y-135680941D01*
X100399655Y-135565977D01*
X100545977Y-135419655D01*
X100660941Y-135247598D01*
X100740130Y-135056420D01*
X100780500Y-134853465D01*
X100780500Y-134646535D01*
X100740130Y-134443580D01*
X100660941Y-134252402D01*
X100545977Y-134080345D01*
X100399655Y-133934023D01*
X100399649Y-133934019D01*
X100227598Y-133819059D01*
X100141613Y-133783442D01*
X100095088Y-133743704D01*
X100080500Y-133691978D01*
X100080500Y-133325257D01*
X100080500Y-133325256D01*
X100056614Y-133236112D01*
X100052685Y-133229307D01*
X100052683Y-133229303D01*
X100052683Y-133229302D01*
X100010471Y-133156190D01*
X100010470Y-133156188D01*
X95333496Y-128479214D01*
X95329869Y-128472096D01*
X95323407Y-128467401D01*
X95316243Y-128445352D01*
X95305719Y-128424697D01*
X95304500Y-128409210D01*
X95304500Y-122504057D01*
X95303391Y-122499917D01*
X95280614Y-122414912D01*
X95234469Y-122334988D01*
X95217167Y-122317686D01*
X95169212Y-122269730D01*
X95169212Y-122269731D01*
X92929496Y-120030014D01*
X92901719Y-119975497D01*
X92900500Y-119960010D01*
X92900500Y-115048321D01*
X92919407Y-114990130D01*
X92929490Y-114978323D01*
X92950500Y-114957314D01*
X92991318Y-114886616D01*
X93016390Y-114843190D01*
X93016390Y-114843188D01*
X93016392Y-114843186D01*
X93050500Y-114715892D01*
X93050500Y-114584108D01*
X93016392Y-114456814D01*
X93016390Y-114456811D01*
X93016390Y-114456809D01*
X92950503Y-114342690D01*
X92950501Y-114342688D01*
X92950500Y-114342686D01*
X92857314Y-114249500D01*
X92857311Y-114249498D01*
X92857309Y-114249496D01*
X92743189Y-114183609D01*
X92743191Y-114183609D01*
X92693799Y-114170375D01*
X92615892Y-114149500D01*
X92484108Y-114149500D01*
X92406200Y-114170375D01*
X92356809Y-114183609D01*
X92242690Y-114249496D01*
X92149496Y-114342690D01*
X92134036Y-114369469D01*
X92088567Y-114410410D01*
X92027716Y-114416806D01*
X91974728Y-114386213D01*
X91949842Y-114330317D01*
X91949300Y-114319969D01*
X91949300Y-99734108D01*
X93299500Y-99734108D01*
X93299500Y-99865892D01*
X93329579Y-99978151D01*
X93333609Y-99993190D01*
X93399496Y-100107309D01*
X93399498Y-100107311D01*
X93399500Y-100107314D01*
X93420505Y-100128319D01*
X93448281Y-100182834D01*
X93449500Y-100198321D01*
X93449500Y-113644544D01*
X93473386Y-113733688D01*
X93519530Y-113813612D01*
X98740105Y-119034187D01*
X98767881Y-119088702D01*
X98769100Y-119104189D01*
X98769100Y-123913147D01*
X98750193Y-123971338D01*
X98700693Y-124007302D01*
X98639507Y-124007302D01*
X98590007Y-123971338D01*
X98587785Y-123968149D01*
X98544554Y-123903451D01*
X98544552Y-123903448D01*
X98534561Y-123896772D01*
X98478233Y-123859134D01*
X98478231Y-123859133D01*
X98478228Y-123859132D01*
X98478227Y-123859132D01*
X98419758Y-123847501D01*
X98419748Y-123847500D01*
X96680252Y-123847500D01*
X96680251Y-123847500D01*
X96680241Y-123847501D01*
X96621772Y-123859132D01*
X96621766Y-123859134D01*
X96555451Y-123903445D01*
X96555445Y-123903451D01*
X96511134Y-123969766D01*
X96511132Y-123969772D01*
X96499501Y-124028241D01*
X96499500Y-124028253D01*
X96499500Y-125767746D01*
X96499501Y-125767758D01*
X96511132Y-125826227D01*
X96511134Y-125826233D01*
X96555445Y-125892548D01*
X96555448Y-125892552D01*
X96621769Y-125936867D01*
X96666231Y-125945711D01*
X96680241Y-125948498D01*
X96680246Y-125948498D01*
X96680252Y-125948500D01*
X96680253Y-125948500D01*
X98419747Y-125948500D01*
X98419748Y-125948500D01*
X98478231Y-125936867D01*
X98544552Y-125892552D01*
X98587785Y-125827849D01*
X98635835Y-125789971D01*
X98696973Y-125787569D01*
X98747847Y-125821562D01*
X98769024Y-125878966D01*
X98769100Y-125882852D01*
X98769100Y-126885161D01*
X98750193Y-126943352D01*
X98700693Y-126979316D01*
X98639507Y-126979316D01*
X98590007Y-126943352D01*
X98581890Y-126930106D01*
X98533568Y-126835269D01*
X98533564Y-126835263D01*
X98462575Y-126737556D01*
X98462574Y-126737556D01*
X97993670Y-127206460D01*
X97950099Y-127130993D01*
X97857007Y-127037901D01*
X97781536Y-126994328D01*
X98250442Y-126525424D01*
X98152728Y-126454430D01*
X97991440Y-126372250D01*
X97819289Y-126316316D01*
X97640510Y-126288000D01*
X97459490Y-126288000D01*
X97280710Y-126316316D01*
X97108559Y-126372250D01*
X96947269Y-126454431D01*
X96947265Y-126454433D01*
X96849556Y-126525423D01*
X97318461Y-126994328D01*
X97242993Y-127037901D01*
X97149901Y-127130993D01*
X97106328Y-127206461D01*
X96637423Y-126737556D01*
X96566433Y-126835265D01*
X96566431Y-126835269D01*
X96484250Y-126996559D01*
X96428316Y-127168710D01*
X96400000Y-127347489D01*
X96400000Y-127528510D01*
X96428316Y-127707289D01*
X96484250Y-127879440D01*
X96566430Y-128040728D01*
X96637424Y-128138442D01*
X97106328Y-127669536D01*
X97149901Y-127745007D01*
X97242993Y-127838099D01*
X97318460Y-127881670D01*
X96849556Y-128350574D01*
X96849556Y-128350575D01*
X96947263Y-128421564D01*
X96947269Y-128421568D01*
X97108559Y-128503749D01*
X97280710Y-128559683D01*
X97459490Y-128588000D01*
X97640510Y-128588000D01*
X97819289Y-128559683D01*
X97991440Y-128503749D01*
X98152730Y-128421568D01*
X98152735Y-128421564D01*
X98250442Y-128350575D01*
X98250442Y-128350574D01*
X97781538Y-127881670D01*
X97857007Y-127838099D01*
X97950099Y-127745007D01*
X97993670Y-127669538D01*
X98462574Y-128138442D01*
X98462575Y-128138442D01*
X98533564Y-128040735D01*
X98533568Y-128040730D01*
X98581890Y-127945893D01*
X98625155Y-127902628D01*
X98685587Y-127893057D01*
X98740103Y-127920834D01*
X98767881Y-127975351D01*
X98769100Y-127990838D01*
X98769100Y-129632144D01*
X98773110Y-129647108D01*
X98792986Y-129721288D01*
X98839130Y-129801212D01*
X100421930Y-131384011D01*
X101890504Y-132852585D01*
X101918281Y-132907102D01*
X101919500Y-132922589D01*
X101919500Y-133691978D01*
X101900593Y-133750169D01*
X101858387Y-133783442D01*
X101772401Y-133819059D01*
X101600348Y-133934020D01*
X101454020Y-134080348D01*
X101339058Y-134252402D01*
X101259869Y-134443581D01*
X101219500Y-134646532D01*
X101219500Y-134853467D01*
X101259869Y-135056418D01*
X101339058Y-135247597D01*
X101339059Y-135247598D01*
X101454023Y-135419655D01*
X101600345Y-135565977D01*
X101772402Y-135680941D01*
X101963580Y-135760130D01*
X102166535Y-135800500D01*
X102166536Y-135800500D01*
X102373464Y-135800500D01*
X102373465Y-135800500D01*
X102576420Y-135760130D01*
X102767598Y-135680941D01*
X102939655Y-135565977D01*
X103085977Y-135419655D01*
X103200941Y-135247598D01*
X103280130Y-135056420D01*
X103320500Y-134853465D01*
X103320500Y-134646535D01*
X103280130Y-134443580D01*
X103200941Y-134252402D01*
X103085977Y-134080345D01*
X102939655Y-133934023D01*
X102939649Y-133934019D01*
X102767598Y-133819059D01*
X102681613Y-133783442D01*
X102635088Y-133743704D01*
X102620500Y-133691978D01*
X102620500Y-132690257D01*
X102620500Y-132690256D01*
X102596614Y-132601112D01*
X102550469Y-132521188D01*
X102550468Y-132521187D01*
X102485212Y-132455930D01*
X102485212Y-132455931D01*
X99499096Y-129469814D01*
X99471319Y-129415297D01*
X99470100Y-129399810D01*
X99470100Y-118871857D01*
X99470100Y-118871856D01*
X99446214Y-118782712D01*
X99446212Y-118782709D01*
X99446212Y-118782707D01*
X99400072Y-118702791D01*
X99400071Y-118702790D01*
X99400070Y-118702789D01*
X99400069Y-118702787D01*
X94179496Y-113482214D01*
X94151719Y-113427697D01*
X94150500Y-113412210D01*
X94150500Y-100198321D01*
X94169407Y-100140130D01*
X94179490Y-100128323D01*
X94200500Y-100107314D01*
X94266392Y-99993186D01*
X94300500Y-99865892D01*
X94300500Y-99734108D01*
X94599500Y-99734108D01*
X94599500Y-99865892D01*
X94629579Y-99978151D01*
X94633609Y-99993190D01*
X94699496Y-100107309D01*
X94699498Y-100107311D01*
X94699500Y-100107314D01*
X94720505Y-100128319D01*
X94748281Y-100182834D01*
X94749500Y-100198321D01*
X94749500Y-112048944D01*
X94773386Y-112138088D01*
X94819530Y-112218012D01*
X100162505Y-117560987D01*
X100190281Y-117615502D01*
X100191500Y-117630989D01*
X100191500Y-128717744D01*
X100215386Y-128806888D01*
X100261530Y-128886812D01*
X104430505Y-133055787D01*
X104458281Y-133110302D01*
X104459500Y-133125789D01*
X104459500Y-133691978D01*
X104440593Y-133750169D01*
X104398387Y-133783442D01*
X104312401Y-133819059D01*
X104140348Y-133934020D01*
X103994020Y-134080348D01*
X103879058Y-134252402D01*
X103799869Y-134443581D01*
X103759500Y-134646532D01*
X103759500Y-134853467D01*
X103799869Y-135056418D01*
X103879058Y-135247597D01*
X103879059Y-135247598D01*
X103994023Y-135419655D01*
X104140345Y-135565977D01*
X104312402Y-135680941D01*
X104503580Y-135760130D01*
X104706535Y-135800500D01*
X104706536Y-135800500D01*
X104913464Y-135800500D01*
X104913465Y-135800500D01*
X105116420Y-135760130D01*
X105307598Y-135680941D01*
X105479655Y-135565977D01*
X105625977Y-135419655D01*
X105740941Y-135247598D01*
X105820130Y-135056420D01*
X105860500Y-134853465D01*
X105860500Y-134646535D01*
X105820130Y-134443580D01*
X105740941Y-134252402D01*
X105625977Y-134080345D01*
X105479655Y-133934023D01*
X105479649Y-133934019D01*
X105307598Y-133819059D01*
X105221613Y-133783442D01*
X105175088Y-133743704D01*
X105160500Y-133691978D01*
X105160500Y-132893457D01*
X105157318Y-132881581D01*
X105136614Y-132804312D01*
X105131064Y-132794700D01*
X105131063Y-132794697D01*
X105090470Y-132724389D01*
X105090469Y-132724387D01*
X100921496Y-128555414D01*
X100917869Y-128548296D01*
X100911407Y-128543601D01*
X100904243Y-128521552D01*
X100893719Y-128500897D01*
X100892500Y-128485410D01*
X100892500Y-127347489D01*
X101550000Y-127347489D01*
X101550000Y-127528510D01*
X101578316Y-127707289D01*
X101634250Y-127879440D01*
X101716430Y-128040728D01*
X101787424Y-128138442D01*
X102256328Y-127669536D01*
X102299901Y-127745007D01*
X102392993Y-127838099D01*
X102468460Y-127881670D01*
X101999556Y-128350574D01*
X101999556Y-128350575D01*
X102097263Y-128421564D01*
X102097269Y-128421568D01*
X102258559Y-128503749D01*
X102430710Y-128559683D01*
X102609490Y-128588000D01*
X102790510Y-128588000D01*
X102969289Y-128559683D01*
X103141440Y-128503749D01*
X103302730Y-128421568D01*
X103302735Y-128421564D01*
X103400442Y-128350575D01*
X103400442Y-128350574D01*
X102931538Y-127881670D01*
X103007007Y-127838099D01*
X103100099Y-127745007D01*
X103143670Y-127669538D01*
X103612574Y-128138442D01*
X103612575Y-128138442D01*
X103683564Y-128040735D01*
X103683568Y-128040730D01*
X103765749Y-127879440D01*
X103821683Y-127707289D01*
X103850000Y-127528510D01*
X103850000Y-127347489D01*
X103821683Y-127168710D01*
X103765749Y-126996559D01*
X103683568Y-126835269D01*
X103683564Y-126835263D01*
X103612575Y-126737556D01*
X103612574Y-126737556D01*
X103143670Y-127206460D01*
X103100099Y-127130993D01*
X103007007Y-127037901D01*
X102931536Y-126994328D01*
X103400442Y-126525424D01*
X103302728Y-126454430D01*
X103141440Y-126372250D01*
X102969289Y-126316316D01*
X102790510Y-126288000D01*
X102609490Y-126288000D01*
X102430710Y-126316316D01*
X102258559Y-126372250D01*
X102097269Y-126454431D01*
X102097265Y-126454433D01*
X101999556Y-126525423D01*
X102468461Y-126994328D01*
X102392993Y-127037901D01*
X102299901Y-127130993D01*
X102256328Y-127206461D01*
X101787423Y-126737556D01*
X101716433Y-126835265D01*
X101716431Y-126835269D01*
X101634250Y-126996559D01*
X101578316Y-127168710D01*
X101550000Y-127347489D01*
X100892500Y-127347489D01*
X100892500Y-124028253D01*
X101649500Y-124028253D01*
X101649500Y-125767746D01*
X101649501Y-125767758D01*
X101661132Y-125826227D01*
X101661134Y-125826233D01*
X101705445Y-125892548D01*
X101705448Y-125892552D01*
X101771769Y-125936867D01*
X101816231Y-125945711D01*
X101830241Y-125948498D01*
X101830246Y-125948498D01*
X101830252Y-125948500D01*
X101830253Y-125948500D01*
X103569747Y-125948500D01*
X103569748Y-125948500D01*
X103628231Y-125936867D01*
X103694552Y-125892552D01*
X103738867Y-125826231D01*
X103750500Y-125767748D01*
X103750500Y-124028252D01*
X103738867Y-123969769D01*
X103694552Y-123903448D01*
X103684561Y-123896772D01*
X103628233Y-123859134D01*
X103628231Y-123859133D01*
X103628228Y-123859132D01*
X103628227Y-123859132D01*
X103569758Y-123847501D01*
X103569748Y-123847500D01*
X101830252Y-123847500D01*
X101830251Y-123847500D01*
X101830241Y-123847501D01*
X101771772Y-123859132D01*
X101771766Y-123859134D01*
X101705451Y-123903445D01*
X101705445Y-123903451D01*
X101661134Y-123969766D01*
X101661132Y-123969772D01*
X101649501Y-124028241D01*
X101649500Y-124028253D01*
X100892500Y-124028253D01*
X100892500Y-117398657D01*
X100892500Y-117398656D01*
X100868614Y-117309512D01*
X100822470Y-117229588D01*
X95479496Y-111886614D01*
X95451719Y-111832097D01*
X95450500Y-111816610D01*
X95450500Y-101334656D01*
X101918700Y-101334656D01*
X101918700Y-120919944D01*
X101942586Y-121009088D01*
X101988730Y-121089012D01*
X104429705Y-123529987D01*
X104457481Y-123584502D01*
X104458700Y-123599989D01*
X104458700Y-130267144D01*
X104482586Y-130356288D01*
X104528730Y-130436212D01*
X106970505Y-132877987D01*
X106998281Y-132932502D01*
X106999500Y-132947989D01*
X106999500Y-133691978D01*
X106980593Y-133750169D01*
X106938387Y-133783442D01*
X106852401Y-133819059D01*
X106680348Y-133934020D01*
X106534020Y-134080348D01*
X106419058Y-134252402D01*
X106339869Y-134443581D01*
X106299500Y-134646532D01*
X106299500Y-134853467D01*
X106339869Y-135056418D01*
X106419058Y-135247597D01*
X106419059Y-135247598D01*
X106534023Y-135419655D01*
X106680345Y-135565977D01*
X106852402Y-135680941D01*
X107043580Y-135760130D01*
X107246535Y-135800500D01*
X107246536Y-135800500D01*
X107453464Y-135800500D01*
X107453465Y-135800500D01*
X107656420Y-135760130D01*
X107847598Y-135680941D01*
X108019655Y-135565977D01*
X108165977Y-135419655D01*
X108280941Y-135247598D01*
X108360130Y-135056420D01*
X108400500Y-134853465D01*
X108400500Y-134646535D01*
X108360130Y-134443580D01*
X108280941Y-134252402D01*
X108165977Y-134080345D01*
X108019655Y-133934023D01*
X108019649Y-133934019D01*
X107847598Y-133819059D01*
X107761613Y-133783442D01*
X107715088Y-133743704D01*
X107700500Y-133691978D01*
X107700500Y-132715657D01*
X107693694Y-132690256D01*
X107676614Y-132626512D01*
X107655014Y-132589100D01*
X107655013Y-132589098D01*
X107655013Y-132589097D01*
X107641291Y-132565332D01*
X107630470Y-132546588D01*
X105188696Y-130104814D01*
X105160919Y-130050297D01*
X105159700Y-130034810D01*
X105159700Y-127274489D01*
X106750000Y-127274489D01*
X106750000Y-127455510D01*
X106778316Y-127634289D01*
X106834250Y-127806440D01*
X106916430Y-127967728D01*
X106987424Y-128065442D01*
X107456328Y-127596536D01*
X107499901Y-127672007D01*
X107592993Y-127765099D01*
X107668460Y-127808670D01*
X107199556Y-128277574D01*
X107199556Y-128277575D01*
X107297263Y-128348564D01*
X107297269Y-128348568D01*
X107458559Y-128430749D01*
X107630710Y-128486683D01*
X107809490Y-128515000D01*
X107990510Y-128515000D01*
X108169289Y-128486683D01*
X108341440Y-128430749D01*
X108502730Y-128348568D01*
X108502735Y-128348564D01*
X108600442Y-128277575D01*
X108600442Y-128277574D01*
X108131538Y-127808670D01*
X108207007Y-127765099D01*
X108300099Y-127672007D01*
X108343670Y-127596538D01*
X108812574Y-128065442D01*
X108812575Y-128065442D01*
X108883564Y-127967735D01*
X108883568Y-127967730D01*
X108965749Y-127806440D01*
X109021683Y-127634289D01*
X109050000Y-127455510D01*
X109050000Y-127274489D01*
X109021683Y-127095710D01*
X108965749Y-126923559D01*
X108883568Y-126762269D01*
X108883564Y-126762263D01*
X108812575Y-126664556D01*
X108812574Y-126664556D01*
X108343670Y-127133460D01*
X108300099Y-127057993D01*
X108207007Y-126964901D01*
X108131536Y-126921328D01*
X108600442Y-126452424D01*
X108502728Y-126381430D01*
X108341440Y-126299250D01*
X108169289Y-126243316D01*
X107990510Y-126215000D01*
X107809490Y-126215000D01*
X107630710Y-126243316D01*
X107458559Y-126299250D01*
X107297269Y-126381431D01*
X107297265Y-126381433D01*
X107199556Y-126452423D01*
X107668461Y-126921328D01*
X107592993Y-126964901D01*
X107499901Y-127057993D01*
X107456328Y-127133461D01*
X106987423Y-126664556D01*
X106916433Y-126762265D01*
X106916431Y-126762269D01*
X106834250Y-126923559D01*
X106778316Y-127095710D01*
X106750000Y-127274489D01*
X105159700Y-127274489D01*
X105159700Y-123955253D01*
X106849500Y-123955253D01*
X106849500Y-125694746D01*
X106849501Y-125694758D01*
X106861132Y-125753227D01*
X106861134Y-125753233D01*
X106879764Y-125781114D01*
X106905448Y-125819552D01*
X106971769Y-125863867D01*
X107016231Y-125872711D01*
X107030241Y-125875498D01*
X107030246Y-125875498D01*
X107030252Y-125875500D01*
X107030253Y-125875500D01*
X108769747Y-125875500D01*
X108769748Y-125875500D01*
X108828231Y-125863867D01*
X108894552Y-125819552D01*
X108938867Y-125753231D01*
X108950500Y-125694748D01*
X108950500Y-123955252D01*
X108938867Y-123896769D01*
X108894552Y-123830448D01*
X108894548Y-123830445D01*
X108828233Y-123786134D01*
X108828231Y-123786133D01*
X108828228Y-123786132D01*
X108828227Y-123786132D01*
X108769758Y-123774501D01*
X108769748Y-123774500D01*
X107030252Y-123774500D01*
X107030251Y-123774500D01*
X107030241Y-123774501D01*
X106971772Y-123786132D01*
X106971766Y-123786134D01*
X106905451Y-123830445D01*
X106905445Y-123830451D01*
X106861134Y-123896766D01*
X106861132Y-123896772D01*
X106849501Y-123955241D01*
X106849500Y-123955253D01*
X105159700Y-123955253D01*
X105159700Y-123367657D01*
X105156494Y-123355691D01*
X105135814Y-123278512D01*
X105125364Y-123260413D01*
X105118204Y-123248012D01*
X105110277Y-123234283D01*
X105089669Y-123198587D01*
X102648696Y-120757614D01*
X102620919Y-120703097D01*
X102619700Y-120687610D01*
X102619700Y-106540691D01*
X106049500Y-106540691D01*
X106049500Y-106659309D01*
X106076574Y-106760351D01*
X106080202Y-106773890D01*
X106139507Y-106876608D01*
X106139509Y-106876610D01*
X106139511Y-106876613D01*
X106223387Y-106960489D01*
X106223389Y-106960490D01*
X106223391Y-106960492D01*
X106326110Y-107019797D01*
X106326111Y-107019797D01*
X106326114Y-107019799D01*
X106440691Y-107050500D01*
X106440693Y-107050500D01*
X106559307Y-107050500D01*
X106559309Y-107050500D01*
X106673886Y-107019799D01*
X106673888Y-107019797D01*
X106673890Y-107019797D01*
X106770942Y-106963764D01*
X106820442Y-106950500D01*
X108205410Y-106950500D01*
X108263601Y-106969407D01*
X108275414Y-106979496D01*
X111617904Y-110321985D01*
X111645681Y-110376502D01*
X111646900Y-110391989D01*
X111646900Y-110820502D01*
X111627993Y-110878693D01*
X111578493Y-110914657D01*
X111517307Y-110914657D01*
X111467807Y-110878693D01*
X111452273Y-110846125D01*
X111435014Y-110781712D01*
X111388869Y-110701788D01*
X111388868Y-110701787D01*
X111323612Y-110636530D01*
X111323612Y-110636531D01*
X108306612Y-107619530D01*
X108226688Y-107573386D01*
X108137544Y-107549500D01*
X108137542Y-107549500D01*
X106820442Y-107549500D01*
X106770942Y-107536236D01*
X106673889Y-107480202D01*
X106673890Y-107480202D01*
X106660351Y-107476574D01*
X106559309Y-107449500D01*
X106440691Y-107449500D01*
X106370567Y-107468289D01*
X106326109Y-107480202D01*
X106223391Y-107539507D01*
X106139507Y-107623391D01*
X106080202Y-107726109D01*
X106080201Y-107726114D01*
X106049500Y-107840691D01*
X106049500Y-107959309D01*
X106076574Y-108060351D01*
X106080202Y-108073890D01*
X106139507Y-108176608D01*
X106139509Y-108176610D01*
X106139511Y-108176613D01*
X106223387Y-108260489D01*
X106223389Y-108260490D01*
X106223391Y-108260492D01*
X106326110Y-108319797D01*
X106326111Y-108319797D01*
X106326114Y-108319799D01*
X106440691Y-108350500D01*
X106440693Y-108350500D01*
X106559307Y-108350500D01*
X106559309Y-108350500D01*
X106673886Y-108319799D01*
X106673888Y-108319797D01*
X106673890Y-108319797D01*
X106770942Y-108263764D01*
X106820442Y-108250500D01*
X107905210Y-108250500D01*
X107963401Y-108269407D01*
X107975214Y-108279496D01*
X110728904Y-111033185D01*
X110756681Y-111087702D01*
X110757900Y-111103189D01*
X110757900Y-111434654D01*
X110738993Y-111492845D01*
X110689493Y-111528809D01*
X110628307Y-111528809D01*
X110580426Y-111494021D01*
X110580019Y-111494334D01*
X110578964Y-111492959D01*
X110578807Y-111492845D01*
X110578423Y-111492254D01*
X110576075Y-111489194D01*
X110576071Y-111489190D01*
X110576070Y-111489188D01*
X107956412Y-108869530D01*
X107876488Y-108823386D01*
X107787344Y-108799500D01*
X107787342Y-108799500D01*
X106820442Y-108799500D01*
X106770942Y-108786236D01*
X106673889Y-108730202D01*
X106673890Y-108730202D01*
X106660351Y-108726574D01*
X106559309Y-108699500D01*
X106440691Y-108699500D01*
X106370567Y-108718289D01*
X106326109Y-108730202D01*
X106223391Y-108789507D01*
X106139507Y-108873391D01*
X106080202Y-108976109D01*
X106080201Y-108976114D01*
X106049500Y-109090691D01*
X106049500Y-109209309D01*
X106076574Y-109310351D01*
X106080202Y-109323890D01*
X106139507Y-109426608D01*
X106139509Y-109426610D01*
X106139511Y-109426613D01*
X106223387Y-109510489D01*
X106223389Y-109510490D01*
X106223391Y-109510492D01*
X106326110Y-109569797D01*
X106326111Y-109569797D01*
X106326114Y-109569799D01*
X106440691Y-109600500D01*
X106440693Y-109600500D01*
X106559307Y-109600500D01*
X106559309Y-109600500D01*
X106673886Y-109569799D01*
X106673888Y-109569797D01*
X106673890Y-109569797D01*
X106770942Y-109513764D01*
X106820442Y-109500500D01*
X107555010Y-109500500D01*
X107613201Y-109519407D01*
X107625014Y-109529496D01*
X109916104Y-111820586D01*
X109943881Y-111875103D01*
X109945100Y-111890590D01*
X109945100Y-113181647D01*
X109926193Y-113239838D01*
X109876693Y-113275802D01*
X109815507Y-113275802D01*
X109766007Y-113239838D01*
X109760364Y-113231147D01*
X109737873Y-113192192D01*
X109737872Y-113192191D01*
X109737871Y-113192190D01*
X109737870Y-113192188D01*
X106974427Y-110428745D01*
X106948805Y-110384366D01*
X106919799Y-110276114D01*
X106919797Y-110276111D01*
X106919797Y-110276109D01*
X106860492Y-110173391D01*
X106860490Y-110173389D01*
X106860489Y-110173387D01*
X106776613Y-110089511D01*
X106776610Y-110089509D01*
X106776608Y-110089507D01*
X106673889Y-110030202D01*
X106673890Y-110030202D01*
X106660351Y-110026574D01*
X106559309Y-109999500D01*
X106440691Y-109999500D01*
X106370567Y-110018289D01*
X106326109Y-110030202D01*
X106223391Y-110089507D01*
X106139507Y-110173391D01*
X106080202Y-110276109D01*
X106080201Y-110276114D01*
X106049500Y-110390691D01*
X106049500Y-110509309D01*
X106076574Y-110610351D01*
X106080202Y-110623890D01*
X106139507Y-110726608D01*
X106139509Y-110726610D01*
X106139511Y-110726613D01*
X106223387Y-110810489D01*
X106223389Y-110810490D01*
X106223391Y-110810492D01*
X106326110Y-110869797D01*
X106326108Y-110869797D01*
X106326112Y-110869798D01*
X106326114Y-110869799D01*
X106434366Y-110898805D01*
X106478745Y-110924427D01*
X109077904Y-113523586D01*
X109105681Y-113578103D01*
X109106900Y-113593590D01*
X109106900Y-123458544D01*
X109130786Y-123547688D01*
X109176930Y-123627612D01*
X110408205Y-124858886D01*
X111525572Y-125976253D01*
X111551195Y-126020634D01*
X111580202Y-126128890D01*
X111639507Y-126231608D01*
X111639509Y-126231610D01*
X111639511Y-126231613D01*
X111723387Y-126315489D01*
X111723389Y-126315490D01*
X111723391Y-126315492D01*
X111826110Y-126374797D01*
X111826111Y-126374797D01*
X111826114Y-126374799D01*
X111940691Y-126405500D01*
X111940693Y-126405500D01*
X112059307Y-126405500D01*
X112059309Y-126405500D01*
X112173886Y-126374799D01*
X112173888Y-126374797D01*
X112173890Y-126374797D01*
X112276608Y-126315492D01*
X112276608Y-126315491D01*
X112276613Y-126315489D01*
X112360489Y-126231613D01*
X112419799Y-126128886D01*
X112450500Y-126014309D01*
X112450500Y-125895691D01*
X112419799Y-125781114D01*
X112419797Y-125781111D01*
X112419797Y-125781109D01*
X112360492Y-125678391D01*
X112360490Y-125678389D01*
X112360489Y-125678387D01*
X112276613Y-125594511D01*
X112276610Y-125594509D01*
X112276608Y-125594507D01*
X112173889Y-125535202D01*
X112173890Y-125535202D01*
X112146416Y-125527840D01*
X112065633Y-125506194D01*
X112021253Y-125480572D01*
X111845185Y-125304504D01*
X111817408Y-125249987D01*
X111826979Y-125189555D01*
X111870244Y-125146290D01*
X111915189Y-125135500D01*
X112009307Y-125135500D01*
X112009309Y-125135500D01*
X112123886Y-125104799D01*
X112123888Y-125104797D01*
X112123890Y-125104797D01*
X112226608Y-125045492D01*
X112226608Y-125045491D01*
X112226613Y-125045489D01*
X112310489Y-124961613D01*
X112310492Y-124961608D01*
X112369797Y-124858890D01*
X112369797Y-124858888D01*
X112369799Y-124858886D01*
X112400500Y-124744309D01*
X112400500Y-124625691D01*
X112369799Y-124511114D01*
X112369797Y-124511111D01*
X112369797Y-124511109D01*
X112310492Y-124408391D01*
X112310490Y-124408389D01*
X112310489Y-124408387D01*
X112226613Y-124324511D01*
X112226610Y-124324509D01*
X112226608Y-124324507D01*
X112123889Y-124265202D01*
X112123890Y-124265202D01*
X112085326Y-124254869D01*
X112012629Y-124235389D01*
X111968249Y-124209767D01*
X111769315Y-124010833D01*
X111741538Y-123956316D01*
X111751109Y-123895884D01*
X111794374Y-123852619D01*
X111854806Y-123843048D01*
X111864938Y-123845201D01*
X111940691Y-123865500D01*
X111940692Y-123865500D01*
X112059307Y-123865500D01*
X112059309Y-123865500D01*
X112173886Y-123834799D01*
X112173888Y-123834797D01*
X112173890Y-123834797D01*
X112276608Y-123775492D01*
X112276608Y-123775491D01*
X112276613Y-123775489D01*
X112360489Y-123691613D01*
X112383003Y-123652618D01*
X112419797Y-123588890D01*
X112419797Y-123588888D01*
X112419799Y-123588886D01*
X112450500Y-123474309D01*
X112450500Y-123355691D01*
X112419799Y-123241114D01*
X112419797Y-123241111D01*
X112419797Y-123241109D01*
X112360492Y-123138391D01*
X112360490Y-123138389D01*
X112360489Y-123138387D01*
X112276613Y-123054511D01*
X112276610Y-123054509D01*
X112276608Y-123054507D01*
X112173891Y-122995203D01*
X112173888Y-122995202D01*
X112173886Y-122995201D01*
X112065633Y-122966194D01*
X112021254Y-122940572D01*
X111839934Y-122759252D01*
X111812157Y-122704735D01*
X111821728Y-122644303D01*
X111864993Y-122601038D01*
X111925425Y-122591467D01*
X111935554Y-122593620D01*
X111938091Y-122594300D01*
X111938093Y-122594300D01*
X112056707Y-122594300D01*
X112056709Y-122594300D01*
X112171286Y-122563599D01*
X112171288Y-122563597D01*
X112171290Y-122563597D01*
X112274008Y-122504292D01*
X112274008Y-122504291D01*
X112274013Y-122504289D01*
X112357889Y-122420413D01*
X112417199Y-122317686D01*
X112447900Y-122203109D01*
X112447900Y-122084491D01*
X112417199Y-121969914D01*
X112417197Y-121969911D01*
X112417197Y-121969909D01*
X112361164Y-121872858D01*
X112347900Y-121823358D01*
X112347900Y-110159657D01*
X112347900Y-110159656D01*
X112324014Y-110070512D01*
X112300740Y-110030201D01*
X112277870Y-109990589D01*
X112277868Y-109990587D01*
X112212612Y-109925330D01*
X112212612Y-109925331D01*
X108606812Y-106319530D01*
X108526888Y-106273386D01*
X108437744Y-106249500D01*
X108437742Y-106249500D01*
X106820442Y-106249500D01*
X106770942Y-106236236D01*
X106673889Y-106180202D01*
X106673890Y-106180202D01*
X106660351Y-106176574D01*
X106559309Y-106149500D01*
X106440691Y-106149500D01*
X106370567Y-106168289D01*
X106326109Y-106180202D01*
X106223391Y-106239507D01*
X106139507Y-106323391D01*
X106080202Y-106426109D01*
X106080201Y-106426114D01*
X106049500Y-106540691D01*
X102619700Y-106540691D01*
X102619700Y-101566990D01*
X102638607Y-101508799D01*
X102648696Y-101496986D01*
X106466186Y-97679496D01*
X106520703Y-97651719D01*
X106536190Y-97650500D01*
X106565890Y-97650500D01*
X106565892Y-97650500D01*
X106693186Y-97616392D01*
X106693188Y-97616390D01*
X106693190Y-97616390D01*
X106807309Y-97550503D01*
X106807309Y-97550502D01*
X106807314Y-97550500D01*
X106857814Y-97500000D01*
X112948799Y-97500000D01*
X113662555Y-97500000D01*
X113640000Y-97584174D01*
X113640000Y-97715826D01*
X113662555Y-97800000D01*
X112948799Y-97800000D01*
X112969546Y-97930996D01*
X113027914Y-98110635D01*
X113113667Y-98278936D01*
X113113669Y-98278940D01*
X113224686Y-98431742D01*
X113358257Y-98565313D01*
X113511059Y-98676330D01*
X113511063Y-98676332D01*
X113679364Y-98762085D01*
X113859003Y-98820453D01*
X113990000Y-98841200D01*
X113990000Y-98127445D01*
X114074174Y-98150000D01*
X114205826Y-98150000D01*
X114290000Y-98127445D01*
X114290000Y-98841199D01*
X114420996Y-98820453D01*
X114600635Y-98762085D01*
X114768936Y-98676332D01*
X114768940Y-98676330D01*
X114921742Y-98565313D01*
X115055313Y-98431742D01*
X115166330Y-98278940D01*
X115166332Y-98278936D01*
X115252085Y-98110635D01*
X115310453Y-97930996D01*
X115331201Y-97800000D01*
X114617445Y-97800000D01*
X114640000Y-97715826D01*
X114640000Y-97584174D01*
X114617445Y-97500000D01*
X115331200Y-97500000D01*
X115310453Y-97369003D01*
X115252085Y-97189364D01*
X115166332Y-97021063D01*
X115166330Y-97021059D01*
X115055313Y-96868257D01*
X114921742Y-96734686D01*
X114768940Y-96623669D01*
X114768936Y-96623667D01*
X114600635Y-96537914D01*
X114420996Y-96479546D01*
X114290000Y-96458798D01*
X114290000Y-97172554D01*
X114205826Y-97150000D01*
X114074174Y-97150000D01*
X113990000Y-97172554D01*
X113990000Y-96458799D01*
X113989999Y-96458798D01*
X113859003Y-96479546D01*
X113679364Y-96537914D01*
X113511063Y-96623667D01*
X113511059Y-96623669D01*
X113358257Y-96734686D01*
X113224686Y-96868257D01*
X113113669Y-97021059D01*
X113113667Y-97021063D01*
X113027914Y-97189364D01*
X112969546Y-97369003D01*
X112948799Y-97500000D01*
X106857814Y-97500000D01*
X106900500Y-97457314D01*
X106915998Y-97430471D01*
X106966390Y-97343190D01*
X106966390Y-97343188D01*
X106966392Y-97343186D01*
X107000500Y-97215892D01*
X107000500Y-97084108D01*
X106966392Y-96956814D01*
X106966390Y-96956811D01*
X106966390Y-96956809D01*
X106900503Y-96842690D01*
X106900501Y-96842688D01*
X106900500Y-96842686D01*
X106807314Y-96749500D01*
X106807311Y-96749498D01*
X106807309Y-96749496D01*
X106693189Y-96683609D01*
X106693191Y-96683609D01*
X106643799Y-96670375D01*
X106565892Y-96649500D01*
X106434108Y-96649500D01*
X106356200Y-96670375D01*
X106306809Y-96683609D01*
X106192690Y-96749496D01*
X106099496Y-96842690D01*
X106033609Y-96956809D01*
X105999500Y-97084109D01*
X105999500Y-97113810D01*
X105980593Y-97172001D01*
X105970504Y-97183814D01*
X101988730Y-101165588D01*
X101942586Y-101245512D01*
X101918700Y-101334656D01*
X95450500Y-101334656D01*
X95450500Y-100198321D01*
X95469407Y-100140130D01*
X95479490Y-100128323D01*
X95500500Y-100107314D01*
X95566392Y-99993186D01*
X95600500Y-99865892D01*
X95600500Y-99734108D01*
X95566392Y-99606814D01*
X95566390Y-99606811D01*
X95566390Y-99606809D01*
X95500503Y-99492690D01*
X95500501Y-99492688D01*
X95500500Y-99492686D01*
X95407314Y-99399500D01*
X95407311Y-99399498D01*
X95407309Y-99399496D01*
X95293189Y-99333609D01*
X95293191Y-99333609D01*
X95243799Y-99320375D01*
X95165892Y-99299500D01*
X95034108Y-99299500D01*
X94956200Y-99320375D01*
X94906809Y-99333609D01*
X94792690Y-99399496D01*
X94699496Y-99492690D01*
X94633609Y-99606809D01*
X94633608Y-99606814D01*
X94599500Y-99734108D01*
X94300500Y-99734108D01*
X94266392Y-99606814D01*
X94266390Y-99606811D01*
X94266390Y-99606809D01*
X94200503Y-99492690D01*
X94200501Y-99492688D01*
X94200500Y-99492686D01*
X94107314Y-99399500D01*
X94107311Y-99399498D01*
X94107309Y-99399496D01*
X93993189Y-99333609D01*
X93993191Y-99333609D01*
X93943799Y-99320375D01*
X93865892Y-99299500D01*
X93734108Y-99299500D01*
X93656200Y-99320375D01*
X93606809Y-99333609D01*
X93492690Y-99399496D01*
X93399496Y-99492690D01*
X93333609Y-99606809D01*
X93333608Y-99606814D01*
X93299500Y-99734108D01*
X91949300Y-99734108D01*
X91949300Y-99506722D01*
X91968207Y-99448531D01*
X91978296Y-99436718D01*
X94330906Y-97084108D01*
X97109500Y-97084108D01*
X97109500Y-97215892D01*
X97112626Y-97227558D01*
X97143609Y-97343190D01*
X97209496Y-97457309D01*
X97209498Y-97457311D01*
X97209500Y-97457314D01*
X97302686Y-97550500D01*
X97302688Y-97550501D01*
X97302690Y-97550503D01*
X97416810Y-97616390D01*
X97416808Y-97616390D01*
X97416812Y-97616391D01*
X97416814Y-97616392D01*
X97544108Y-97650500D01*
X97544110Y-97650500D01*
X97675890Y-97650500D01*
X97675892Y-97650500D01*
X97803186Y-97616392D01*
X97803188Y-97616390D01*
X97803190Y-97616390D01*
X97917309Y-97550503D01*
X97917309Y-97550502D01*
X97917314Y-97550500D01*
X98010500Y-97457314D01*
X98025998Y-97430471D01*
X98076390Y-97343190D01*
X98076390Y-97343188D01*
X98076392Y-97343186D01*
X98110500Y-97215892D01*
X98110500Y-97186189D01*
X98112968Y-97178591D01*
X98111719Y-97170702D01*
X98122243Y-97150046D01*
X98129407Y-97127998D01*
X98139496Y-97116185D01*
X98210496Y-97045185D01*
X98265013Y-97017408D01*
X98325445Y-97026979D01*
X98368710Y-97070244D01*
X98379500Y-97115189D01*
X98379500Y-97215892D01*
X98382626Y-97227558D01*
X98413609Y-97343190D01*
X98479496Y-97457309D01*
X98479498Y-97457311D01*
X98479500Y-97457314D01*
X98572686Y-97550500D01*
X98572688Y-97550501D01*
X98572690Y-97550503D01*
X98686810Y-97616390D01*
X98686808Y-97616390D01*
X98686812Y-97616391D01*
X98686814Y-97616392D01*
X98814108Y-97650500D01*
X98814110Y-97650500D01*
X98945890Y-97650500D01*
X98945892Y-97650500D01*
X99073186Y-97616392D01*
X99073188Y-97616390D01*
X99073190Y-97616390D01*
X99187309Y-97550503D01*
X99187309Y-97550502D01*
X99187314Y-97550500D01*
X99208319Y-97529494D01*
X99262834Y-97501719D01*
X99278321Y-97500500D01*
X104017342Y-97500500D01*
X104017344Y-97500500D01*
X104106488Y-97476614D01*
X104117112Y-97470480D01*
X104186412Y-97430470D01*
X106931986Y-94684896D01*
X106986503Y-94657119D01*
X107001990Y-94655900D01*
X110400742Y-94655900D01*
X110400744Y-94655900D01*
X110489888Y-94632014D01*
X110569812Y-94585870D01*
X114949708Y-90205972D01*
X115004223Y-90178197D01*
X115057596Y-90184514D01*
X115099833Y-90202009D01*
X115143580Y-90220130D01*
X115346535Y-90260500D01*
X115346536Y-90260500D01*
X115553464Y-90260500D01*
X115553465Y-90260500D01*
X115756420Y-90220130D01*
X115947598Y-90140941D01*
X116119655Y-90025977D01*
X116265977Y-89879655D01*
X116380941Y-89707598D01*
X116460130Y-89516420D01*
X116500500Y-89313465D01*
X116500500Y-89106535D01*
X116460130Y-88903580D01*
X116380941Y-88712402D01*
X116265977Y-88540345D01*
X116119655Y-88394023D01*
X116119651Y-88394020D01*
X115947597Y-88279058D01*
X115756418Y-88199869D01*
X115553467Y-88159500D01*
X115553465Y-88159500D01*
X115346535Y-88159500D01*
X115346532Y-88159500D01*
X115143581Y-88199869D01*
X114952402Y-88279058D01*
X114780348Y-88394020D01*
X114634020Y-88540348D01*
X114519058Y-88712402D01*
X114439869Y-88903581D01*
X114399500Y-89106532D01*
X114399500Y-89313467D01*
X114439869Y-89516418D01*
X114475485Y-89602401D01*
X114480286Y-89663398D01*
X114454025Y-89710291D01*
X110238414Y-93925904D01*
X110183897Y-93953681D01*
X110168410Y-93954900D01*
X106769656Y-93954900D01*
X106680512Y-93978786D01*
X106600588Y-94024930D01*
X103855014Y-96770504D01*
X103800497Y-96798281D01*
X103785010Y-96799500D01*
X99278321Y-96799500D01*
X99220130Y-96780593D01*
X99208323Y-96770509D01*
X99187314Y-96749500D01*
X99187311Y-96749498D01*
X99187309Y-96749496D01*
X99073189Y-96683609D01*
X99073191Y-96683609D01*
X99023799Y-96670375D01*
X98945892Y-96649500D01*
X98845189Y-96649500D01*
X98786998Y-96630593D01*
X98751034Y-96581093D01*
X98751034Y-96519907D01*
X98775185Y-96480496D01*
X104075985Y-91179696D01*
X104130502Y-91151919D01*
X104145989Y-91150700D01*
X108157342Y-91150700D01*
X108157344Y-91150700D01*
X108246488Y-91126814D01*
X108326412Y-91080670D01*
X112357586Y-87049496D01*
X112412103Y-87021719D01*
X112427590Y-87020500D01*
X114391979Y-87020500D01*
X114450170Y-87039407D01*
X114483443Y-87081614D01*
X114519058Y-87167597D01*
X114620714Y-87319737D01*
X114634023Y-87339655D01*
X114780345Y-87485977D01*
X114952402Y-87600941D01*
X115143580Y-87680130D01*
X115346535Y-87720500D01*
X115346536Y-87720500D01*
X115553464Y-87720500D01*
X115553465Y-87720500D01*
X115756420Y-87680130D01*
X115947598Y-87600941D01*
X116119655Y-87485977D01*
X116265977Y-87339655D01*
X116380941Y-87167598D01*
X116460130Y-86976420D01*
X116500500Y-86773465D01*
X116500500Y-86566535D01*
X116460130Y-86363580D01*
X116380941Y-86172402D01*
X116265977Y-86000345D01*
X116119655Y-85854023D01*
X116119651Y-85854020D01*
X115947597Y-85739058D01*
X115756418Y-85659869D01*
X115553467Y-85619500D01*
X115553465Y-85619500D01*
X115346535Y-85619500D01*
X115346532Y-85619500D01*
X115143581Y-85659869D01*
X114952402Y-85739058D01*
X114780348Y-85854020D01*
X114634020Y-86000348D01*
X114519058Y-86172402D01*
X114483443Y-86258386D01*
X114443706Y-86304911D01*
X114391979Y-86319500D01*
X112195256Y-86319500D01*
X112106112Y-86343386D01*
X112026188Y-86389530D01*
X107995014Y-90420704D01*
X107940497Y-90448481D01*
X107925010Y-90449700D01*
X103913656Y-90449700D01*
X103824512Y-90473586D01*
X103824511Y-90473586D01*
X103824509Y-90473587D01*
X103744590Y-90519729D01*
X97643814Y-96620504D01*
X97589297Y-96648281D01*
X97573810Y-96649500D01*
X97544108Y-96649500D01*
X97466200Y-96670375D01*
X97416809Y-96683609D01*
X97302690Y-96749496D01*
X97209496Y-96842690D01*
X97143609Y-96956809D01*
X97143608Y-96956814D01*
X97109500Y-97084108D01*
X94330906Y-97084108D01*
X102041118Y-89373896D01*
X102095635Y-89346119D01*
X102111122Y-89344900D01*
X106005090Y-89344900D01*
X106005092Y-89344900D01*
X106132386Y-89310792D01*
X106132388Y-89310790D01*
X106132390Y-89310790D01*
X106246509Y-89244903D01*
X106246509Y-89244902D01*
X106246514Y-89244900D01*
X108041500Y-87449914D01*
X110831918Y-84659496D01*
X110886435Y-84631719D01*
X110901922Y-84630500D01*
X114468081Y-84630500D01*
X114526272Y-84649407D01*
X114550396Y-84674498D01*
X114634023Y-84799655D01*
X114780345Y-84945977D01*
X114952402Y-85060941D01*
X115143580Y-85140130D01*
X115346535Y-85180500D01*
X115346536Y-85180500D01*
X115553464Y-85180500D01*
X115553465Y-85180500D01*
X115756420Y-85140130D01*
X115947598Y-85060941D01*
X116119655Y-84945977D01*
X116265977Y-84799655D01*
X116380941Y-84627598D01*
X116460130Y-84436420D01*
X116500500Y-84233465D01*
X116500500Y-84026535D01*
X116460130Y-83823580D01*
X116380941Y-83632402D01*
X116265977Y-83460345D01*
X116119655Y-83314023D01*
X116109616Y-83307315D01*
X115947597Y-83199058D01*
X115756418Y-83119869D01*
X115553467Y-83079500D01*
X115553465Y-83079500D01*
X115346535Y-83079500D01*
X115346532Y-83079500D01*
X115143581Y-83119869D01*
X114952402Y-83199058D01*
X114780348Y-83314020D01*
X114634020Y-83460348D01*
X114550397Y-83585501D01*
X114502347Y-83623381D01*
X114468081Y-83629500D01*
X110719493Y-83629500D01*
X110587708Y-83629500D01*
X110509800Y-83650375D01*
X110460409Y-83663609D01*
X110346290Y-83729496D01*
X105760882Y-88314904D01*
X105706365Y-88342681D01*
X105690878Y-88343900D01*
X101928692Y-88343900D01*
X101796908Y-88343900D01*
X101719000Y-88364775D01*
X101669609Y-88378009D01*
X101555490Y-88443896D01*
X91141486Y-98857900D01*
X91141485Y-98857899D01*
X91048300Y-98951085D01*
X91048296Y-98951090D01*
X90982409Y-99065209D01*
X90948300Y-99192509D01*
X90948300Y-120168278D01*
X90929393Y-120226469D01*
X90919304Y-120238282D01*
X89236486Y-121921100D01*
X89236485Y-121921099D01*
X89143300Y-122014285D01*
X89143296Y-122014290D01*
X89077409Y-122128409D01*
X89077408Y-122128414D01*
X89043300Y-122255708D01*
X88800500Y-122255708D01*
X88800500Y-88145725D01*
X92224500Y-88145725D01*
X92224500Y-88954274D01*
X92227353Y-88984694D01*
X92227355Y-88984703D01*
X92272207Y-89112883D01*
X92352845Y-89222144D01*
X92352847Y-89222146D01*
X92352850Y-89222150D01*
X92352853Y-89222152D01*
X92352855Y-89222154D01*
X92462116Y-89302792D01*
X92462117Y-89302792D01*
X92462118Y-89302793D01*
X92590301Y-89347646D01*
X92620725Y-89350499D01*
X92620727Y-89350500D01*
X92620734Y-89350500D01*
X93979273Y-89350500D01*
X93979273Y-89350499D01*
X94009699Y-89347646D01*
X94137882Y-89302793D01*
X94247150Y-89222150D01*
X94327793Y-89112882D01*
X94372646Y-88984699D01*
X94375499Y-88954273D01*
X94375500Y-88954273D01*
X94375500Y-88145727D01*
X94375499Y-88145725D01*
X94372646Y-88115305D01*
X94372646Y-88115301D01*
X94327793Y-87987118D01*
X94247150Y-87877850D01*
X94247146Y-87877847D01*
X94247144Y-87877845D01*
X94137883Y-87797207D01*
X94009703Y-87752355D01*
X94009694Y-87752353D01*
X93979274Y-87749500D01*
X93979266Y-87749500D01*
X92620734Y-87749500D01*
X92620725Y-87749500D01*
X92590305Y-87752353D01*
X92590296Y-87752355D01*
X92462116Y-87797207D01*
X92352855Y-87877845D01*
X92352845Y-87877855D01*
X92272207Y-87987116D01*
X92227355Y-88115296D01*
X92227353Y-88115305D01*
X92224500Y-88145725D01*
X88800500Y-88145725D01*
X88800500Y-86471155D01*
X92224500Y-86471155D01*
X92224500Y-86471158D01*
X92224500Y-86628842D01*
X92253267Y-86773465D01*
X92255263Y-86783496D01*
X92255263Y-86783498D01*
X92315603Y-86929174D01*
X92315609Y-86929185D01*
X92347170Y-86976418D01*
X92403211Y-87060289D01*
X92514711Y-87171789D01*
X92592876Y-87224017D01*
X92645814Y-87259390D01*
X92645825Y-87259396D01*
X92699638Y-87281685D01*
X92791503Y-87319737D01*
X92946158Y-87350500D01*
X92946159Y-87350500D01*
X93653841Y-87350500D01*
X93653842Y-87350500D01*
X93808497Y-87319737D01*
X93954179Y-87259394D01*
X94085289Y-87171789D01*
X94196789Y-87060289D01*
X94284394Y-86929179D01*
X94344737Y-86783497D01*
X94375500Y-86628842D01*
X94375500Y-86471158D01*
X94344737Y-86316503D01*
X94284394Y-86170821D01*
X94284393Y-86170819D01*
X94284390Y-86170814D01*
X94249017Y-86117876D01*
X94196789Y-86039711D01*
X94085289Y-85928211D01*
X94033059Y-85893312D01*
X93954185Y-85840609D01*
X93954174Y-85840603D01*
X93808497Y-85780263D01*
X93653844Y-85749500D01*
X93653842Y-85749500D01*
X92946158Y-85749500D01*
X92946155Y-85749500D01*
X92791503Y-85780263D01*
X92791501Y-85780263D01*
X92645825Y-85840603D01*
X92645814Y-85840609D01*
X92514711Y-85928211D01*
X92514707Y-85928214D01*
X92403214Y-86039707D01*
X92403211Y-86039711D01*
X92315609Y-86170814D01*
X92315603Y-86170825D01*
X92255263Y-86316501D01*
X92255263Y-86316503D01*
X92224500Y-86471155D01*
X88800500Y-86471155D01*
X88800500Y-84399999D01*
X92137205Y-84399999D01*
X92137206Y-84400000D01*
X92953590Y-84400000D01*
X92950556Y-84405255D01*
X92925000Y-84500630D01*
X92925000Y-84599370D01*
X92950556Y-84694745D01*
X92953590Y-84700000D01*
X92137205Y-84700000D01*
X92159585Y-84812518D01*
X92159586Y-84812521D01*
X92227429Y-84976308D01*
X92325923Y-85123715D01*
X92451284Y-85249076D01*
X92598691Y-85347570D01*
X92762479Y-85415413D01*
X92936355Y-85449999D01*
X92936359Y-85450000D01*
X93149999Y-85450000D01*
X93150000Y-85449999D01*
X93150000Y-84896410D01*
X93155255Y-84899444D01*
X93250630Y-84925000D01*
X93349370Y-84925000D01*
X93444745Y-84899444D01*
X93450000Y-84896410D01*
X93450000Y-85449999D01*
X93450001Y-85450000D01*
X93663641Y-85450000D01*
X93663644Y-85449999D01*
X93837519Y-85415413D01*
X93837521Y-85415413D01*
X94001308Y-85347570D01*
X94148715Y-85249076D01*
X94274076Y-85123715D01*
X94372570Y-84976308D01*
X94440413Y-84812521D01*
X94440414Y-84812518D01*
X94462795Y-84700000D01*
X93646410Y-84700000D01*
X93649444Y-84694745D01*
X93675000Y-84599370D01*
X93675000Y-84500630D01*
X93649444Y-84405255D01*
X93646410Y-84400000D01*
X94462794Y-84400000D01*
X94462794Y-84399999D01*
X94440414Y-84287481D01*
X94440413Y-84287478D01*
X94372570Y-84123691D01*
X94274076Y-83976284D01*
X94148715Y-83850923D01*
X94001308Y-83752429D01*
X93837520Y-83684586D01*
X93663644Y-83650000D01*
X93450001Y-83650000D01*
X93450000Y-83650001D01*
X93450000Y-84203589D01*
X93444745Y-84200556D01*
X93349370Y-84175000D01*
X93250630Y-84175000D01*
X93155255Y-84200556D01*
X93150000Y-84203589D01*
X93150000Y-83650001D01*
X93149999Y-83650000D01*
X92936355Y-83650000D01*
X92762480Y-83684586D01*
X92762478Y-83684586D01*
X92598691Y-83752429D01*
X92451284Y-83850923D01*
X92325923Y-83976284D01*
X92227429Y-84123691D01*
X92159586Y-84287478D01*
X92159585Y-84287481D01*
X92137205Y-84399999D01*
X88800500Y-84399999D01*
X88800500Y-82960438D01*
X88780021Y-82884011D01*
X88740460Y-82815489D01*
X88684511Y-82759540D01*
X88684508Y-82759538D01*
X88615992Y-82719980D01*
X88615988Y-82719978D01*
X88539564Y-82699500D01*
X88539562Y-82699500D01*
X82399500Y-82699500D01*
X82341309Y-82680593D01*
X82305345Y-82631093D01*
X82300500Y-82600500D01*
X82300500Y-80555491D01*
X93131900Y-80555491D01*
X93131900Y-80674109D01*
X93137554Y-80695210D01*
X93162602Y-80788690D01*
X93221907Y-80891408D01*
X93221909Y-80891410D01*
X93221911Y-80891413D01*
X93305787Y-80975289D01*
X93305789Y-80975290D01*
X93305791Y-80975292D01*
X93408510Y-81034597D01*
X93408511Y-81034597D01*
X93408514Y-81034599D01*
X93523091Y-81065300D01*
X93523093Y-81065300D01*
X93641707Y-81065300D01*
X93641709Y-81065300D01*
X93756286Y-81034599D01*
X93756288Y-81034597D01*
X93756290Y-81034597D01*
X93853342Y-80978564D01*
X93902842Y-80965300D01*
X93980410Y-80965300D01*
X94038601Y-80984207D01*
X94050414Y-80994296D01*
X96584595Y-83528477D01*
X96653896Y-83568488D01*
X96664520Y-83574622D01*
X96753664Y-83598508D01*
X105381550Y-83598508D01*
X105431050Y-83611772D01*
X105528102Y-83667805D01*
X105528103Y-83667805D01*
X105528106Y-83667807D01*
X105642683Y-83698508D01*
X105642685Y-83698508D01*
X105761299Y-83698508D01*
X105761301Y-83698508D01*
X105875878Y-83667807D01*
X105875880Y-83667805D01*
X105875882Y-83667805D01*
X105978600Y-83608500D01*
X105978600Y-83608499D01*
X105978605Y-83608497D01*
X106062481Y-83524621D01*
X106062484Y-83524616D01*
X106121789Y-83421898D01*
X106121789Y-83421896D01*
X106121791Y-83421894D01*
X106152492Y-83307317D01*
X106152492Y-83188699D01*
X106121791Y-83074122D01*
X106121789Y-83074119D01*
X106121789Y-83074117D01*
X106062484Y-82971399D01*
X106062482Y-82971397D01*
X106062481Y-82971395D01*
X105978605Y-82887519D01*
X105978602Y-82887517D01*
X105978600Y-82887515D01*
X105875881Y-82828210D01*
X105875882Y-82828210D01*
X105862343Y-82824582D01*
X105761301Y-82797508D01*
X105642683Y-82797508D01*
X105575577Y-82815489D01*
X105528101Y-82828210D01*
X105431050Y-82884244D01*
X105381550Y-82897508D01*
X96985998Y-82897508D01*
X96927807Y-82878601D01*
X96915994Y-82868512D01*
X95654797Y-81607315D01*
X94381812Y-80334330D01*
X94301888Y-80288186D01*
X94212744Y-80264300D01*
X94212742Y-80264300D01*
X93902842Y-80264300D01*
X93853342Y-80251036D01*
X93756289Y-80195002D01*
X93756290Y-80195002D01*
X93742751Y-80191374D01*
X93641709Y-80164300D01*
X93523091Y-80164300D01*
X93452967Y-80183089D01*
X93408509Y-80195002D01*
X93305791Y-80254307D01*
X93221907Y-80338191D01*
X93162602Y-80440909D01*
X93162601Y-80440914D01*
X93131900Y-80555491D01*
X82300500Y-80555491D01*
X82300500Y-79456708D01*
X87512500Y-79456708D01*
X87512500Y-79588492D01*
X87533720Y-79667686D01*
X87546609Y-79715790D01*
X87612496Y-79829909D01*
X87612498Y-79829911D01*
X87612500Y-79829914D01*
X87705686Y-79923100D01*
X87705688Y-79923101D01*
X87705690Y-79923103D01*
X87819810Y-79988990D01*
X87819808Y-79988990D01*
X87819812Y-79988991D01*
X87819814Y-79988992D01*
X87947108Y-80023100D01*
X87947110Y-80023100D01*
X88078890Y-80023100D01*
X88078892Y-80023100D01*
X88206186Y-79988992D01*
X88206188Y-79988990D01*
X88206190Y-79988990D01*
X88320309Y-79923103D01*
X88320309Y-79923102D01*
X88320314Y-79923100D01*
X88413500Y-79829914D01*
X88479392Y-79715786D01*
X88513500Y-79588492D01*
X88513500Y-79558790D01*
X88532407Y-79500599D01*
X88542496Y-79488786D01*
X89660191Y-78371091D01*
X93131900Y-78371091D01*
X93131900Y-78489709D01*
X93139327Y-78517426D01*
X93162602Y-78604290D01*
X93221907Y-78707008D01*
X93221909Y-78707010D01*
X93221911Y-78707013D01*
X93305787Y-78790889D01*
X93305789Y-78790890D01*
X93305791Y-78790892D01*
X93408510Y-78850197D01*
X93408511Y-78850197D01*
X93408514Y-78850199D01*
X93523091Y-78880900D01*
X93523093Y-78880900D01*
X93641707Y-78880900D01*
X93641709Y-78880900D01*
X93756286Y-78850199D01*
X93756288Y-78850197D01*
X93756290Y-78850197D01*
X93853342Y-78794164D01*
X93902842Y-78780900D01*
X95275810Y-78780900D01*
X95334001Y-78799807D01*
X95345814Y-78809896D01*
X99158388Y-82622470D01*
X99238312Y-82668614D01*
X99327456Y-82692500D01*
X99327458Y-82692500D01*
X103991742Y-82692500D01*
X103991744Y-82692500D01*
X104080888Y-82668614D01*
X104160812Y-82622470D01*
X104756990Y-82026290D01*
X104805416Y-82001617D01*
X104805033Y-82000187D01*
X104811299Y-81998508D01*
X104811301Y-81998508D01*
X104925878Y-81967807D01*
X104925880Y-81967805D01*
X104925882Y-81967805D01*
X105028600Y-81908500D01*
X105028600Y-81908499D01*
X105028605Y-81908497D01*
X105112481Y-81824621D01*
X105136515Y-81782993D01*
X105171789Y-81721898D01*
X105171789Y-81721896D01*
X105171791Y-81721894D01*
X105202492Y-81607317D01*
X105202492Y-81488699D01*
X105171791Y-81374122D01*
X105171789Y-81374118D01*
X105171789Y-81374117D01*
X105112484Y-81271399D01*
X105112482Y-81271397D01*
X105112481Y-81271395D01*
X105028605Y-81187519D01*
X105028602Y-81187517D01*
X105028600Y-81187515D01*
X104925881Y-81128210D01*
X104925882Y-81128210D01*
X104900448Y-81121395D01*
X104811301Y-81097508D01*
X104692683Y-81097508D01*
X104622559Y-81116297D01*
X104578101Y-81128210D01*
X104475383Y-81187515D01*
X104391499Y-81271399D01*
X104332194Y-81374118D01*
X104332192Y-81374122D01*
X104307725Y-81465434D01*
X104282103Y-81509813D01*
X103829414Y-81962503D01*
X103774897Y-81990281D01*
X103759410Y-81991500D01*
X102394506Y-81991500D01*
X102336315Y-81972593D01*
X102300351Y-81923093D01*
X102300351Y-81861907D01*
X102336315Y-81812407D01*
X102345006Y-81806764D01*
X102428600Y-81758500D01*
X102428600Y-81758499D01*
X102428605Y-81758497D01*
X102512481Y-81674621D01*
X102512484Y-81674616D01*
X102571789Y-81571898D01*
X102571789Y-81571896D01*
X102571791Y-81571894D01*
X102602492Y-81457317D01*
X102602492Y-81338699D01*
X102571791Y-81224122D01*
X102571789Y-81224119D01*
X102571789Y-81224117D01*
X102512484Y-81121399D01*
X102512483Y-81121398D01*
X102512482Y-81121397D01*
X102512481Y-81121395D01*
X102481487Y-81090401D01*
X102453711Y-81035884D01*
X102452492Y-81020398D01*
X102452492Y-78575617D01*
X102471399Y-78517426D01*
X102481482Y-78505619D01*
X102562481Y-78424621D01*
X102621791Y-78321894D01*
X102652492Y-78207317D01*
X102652492Y-78088699D01*
X102621791Y-77974122D01*
X102621789Y-77974119D01*
X102621789Y-77974117D01*
X102562484Y-77871399D01*
X102562482Y-77871397D01*
X102562481Y-77871395D01*
X102478605Y-77787519D01*
X102478602Y-77787517D01*
X102478600Y-77787515D01*
X102375881Y-77728210D01*
X102375882Y-77728210D01*
X102362343Y-77724582D01*
X102261301Y-77697508D01*
X102142683Y-77697508D01*
X102072559Y-77716297D01*
X102028101Y-77728210D01*
X101925383Y-77787515D01*
X101841499Y-77871399D01*
X101782194Y-77974117D01*
X101772418Y-78010601D01*
X101751492Y-78088699D01*
X101751492Y-78207317D01*
X101782193Y-78321894D01*
X101782194Y-78321896D01*
X101838228Y-78418948D01*
X101851492Y-78468449D01*
X101851492Y-81020398D01*
X101832585Y-81078589D01*
X101822497Y-81090401D01*
X101791499Y-81121399D01*
X101732194Y-81224117D01*
X101732193Y-81224122D01*
X101701492Y-81338699D01*
X101701492Y-81457317D01*
X101728566Y-81558359D01*
X101732194Y-81571898D01*
X101791499Y-81674616D01*
X101791501Y-81674618D01*
X101791503Y-81674621D01*
X101875379Y-81758497D01*
X101875381Y-81758498D01*
X101875383Y-81758500D01*
X101958978Y-81806764D01*
X101999919Y-81852233D01*
X102006315Y-81913084D01*
X101975722Y-81966072D01*
X101919826Y-81990958D01*
X101909478Y-81991500D01*
X99559790Y-81991500D01*
X99501599Y-81972593D01*
X99489786Y-81962504D01*
X97618172Y-80090890D01*
X95677212Y-78149930D01*
X95597288Y-78103786D01*
X95508144Y-78079900D01*
X95508142Y-78079900D01*
X93902842Y-78079900D01*
X93853342Y-78066636D01*
X93756289Y-78010602D01*
X93756290Y-78010602D01*
X93742751Y-78006974D01*
X93641709Y-77979900D01*
X93523091Y-77979900D01*
X93452967Y-77998689D01*
X93408509Y-78010602D01*
X93305791Y-78069907D01*
X93221907Y-78153791D01*
X93162602Y-78256509D01*
X93162601Y-78256514D01*
X93131900Y-78371091D01*
X89660191Y-78371091D01*
X90872386Y-77158896D01*
X90926903Y-77131119D01*
X90942390Y-77129900D01*
X102489410Y-77129900D01*
X102547601Y-77148807D01*
X102559414Y-77158896D01*
X103794704Y-78394186D01*
X103822481Y-78448703D01*
X103823700Y-78464190D01*
X103823700Y-79626678D01*
X103804793Y-79684869D01*
X103794705Y-79696680D01*
X103773701Y-79717684D01*
X103773696Y-79717690D01*
X103707809Y-79831809D01*
X103707808Y-79831814D01*
X103673700Y-79959108D01*
X103673700Y-80090892D01*
X103701596Y-80195001D01*
X103707809Y-80218190D01*
X103773696Y-80332309D01*
X103773698Y-80332311D01*
X103773700Y-80332314D01*
X103866886Y-80425500D01*
X103866888Y-80425501D01*
X103866890Y-80425503D01*
X103981010Y-80491390D01*
X103981008Y-80491390D01*
X103981012Y-80491391D01*
X103981014Y-80491392D01*
X104108308Y-80525500D01*
X104108310Y-80525500D01*
X104240090Y-80525500D01*
X104240092Y-80525500D01*
X104367386Y-80491392D01*
X104367388Y-80491390D01*
X104367390Y-80491390D01*
X104481509Y-80425503D01*
X104481509Y-80425502D01*
X104481514Y-80425500D01*
X104502519Y-80404494D01*
X104557034Y-80376719D01*
X104572521Y-80375500D01*
X107081210Y-80375500D01*
X107139401Y-80394407D01*
X107151214Y-80404496D01*
X107884104Y-81137386D01*
X107911881Y-81191903D01*
X107913100Y-81207390D01*
X107913100Y-83756010D01*
X107894193Y-83814201D01*
X107884104Y-83826014D01*
X107385414Y-84324704D01*
X107330897Y-84352481D01*
X107315410Y-84353700D01*
X106045721Y-84353700D01*
X105987530Y-84334793D01*
X105975723Y-84324709D01*
X105954714Y-84303700D01*
X105954711Y-84303698D01*
X105954709Y-84303696D01*
X105840589Y-84237809D01*
X105840591Y-84237809D01*
X105791199Y-84224575D01*
X105713292Y-84203700D01*
X105581508Y-84203700D01*
X105503600Y-84224575D01*
X105454209Y-84237809D01*
X105340090Y-84303696D01*
X105246896Y-84396890D01*
X105181009Y-84511009D01*
X105181008Y-84511014D01*
X105146900Y-84638308D01*
X105146900Y-84770092D01*
X105158268Y-84812518D01*
X105181009Y-84897390D01*
X105246896Y-85011509D01*
X105246898Y-85011511D01*
X105246900Y-85011514D01*
X105340086Y-85104700D01*
X105340088Y-85104701D01*
X105340090Y-85104703D01*
X105454210Y-85170590D01*
X105454208Y-85170590D01*
X105454212Y-85170591D01*
X105454214Y-85170592D01*
X105581508Y-85204700D01*
X105581510Y-85204700D01*
X105713290Y-85204700D01*
X105713292Y-85204700D01*
X105840586Y-85170592D01*
X105840588Y-85170590D01*
X105840590Y-85170590D01*
X105954709Y-85104703D01*
X105954709Y-85104702D01*
X105954714Y-85104700D01*
X105975719Y-85083694D01*
X106030234Y-85055919D01*
X106045721Y-85054700D01*
X107547742Y-85054700D01*
X107547744Y-85054700D01*
X107636888Y-85030814D01*
X107647512Y-85024680D01*
X107716812Y-84984670D01*
X108544070Y-84157412D01*
X108590214Y-84077488D01*
X108614100Y-83988343D01*
X108614100Y-83896056D01*
X108614100Y-80975056D01*
X108590214Y-80885912D01*
X108557940Y-80830012D01*
X108544070Y-80805988D01*
X108433284Y-80695202D01*
X114300000Y-80695202D01*
X114300000Y-81439999D01*
X114300001Y-81440000D01*
X114972555Y-81440000D01*
X114950000Y-81524174D01*
X114950000Y-81655826D01*
X114972555Y-81740000D01*
X114300002Y-81740000D01*
X114300001Y-81740001D01*
X114300001Y-82484791D01*
X114302909Y-82509874D01*
X114348213Y-82612477D01*
X114427522Y-82691786D01*
X114530127Y-82737090D01*
X114555203Y-82739999D01*
X115299998Y-82739999D01*
X115300000Y-82739998D01*
X115300000Y-82067445D01*
X115384174Y-82090000D01*
X115515826Y-82090000D01*
X115600000Y-82067445D01*
X115600000Y-82739998D01*
X115600001Y-82739999D01*
X116344790Y-82739999D01*
X116344791Y-82739998D01*
X116369874Y-82737090D01*
X116472477Y-82691786D01*
X116551786Y-82612477D01*
X116597090Y-82509872D01*
X116599999Y-82484797D01*
X116600000Y-82484795D01*
X116600000Y-81740001D01*
X116599999Y-81740000D01*
X115927445Y-81740000D01*
X115950000Y-81655826D01*
X115950000Y-81524174D01*
X115927445Y-81440000D01*
X116599998Y-81440000D01*
X116599999Y-81439999D01*
X116599999Y-80695210D01*
X116599998Y-80695208D01*
X116597090Y-80670125D01*
X116551786Y-80567522D01*
X116472477Y-80488213D01*
X116369872Y-80442909D01*
X116344797Y-80440000D01*
X115600001Y-80440000D01*
X115600000Y-80440001D01*
X115600000Y-81112554D01*
X115515826Y-81090000D01*
X115384174Y-81090000D01*
X115300000Y-81112554D01*
X115300000Y-80440001D01*
X115299999Y-80440000D01*
X114555210Y-80440000D01*
X114555207Y-80440001D01*
X114530125Y-80442909D01*
X114427522Y-80488213D01*
X114348213Y-80567522D01*
X114302909Y-80670127D01*
X114300000Y-80695202D01*
X108433284Y-80695202D01*
X107482612Y-79744530D01*
X107402688Y-79698386D01*
X107313544Y-79674500D01*
X107313542Y-79674500D01*
X104623700Y-79674500D01*
X104565509Y-79655593D01*
X104529545Y-79606093D01*
X104524700Y-79575500D01*
X104524700Y-78231857D01*
X104524700Y-78231856D01*
X104500814Y-78142712D01*
X104478340Y-78103786D01*
X104454669Y-78062787D01*
X102890812Y-76498930D01*
X102810888Y-76452786D01*
X102721744Y-76428900D01*
X90710056Y-76428900D01*
X90620912Y-76452786D01*
X90540988Y-76498930D01*
X88046814Y-78993104D01*
X87992297Y-79020881D01*
X87976810Y-79022100D01*
X87947108Y-79022100D01*
X87869200Y-79042975D01*
X87819809Y-79056209D01*
X87705690Y-79122096D01*
X87612496Y-79215290D01*
X87546609Y-79329409D01*
X87546608Y-79329414D01*
X87512500Y-79456708D01*
X82300500Y-79456708D01*
X82300500Y-72759489D01*
X93797500Y-72759489D01*
X93797500Y-72849999D01*
X93797501Y-72850000D01*
X94470055Y-72850000D01*
X94447500Y-72934174D01*
X94447500Y-73065826D01*
X94470055Y-73150000D01*
X93797501Y-73150000D01*
X93797500Y-73150001D01*
X93797500Y-73240510D01*
X93825816Y-73419289D01*
X93881750Y-73591440D01*
X93963931Y-73752730D01*
X93963933Y-73752734D01*
X94070324Y-73899169D01*
X94198330Y-74027175D01*
X94344765Y-74133566D01*
X94344769Y-74133568D01*
X94506059Y-74215749D01*
X94678210Y-74271683D01*
X94797500Y-74290577D01*
X94797500Y-73477445D01*
X94881674Y-73500000D01*
X95013326Y-73500000D01*
X95097500Y-73477445D01*
X95097500Y-74290576D01*
X95216789Y-74271683D01*
X95388940Y-74215749D01*
X95550230Y-74133568D01*
X95550234Y-74133566D01*
X95696669Y-74027175D01*
X95824675Y-73899169D01*
X95931066Y-73752734D01*
X95931068Y-73752730D01*
X96013249Y-73591440D01*
X96069183Y-73419289D01*
X96097500Y-73240510D01*
X96097500Y-73150001D01*
X96097499Y-73150000D01*
X95424945Y-73150000D01*
X95447500Y-73065826D01*
X95447500Y-72934174D01*
X95424945Y-72850000D01*
X96097499Y-72850000D01*
X96097500Y-72849999D01*
X96097500Y-72759489D01*
X96069183Y-72580710D01*
X96013249Y-72408559D01*
X95931068Y-72247269D01*
X95931066Y-72247265D01*
X95824675Y-72100830D01*
X95696669Y-71972824D01*
X95550234Y-71866433D01*
X95550230Y-71866431D01*
X95388940Y-71784250D01*
X95216790Y-71728316D01*
X95097500Y-71709422D01*
X95097500Y-72522554D01*
X95013326Y-72500000D01*
X94881674Y-72500000D01*
X94797500Y-72522554D01*
X94797500Y-71709422D01*
X94797499Y-71709422D01*
X94678209Y-71728316D01*
X94506059Y-71784250D01*
X94344769Y-71866431D01*
X94344765Y-71866433D01*
X94198330Y-71972824D01*
X94070324Y-72100830D01*
X93963933Y-72247265D01*
X93963931Y-72247269D01*
X93881750Y-72408559D01*
X93825816Y-72580710D01*
X93797500Y-72759489D01*
X82300500Y-72759489D01*
X82300500Y-54878710D01*
X85149500Y-54878710D01*
X85149500Y-55121289D01*
X85181161Y-55361781D01*
X85181161Y-55361786D01*
X85243944Y-55596092D01*
X85243948Y-55596105D01*
X85336772Y-55820204D01*
X85336774Y-55820208D01*
X85336776Y-55820212D01*
X85420935Y-55965979D01*
X85458066Y-56030292D01*
X85605729Y-56222731D01*
X85605731Y-56222733D01*
X85605735Y-56222738D01*
X85777262Y-56394265D01*
X85777266Y-56394268D01*
X85777268Y-56394270D01*
X85969707Y-56541933D01*
X85969711Y-56541936D01*
X86179788Y-56663224D01*
X86403900Y-56756054D01*
X86638211Y-56818838D01*
X86878712Y-56850500D01*
X86878713Y-56850500D01*
X87121287Y-56850500D01*
X87121288Y-56850500D01*
X87361789Y-56818838D01*
X87596100Y-56756054D01*
X87820212Y-56663224D01*
X88030289Y-56541936D01*
X88222738Y-56394265D01*
X88394265Y-56222738D01*
X88541936Y-56030289D01*
X88663224Y-55820212D01*
X88756054Y-55596100D01*
X88818838Y-55361789D01*
X88850500Y-55121288D01*
X88850500Y-54878712D01*
X88833098Y-54746532D01*
X93897000Y-54746532D01*
X93897000Y-55253467D01*
X93937369Y-55456418D01*
X94016558Y-55647597D01*
X94016559Y-55647598D01*
X94131523Y-55819655D01*
X94277845Y-55965977D01*
X94449902Y-56080941D01*
X94641080Y-56160130D01*
X94844035Y-56200500D01*
X94844036Y-56200500D01*
X95050964Y-56200500D01*
X95050965Y-56200500D01*
X95253920Y-56160130D01*
X95445098Y-56080941D01*
X95617155Y-55965977D01*
X95763477Y-55819655D01*
X95878441Y-55647598D01*
X95957630Y-55456420D01*
X95998000Y-55253465D01*
X95998000Y-54746535D01*
X95957630Y-54543580D01*
X95878441Y-54352402D01*
X95763477Y-54180345D01*
X95617155Y-54034023D01*
X95445098Y-53919059D01*
X95445099Y-53919059D01*
X95445097Y-53919058D01*
X95253918Y-53839869D01*
X95050967Y-53799500D01*
X95050965Y-53799500D01*
X94844035Y-53799500D01*
X94844032Y-53799500D01*
X94641081Y-53839869D01*
X94449902Y-53919058D01*
X94277848Y-54034020D01*
X94131520Y-54180348D01*
X94016558Y-54352402D01*
X93937369Y-54543581D01*
X93897000Y-54746532D01*
X88833098Y-54746532D01*
X88830504Y-54726830D01*
X88818838Y-54638211D01*
X88756054Y-54403900D01*
X88663224Y-54179788D01*
X88541936Y-53969711D01*
X88541933Y-53969707D01*
X88394270Y-53777268D01*
X88394268Y-53777266D01*
X88394265Y-53777262D01*
X88222738Y-53605735D01*
X88222733Y-53605731D01*
X88222731Y-53605729D01*
X88030292Y-53458066D01*
X88030289Y-53458064D01*
X87820212Y-53336776D01*
X87820208Y-53336774D01*
X87820204Y-53336772D01*
X87596105Y-53243948D01*
X87596104Y-53243947D01*
X87596100Y-53243946D01*
X87361789Y-53181162D01*
X87361786Y-53181161D01*
X87361784Y-53181161D01*
X87121289Y-53149500D01*
X87121288Y-53149500D01*
X86878712Y-53149500D01*
X86878710Y-53149500D01*
X86638218Y-53181161D01*
X86638213Y-53181161D01*
X86403907Y-53243944D01*
X86403894Y-53243948D01*
X86179795Y-53336772D01*
X85969707Y-53458066D01*
X85777268Y-53605729D01*
X85605729Y-53777268D01*
X85458066Y-53969707D01*
X85336772Y-54179795D01*
X85243948Y-54403894D01*
X85243944Y-54403907D01*
X85181161Y-54638213D01*
X85181161Y-54638218D01*
X85149500Y-54878710D01*
X82300500Y-54878710D01*
X82300500Y-50399500D01*
X82319407Y-50341309D01*
X82368907Y-50305345D01*
X82399500Y-50300500D01*
X116699628Y-50300500D01*
X116757819Y-50319407D01*
G37*
%TD.AperFunction*%
%TD*%
M02*
