%TF.GenerationSoftware,KiCad,Pcbnew,10.0.4*%
%TF.CreationDate,2026-09-23T11:11:11-03:00*%
%TF.ProjectId,PCB,5043422e-6b69-4636-9164-5f7063625858,rev?*%
%TF.SameCoordinates,Original*%
%TF.FileFunction,Soldermask,Top*%
%TF.FilePolarity,Negative*%
%FSLAX46Y46*%
G04 Gerber Fmt 4.6, Leading zero omitted, Abs format (unit mm)*
G04 Created by KiCad (PCBNEW 10.0.4) date 2026-09-23 11:11:11*
%MOMM*%
%LPD*%
G01*
G04 APERTURE LIST*
G04 Aperture macros list*
%AMRoundRect*
0 Rectangle with rounded corners*
0 $1 Rounding radius*
0 $2 $3 $4 $5 $6 $7 $8 $9 X,Y pos of 4 corners*
0 Add a 4 corners polygon primitive as box body*
4,1,4,$2,$3,$4,$5,$6,$7,$8,$9,$2,$3,0*
0 Add four circle primitives for the rounded corners*
1,1,$1+$1,$2,$3*
1,1,$1+$1,$4,$5*
1,1,$1+$1,$6,$7*
1,1,$1+$1,$8,$9*
0 Add four rect primitives between the rounded corners*
20,1,$1+$1,$2,$3,$4,$5,0*
20,1,$1+$1,$4,$5,$6,$7,0*
20,1,$1+$1,$6,$7,$8,$9,0*
20,1,$1+$1,$8,$9,$2,$3,0*%
G04 Aperture macros list end*
%ADD10C,1.000000*%
%ADD11RoundRect,0.225000X-0.225000X-0.250000X0.225000X-0.250000X0.225000X0.250000X-0.225000X0.250000X0*%
%ADD12R,1.700000X1.700000*%
%ADD13C,1.700000*%
%ADD14R,1.000000X1.500000*%
%ADD15RoundRect,0.250000X-0.625000X0.312500X-0.625000X-0.312500X0.625000X-0.312500X0.625000X0.312500X0*%
%ADD16RoundRect,0.225000X0.225000X0.250000X-0.225000X0.250000X-0.225000X-0.250000X0.225000X-0.250000X0*%
%ADD17RoundRect,0.249999X0.850001X-0.850001X0.850001X0.850001X-0.850001X0.850001X-0.850001X-0.850001X0*%
%ADD18C,2.200000*%
%ADD19RoundRect,0.200000X-0.275000X0.200000X-0.275000X-0.200000X0.275000X-0.200000X0.275000X0.200000X0*%
%ADD20RoundRect,0.200000X-0.200000X-0.275000X0.200000X-0.275000X0.200000X0.275000X-0.200000X0.275000X0*%
%ADD21RoundRect,0.225000X-0.250000X0.225000X-0.250000X-0.225000X0.250000X-0.225000X0.250000X0.225000X0*%
%ADD22RoundRect,0.250000X0.312500X0.625000X-0.312500X0.625000X-0.312500X-0.625000X0.312500X-0.625000X0*%
%ADD23RoundRect,0.250000X-0.312500X-0.625000X0.312500X-0.625000X0.312500X0.625000X-0.312500X0.625000X0*%
%ADD24RoundRect,0.200000X0.200000X0.275000X-0.200000X0.275000X-0.200000X-0.275000X0.200000X-0.275000X0*%
%ADD25O,1.800000X1.800000*%
%ADD26C,1.800000*%
%ADD27C,1.500000*%
%ADD28C,3.200000*%
%ADD29RoundRect,0.218750X0.256250X-0.218750X0.256250X0.218750X-0.256250X0.218750X-0.256250X-0.218750X0*%
%ADD30RoundRect,0.009800X0.710200X0.130200X-0.710200X0.130200X-0.710200X-0.130200X0.710200X-0.130200X0*%
%ADD31RoundRect,0.009800X0.130200X0.710200X-0.130200X0.710200X-0.130200X-0.710200X0.130200X-0.710200X0*%
%ADD32RoundRect,0.093750X0.106250X-0.093750X0.106250X0.093750X-0.106250X0.093750X-0.106250X-0.093750X0*%
%ADD33R,1.600000X1.000000*%
%ADD34RoundRect,0.218750X-0.218750X-0.256250X0.218750X-0.256250X0.218750X0.256250X-0.218750X0.256250X0*%
%ADD35R,2.200000X1.700000*%
%ADD36RoundRect,0.250000X-0.220971X0.662913X-0.662913X0.220971X0.220971X-0.662913X0.662913X-0.220971X0*%
%ADD37RoundRect,0.225000X0.250000X-0.225000X0.250000X0.225000X-0.250000X0.225000X-0.250000X-0.225000X0*%
%ADD38RoundRect,0.225000X-0.017678X0.335876X-0.335876X0.017678X0.017678X-0.335876X0.335876X-0.017678X0*%
%ADD39R,0.900000X1.500000*%
%ADD40R,1.500000X0.900000*%
%ADD41C,0.600000*%
%ADD42R,3.900000X3.900000*%
%ADD43RoundRect,0.250000X0.070711X0.565685X-0.565685X-0.070711X-0.070711X-0.565685X0.565685X0.070711X0*%
%ADD44RoundRect,0.150000X-0.512500X-0.150000X0.512500X-0.150000X0.512500X0.150000X-0.512500X0.150000X0*%
%ADD45RoundRect,0.225000X0.017678X-0.335876X0.335876X-0.017678X-0.017678X0.335876X-0.335876X0.017678X0*%
%ADD46R,2.500000X2.500000*%
%ADD47C,2.500000*%
%ADD48RoundRect,0.250000X1.050000X-1.050000X1.050000X1.050000X-1.050000X1.050000X-1.050000X-1.050000X0*%
%ADD49C,2.600000*%
%ADD50RoundRect,0.150000X-0.875000X-0.150000X0.875000X-0.150000X0.875000X0.150000X-0.875000X0.150000X0*%
%ADD51RoundRect,0.062500X0.062500X-0.375000X0.062500X0.375000X-0.062500X0.375000X-0.062500X-0.375000X0*%
%ADD52RoundRect,0.062500X0.375000X-0.062500X0.375000X0.062500X-0.375000X0.062500X-0.375000X-0.062500X0*%
%ADD53R,1.600000X1.600000*%
%ADD54RoundRect,0.200000X0.275000X-0.200000X0.275000X0.200000X-0.275000X0.200000X-0.275000X-0.200000X0*%
%ADD55RoundRect,0.218750X0.218750X0.256250X-0.218750X0.256250X-0.218750X-0.256250X0.218750X-0.256250X0*%
%ADD56RoundRect,0.250000X0.600000X0.750000X-0.600000X0.750000X-0.600000X-0.750000X0.600000X-0.750000X0*%
%ADD57O,1.700000X2.000000*%
%ADD58RoundRect,0.250000X0.625000X-0.350000X0.625000X0.350000X-0.625000X0.350000X-0.625000X-0.350000X0*%
%ADD59O,1.750000X1.200000*%
G04 APERTURE END LIST*
%TO.C,JP1*%
G36*
X102401992Y-79248008D02*
G01*
X102701992Y-79248008D01*
X102701992Y-80748008D01*
X102401992Y-80748008D01*
X102401992Y-79248008D01*
G37*
%TD*%
D10*
%TO.C,TP9*%
X139950000Y-101100000D03*
%TD*%
D11*
%TO.C,C16*%
X145725000Y-117040000D03*
X147275000Y-117040000D03*
%TD*%
D12*
%TO.C,J9*%
X127920000Y-136275000D03*
D13*
X127920000Y-133735000D03*
X130460000Y-136275000D03*
X130460000Y-133735000D03*
X133000000Y-136275000D03*
X133000000Y-133735000D03*
X135540000Y-136275000D03*
X135540000Y-133735000D03*
X138080000Y-136275000D03*
X138080000Y-133735000D03*
X140620000Y-136275000D03*
X140620000Y-133735000D03*
%TD*%
D14*
%TO.C,JP1*%
X101901992Y-79998008D03*
X103201992Y-79998008D03*
%TD*%
D15*
%TO.C,R35*%
X137750000Y-93537500D03*
X137750000Y-96462500D03*
%TD*%
D16*
%TO.C,C30*%
X115677000Y-100201000D03*
X114127000Y-100201000D03*
%TD*%
D11*
%TO.C,C18*%
X145725000Y-110119000D03*
X147275000Y-110119000D03*
%TD*%
D17*
%TO.C,J8*%
X156000000Y-128540000D03*
D18*
X156000000Y-126000000D03*
X156000000Y-123460000D03*
X156000000Y-120920000D03*
X156000000Y-118380000D03*
X156000000Y-115840000D03*
X156000000Y-113300000D03*
X156000000Y-110760000D03*
%TD*%
D19*
%TO.C,R11*%
X148786000Y-130693000D03*
X148786000Y-132343000D03*
%TD*%
D20*
%TO.C,R63*%
X103151992Y-78148008D03*
X104801992Y-78148008D03*
%TD*%
D21*
%TO.C,C35*%
X106000000Y-80025000D03*
X106000000Y-81575000D03*
%TD*%
D16*
%TO.C,C26*%
X140525000Y-112900000D03*
X138975000Y-112900000D03*
%TD*%
D22*
%TO.C,R34*%
X151712500Y-100750000D03*
X148787500Y-100750000D03*
%TD*%
D15*
%TO.C,R18*%
X143500000Y-89787500D03*
X143500000Y-92712500D03*
%TD*%
D10*
%TO.C,TP6*%
X150564000Y-118564000D03*
%TD*%
D23*
%TO.C,R24*%
X148537500Y-96000000D03*
X151462500Y-96000000D03*
%TD*%
D15*
%TO.C,R21*%
X146000000Y-92787500D03*
X146000000Y-95712500D03*
%TD*%
D24*
%TO.C,R62*%
X99526992Y-83848008D03*
X97876992Y-83848008D03*
%TD*%
D25*
%TO.C,U7*%
X114140000Y-97650000D03*
X116680000Y-97650000D03*
X119220000Y-97650000D03*
X121760000Y-97650000D03*
%TD*%
D11*
%TO.C,C13*%
X134327000Y-104500000D03*
X135877000Y-104500000D03*
%TD*%
D26*
%TO.C,MOV1*%
X137750000Y-55350000D03*
X145250000Y-56650000D03*
%TD*%
D10*
%TO.C,TP8*%
X144000000Y-98600000D03*
%TD*%
%TO.C,TP20*%
X89750000Y-93000000D03*
%TD*%
D15*
%TO.C,R38*%
X137750000Y-98287500D03*
X137750000Y-101212500D03*
%TD*%
D27*
%TO.C,TP18*%
X102000000Y-90250000D03*
%TD*%
D28*
%TO.C,H3*%
X87000000Y-55000000D03*
%TD*%
D29*
%TO.C,D3*%
X105274000Y-126885500D03*
X105274000Y-125310500D03*
%TD*%
D22*
%TO.C,R15*%
X144962500Y-76250000D03*
X142037500Y-76250000D03*
%TD*%
D27*
%TO.C,TP17*%
X109635200Y-81072000D03*
%TD*%
%TO.C,TP16*%
X107650000Y-88348000D03*
%TD*%
D19*
%TO.C,R8*%
X111350000Y-112825000D03*
X111350000Y-114475000D03*
%TD*%
%TO.C,R3*%
X105274000Y-122225000D03*
X105274000Y-123875000D03*
%TD*%
D30*
%TO.C,U5*%
X138627501Y-119600000D03*
X138627501Y-119100000D03*
X138627501Y-118600000D03*
X138627501Y-118100000D03*
X138627501Y-117600000D03*
X138627501Y-117100000D03*
X138627501Y-116600000D03*
X138627501Y-116100000D03*
X138627501Y-115600000D03*
X138627501Y-115100000D03*
X138627501Y-114600000D03*
X138627501Y-114100000D03*
D31*
X137192501Y-112665000D03*
X136692501Y-112665000D03*
X136192501Y-112665000D03*
X135692501Y-112665000D03*
X135192501Y-112665000D03*
X134692501Y-112665000D03*
X134192501Y-112665000D03*
X133692501Y-112665000D03*
X133192501Y-112665000D03*
X132692501Y-112665000D03*
X132192501Y-112665000D03*
X131692501Y-112665000D03*
D30*
X130257501Y-114100000D03*
X130257501Y-114600000D03*
X130257501Y-115100000D03*
X130257501Y-115600000D03*
X130257501Y-116100000D03*
X130257501Y-116600000D03*
X130257501Y-117100000D03*
X130257501Y-117600000D03*
X130257501Y-118100000D03*
X130257501Y-118600000D03*
X130257501Y-119100000D03*
X130257501Y-119600000D03*
D31*
X131692501Y-121035000D03*
X132192501Y-121035000D03*
X132692501Y-121035000D03*
X133192501Y-121035000D03*
X133692501Y-121035000D03*
X134192501Y-121035000D03*
X134692501Y-121035000D03*
X135192501Y-121035000D03*
X135692501Y-121035000D03*
X136192501Y-121035000D03*
X136692501Y-121035000D03*
X137192501Y-121035000D03*
%TD*%
D24*
%TO.C,R64*%
X99526992Y-86948008D03*
X97876992Y-86948008D03*
%TD*%
D15*
%TO.C,R39*%
X131750000Y-98325000D03*
X131750000Y-101250000D03*
%TD*%
D32*
%TO.C,U9*%
X109150000Y-86187500D03*
X109800000Y-86187500D03*
X110450000Y-86187500D03*
X110450000Y-84412500D03*
X109800000Y-84412500D03*
X109150000Y-84412500D03*
D33*
X109800000Y-85300000D03*
%TD*%
D27*
%TO.C,TP13*%
X141486800Y-109342200D03*
%TD*%
%TO.C,TP1*%
X123900000Y-84100000D03*
%TD*%
D10*
%TO.C,TP7*%
X150564000Y-113992000D03*
%TD*%
D29*
%TO.C,D4*%
X89800000Y-126862500D03*
X89800000Y-125287500D03*
%TD*%
D11*
%TO.C,C37*%
X103476992Y-86498008D03*
X105026992Y-86498008D03*
%TD*%
D16*
%TO.C,C9*%
X147275000Y-122374000D03*
X145725000Y-122374000D03*
%TD*%
D27*
%TO.C,TP21*%
X105601600Y-94818400D03*
%TD*%
D10*
%TO.C,TP11*%
X150564000Y-111643000D03*
%TD*%
D16*
%TO.C,C3*%
X91455000Y-117900000D03*
X89905000Y-117900000D03*
%TD*%
D15*
%TO.C,R26*%
X129250000Y-83287500D03*
X129250000Y-86212500D03*
%TD*%
D11*
%TO.C,C6*%
X145725000Y-130756000D03*
X147275000Y-130756000D03*
%TD*%
D24*
%TO.C,R44*%
X132879000Y-102976000D03*
X131229000Y-102976000D03*
%TD*%
%TO.C,R43*%
X135927000Y-102976000D03*
X134277000Y-102976000D03*
%TD*%
D28*
%TO.C,H2*%
X155000000Y-135000000D03*
%TD*%
D24*
%TO.C,R50*%
X131125000Y-125550000D03*
X129475000Y-125550000D03*
%TD*%
D19*
%TO.C,R6*%
X89800000Y-122225000D03*
X89800000Y-123875000D03*
%TD*%
D11*
%TO.C,C11*%
X140423000Y-104500000D03*
X141973000Y-104500000D03*
%TD*%
D16*
%TO.C,C34*%
X109193000Y-83141000D03*
X107643000Y-83141000D03*
%TD*%
D34*
%TO.C,D6*%
X114112500Y-104900000D03*
X115687500Y-104900000D03*
%TD*%
D19*
%TO.C,R61*%
X115650000Y-101725000D03*
X115650000Y-103375000D03*
%TD*%
D35*
%TO.C,U3*%
X113850000Y-114525000D03*
X113850000Y-117065000D03*
X122050000Y-117065000D03*
X122050000Y-114525000D03*
%TD*%
D21*
%TO.C,C5*%
X124773600Y-119336800D03*
X124773600Y-120886800D03*
%TD*%
D24*
%TO.C,R30*%
X147325000Y-120850000D03*
X145675000Y-120850000D03*
%TD*%
D11*
%TO.C,C22*%
X134175000Y-123200000D03*
X135725000Y-123200000D03*
%TD*%
D12*
%TO.C,J1*%
X97550000Y-124898000D03*
D13*
X97550000Y-127438000D03*
%TD*%
D10*
%TO.C,TP3*%
X150577000Y-127708000D03*
%TD*%
D19*
%TO.C,R12*%
X148786000Y-127645000D03*
X148786000Y-129295000D03*
%TD*%
D24*
%TO.C,R60*%
X99526992Y-85398008D03*
X97876992Y-85398008D03*
%TD*%
%TO.C,R70*%
X99526992Y-88498008D03*
X97876992Y-88498008D03*
%TD*%
D36*
%TO.C,R23*%
X132784144Y-78965856D03*
X130715856Y-81034144D03*
%TD*%
D24*
%TO.C,R56*%
X147325000Y-107071000D03*
X145675000Y-107071000D03*
%TD*%
D37*
%TO.C,C33*%
X100401992Y-82323008D03*
X100401992Y-80773008D03*
%TD*%
D24*
%TO.C,R16*%
X147325000Y-132280000D03*
X145675000Y-132280000D03*
%TD*%
D11*
%TO.C,C14*%
X131279000Y-104500000D03*
X132829000Y-104500000D03*
%TD*%
D19*
%TO.C,R1*%
X94950000Y-122225000D03*
X94950000Y-123875000D03*
%TD*%
D10*
%TO.C,TP10*%
X129550000Y-100700000D03*
%TD*%
D24*
%TO.C,R48*%
X147325000Y-118564000D03*
X145675000Y-118564000D03*
%TD*%
D11*
%TO.C,C25*%
X134175000Y-124724000D03*
X135725000Y-124724000D03*
%TD*%
D29*
%TO.C,D1*%
X94950000Y-126885500D03*
X94950000Y-125310500D03*
%TD*%
D38*
%TO.C,C28*%
X139732008Y-123303992D03*
X138635992Y-124400008D03*
%TD*%
D39*
%TO.C,U1*%
X89990000Y-116000000D03*
X91260000Y-116000000D03*
X92530000Y-116000000D03*
X93800000Y-116000000D03*
X95070000Y-116000000D03*
X96340000Y-116000000D03*
X97610000Y-116000000D03*
X98880000Y-116000000D03*
X100150000Y-116000000D03*
X101420000Y-116000000D03*
X102690000Y-116000000D03*
X103960000Y-116000000D03*
X105230000Y-116000000D03*
X106500000Y-116000000D03*
D40*
X107750000Y-114235000D03*
X107750000Y-112965000D03*
X107750000Y-111695000D03*
X107750000Y-110425000D03*
X107750000Y-109155000D03*
X107750000Y-107885000D03*
X107750000Y-106615000D03*
X107750000Y-105345000D03*
X107750000Y-104075000D03*
X107750000Y-102805000D03*
X107750000Y-101535000D03*
X107750000Y-100265000D03*
D39*
X106500000Y-98500000D03*
X105230000Y-98500000D03*
X103960000Y-98500000D03*
X102690000Y-98500000D03*
X101420000Y-98500000D03*
X100150000Y-98500000D03*
X98880000Y-98500000D03*
X97610000Y-98500000D03*
X96340000Y-98500000D03*
X95070000Y-98500000D03*
X93800000Y-98500000D03*
X92530000Y-98500000D03*
X91260000Y-98500000D03*
X89990000Y-98500000D03*
D41*
X97010000Y-110150000D03*
X98410000Y-110150000D03*
X96310000Y-109450000D03*
X97710000Y-109450000D03*
X99110000Y-109450000D03*
X97010000Y-108750000D03*
D42*
X97710000Y-108750000D03*
D41*
X98410000Y-108750000D03*
X96310000Y-108050000D03*
X97710000Y-108050000D03*
X99110000Y-108050000D03*
X97010000Y-107350000D03*
X98410000Y-107350000D03*
%TD*%
D43*
%TO.C,Y1*%
X128926777Y-108871142D03*
X127371142Y-110426777D03*
X128573223Y-111628858D03*
X130128858Y-110073223D03*
%TD*%
D37*
%TO.C,C32*%
X107641000Y-86202000D03*
X107641000Y-84652000D03*
%TD*%
D44*
%TO.C,U10*%
X97862500Y-91800000D03*
X97862500Y-92750000D03*
X97862500Y-93700000D03*
X100137500Y-93700000D03*
X100137500Y-92750000D03*
X100137500Y-91800000D03*
%TD*%
D45*
%TO.C,C24*%
X140794992Y-122241008D03*
X141891008Y-121144992D03*
%TD*%
D11*
%TO.C,C20*%
X132875000Y-126250000D03*
X134425000Y-126250000D03*
%TD*%
D20*
%TO.C,R65*%
X88013000Y-80614800D03*
X89663000Y-80614800D03*
%TD*%
D24*
%TO.C,R69*%
X91505000Y-95126000D03*
X89855000Y-95126000D03*
%TD*%
D46*
%TO.C,F1*%
X157500000Y-66250000D03*
D47*
X135000000Y-66250000D03*
%TD*%
D15*
%TO.C,R36*%
X130250000Y-93287500D03*
X130250000Y-96212500D03*
%TD*%
D22*
%TO.C,R13*%
X146462500Y-87500000D03*
X143537500Y-87500000D03*
%TD*%
D21*
%TO.C,C36*%
X107600000Y-80025000D03*
X107600000Y-81575000D03*
%TD*%
D19*
%TO.C,R47*%
X148786000Y-113929000D03*
X148786000Y-115579000D03*
%TD*%
D48*
%TO.C,J7*%
X153917500Y-91620000D03*
D49*
X153917500Y-86540000D03*
X153917500Y-81460000D03*
X153917500Y-76380000D03*
%TD*%
D28*
%TO.C,H4*%
X87000000Y-135000000D03*
%TD*%
D24*
%TO.C,R17*%
X147325000Y-127708000D03*
X145675000Y-127708000D03*
%TD*%
D11*
%TO.C,C8*%
X145725000Y-123898000D03*
X147275000Y-123898000D03*
%TD*%
D10*
%TO.C,TP5*%
X150564000Y-120850000D03*
%TD*%
D16*
%TO.C,C7*%
X147275000Y-129232000D03*
X145725000Y-129232000D03*
%TD*%
D24*
%TO.C,R29*%
X147325000Y-125422000D03*
X145675000Y-125422000D03*
%TD*%
D50*
%TO.C,U4*%
X113300000Y-119605000D03*
X113300000Y-120875000D03*
X113300000Y-122145000D03*
X113300000Y-123415000D03*
X113300000Y-124685000D03*
X113300000Y-125955000D03*
X113300000Y-127225000D03*
X113300000Y-128495000D03*
X122600000Y-128495000D03*
X122600000Y-127225000D03*
X122600000Y-125955000D03*
X122600000Y-124685000D03*
X122600000Y-123415000D03*
X122600000Y-122145000D03*
X122600000Y-120875000D03*
X122600000Y-119605000D03*
%TD*%
D21*
%TO.C,C39*%
X96079000Y-91962000D03*
X96079000Y-93512000D03*
%TD*%
D24*
%TO.C,R49*%
X147325000Y-113992000D03*
X145675000Y-113992000D03*
%TD*%
%TO.C,R59*%
X124623000Y-102700000D03*
X122973000Y-102700000D03*
%TD*%
D20*
%TO.C,R58*%
X131125000Y-127800000D03*
X132775000Y-127800000D03*
%TD*%
D24*
%TO.C,R41*%
X142023000Y-102976000D03*
X140373000Y-102976000D03*
%TD*%
D19*
%TO.C,R67*%
X94250000Y-94175000D03*
X94250000Y-95825000D03*
%TD*%
D51*
%TO.C,U8*%
X102650000Y-84937500D03*
X103150000Y-84937500D03*
X103650000Y-84937500D03*
X104150000Y-84937500D03*
D52*
X104837500Y-84250000D03*
X104837500Y-83750000D03*
X104837500Y-83250000D03*
X104837500Y-82750000D03*
D51*
X104150000Y-82062500D03*
X103650000Y-82062500D03*
X103150000Y-82062500D03*
X102650000Y-82062500D03*
D52*
X101962500Y-82750000D03*
X101962500Y-83250000D03*
X101962500Y-83750000D03*
X101962500Y-84250000D03*
D53*
X103400000Y-83500000D03*
%TD*%
D19*
%TO.C,R68*%
X91500000Y-91925000D03*
X91500000Y-93575000D03*
%TD*%
D37*
%TO.C,C31*%
X98850000Y-82325000D03*
X98850000Y-80775000D03*
%TD*%
D12*
%TO.C,J4*%
X94650000Y-134750000D03*
D13*
X97190000Y-134750000D03*
X99730000Y-134750000D03*
X102270000Y-134750000D03*
X104810000Y-134750000D03*
X107350000Y-134750000D03*
%TD*%
D12*
%TO.C,J2*%
X102700000Y-124898000D03*
D13*
X102700000Y-127438000D03*
%TD*%
D54*
%TO.C,R54*%
X126450000Y-124073000D03*
X126450000Y-122423000D03*
%TD*%
D11*
%TO.C,C38*%
X103476992Y-88022008D03*
X105026992Y-88022008D03*
%TD*%
D16*
%TO.C,C1*%
X91455000Y-96650000D03*
X89905000Y-96650000D03*
%TD*%
D55*
%TO.C,D7*%
X92673500Y-80614800D03*
X91098500Y-80614800D03*
%TD*%
D15*
%TO.C,R22*%
X136750000Y-82287500D03*
X136750000Y-85212500D03*
%TD*%
D21*
%TO.C,C4*%
X111092000Y-119338000D03*
X111092000Y-120888000D03*
%TD*%
D11*
%TO.C,C10*%
X143471000Y-104500000D03*
X145021000Y-104500000D03*
%TD*%
D19*
%TO.C,R27*%
X148786000Y-123835000D03*
X148786000Y-125485000D03*
%TD*%
D56*
%TO.C,U6*%
X128547500Y-67000000D03*
D57*
X128547500Y-61000000D03*
X94947500Y-73000000D03*
X94947500Y-55000000D03*
%TD*%
D19*
%TO.C,R52*%
X148786000Y-110056000D03*
X148786000Y-111706000D03*
%TD*%
D54*
%TO.C,R10*%
X126450000Y-117975000D03*
X126450000Y-116325000D03*
%TD*%
D16*
%TO.C,C2*%
X91455000Y-119424000D03*
X89905000Y-119424000D03*
%TD*%
D45*
%TO.C,C21*%
X139651992Y-121098008D03*
X140748008Y-120001992D03*
%TD*%
D24*
%TO.C,R45*%
X129831000Y-102976000D03*
X128181000Y-102976000D03*
%TD*%
D28*
%TO.C,H1*%
X155000000Y-55000000D03*
%TD*%
D19*
%TO.C,R46*%
X148786000Y-116977000D03*
X148786000Y-118627000D03*
%TD*%
D11*
%TO.C,C12*%
X137375000Y-104500000D03*
X138925000Y-104500000D03*
%TD*%
D16*
%TO.C,C23*%
X140525000Y-111350000D03*
X138975000Y-111350000D03*
%TD*%
D22*
%TO.C,R37*%
X146962500Y-100750000D03*
X144037500Y-100750000D03*
%TD*%
D19*
%TO.C,R28*%
X148786000Y-120787000D03*
X148786000Y-122437000D03*
%TD*%
D55*
%TO.C,D8*%
X92673500Y-78447000D03*
X91098500Y-78447000D03*
%TD*%
D20*
%TO.C,R66*%
X88013000Y-78447000D03*
X89663000Y-78447000D03*
%TD*%
D16*
%TO.C,C29*%
X121773000Y-100201000D03*
X120223000Y-100201000D03*
%TD*%
D19*
%TO.C,R4*%
X112800000Y-85025000D03*
X112800000Y-86675000D03*
%TD*%
D20*
%TO.C,R51*%
X126427000Y-125550000D03*
X128077000Y-125550000D03*
%TD*%
D16*
%TO.C,C17*%
X147275000Y-115516000D03*
X145725000Y-115516000D03*
%TD*%
D12*
%TO.C,J3*%
X115450000Y-81590000D03*
D13*
X115450000Y-84130000D03*
X115450000Y-86670000D03*
X115450000Y-89210000D03*
%TD*%
D16*
%TO.C,C19*%
X147275000Y-108595000D03*
X145725000Y-108595000D03*
%TD*%
D24*
%TO.C,R55*%
X147325000Y-111643000D03*
X145675000Y-111643000D03*
%TD*%
D22*
%TO.C,R14*%
X146462500Y-81750000D03*
X143537500Y-81750000D03*
%TD*%
%TO.C,R19*%
X141712500Y-81750000D03*
X138787500Y-81750000D03*
%TD*%
D24*
%TO.C,R40*%
X145071000Y-102976000D03*
X143421000Y-102976000D03*
%TD*%
%TO.C,R42*%
X138975000Y-102976000D03*
X137325000Y-102976000D03*
%TD*%
D19*
%TO.C,R53*%
X148786000Y-107008000D03*
X148786000Y-108658000D03*
%TD*%
D11*
%TO.C,C15*%
X128231000Y-104500000D03*
X129781000Y-104500000D03*
%TD*%
D12*
%TO.C,J5*%
X107900000Y-124825000D03*
D13*
X107900000Y-127365000D03*
%TD*%
D19*
%TO.C,R7*%
X111450000Y-106741000D03*
X111450000Y-108391000D03*
%TD*%
D27*
%TO.C,TP14*%
X123792000Y-100455000D03*
%TD*%
D29*
%TO.C,D2*%
X100100000Y-126885500D03*
X100100000Y-125310500D03*
%TD*%
D27*
%TO.C,TP15*%
X96001992Y-78948008D03*
%TD*%
D38*
%TO.C,C27*%
X138589008Y-122160992D03*
X137492992Y-123257008D03*
%TD*%
D19*
%TO.C,R9*%
X126450000Y-113277000D03*
X126450000Y-114927000D03*
%TD*%
D54*
%TO.C,R5*%
X112750000Y-90825000D03*
X112750000Y-89175000D03*
%TD*%
D10*
%TO.C,TP12*%
X150564000Y-107071000D03*
%TD*%
D19*
%TO.C,R2*%
X100100000Y-122225000D03*
X100100000Y-123875000D03*
%TD*%
D10*
%TO.C,TP2*%
X150577000Y-132280000D03*
%TD*%
D12*
%TO.C,J6*%
X92400000Y-124898000D03*
D13*
X92400000Y-127438000D03*
%TD*%
D27*
%TO.C,TP19*%
X94000000Y-92250000D03*
%TD*%
D34*
%TO.C,D5*%
X119962500Y-102700000D03*
X121537500Y-102700000D03*
%TD*%
D15*
%TO.C,R33*%
X128500000Y-88287500D03*
X128500000Y-91212500D03*
%TD*%
D19*
%TO.C,R57*%
X126450000Y-119375000D03*
X126450000Y-121025000D03*
%TD*%
D15*
%TO.C,R32*%
X135250000Y-90037500D03*
X135250000Y-92962500D03*
%TD*%
D22*
%TO.C,R20*%
X138462500Y-76250000D03*
X135537500Y-76250000D03*
%TD*%
D35*
%TO.C,U2*%
X113850000Y-108380000D03*
X113850000Y-110920000D03*
X122050000Y-110920000D03*
X122050000Y-108380000D03*
%TD*%
D15*
%TO.C,R31*%
X153750000Y-96787500D03*
X153750000Y-99712500D03*
%TD*%
D10*
%TO.C,TP4*%
X150564000Y-125422000D03*
%TD*%
D15*
%TO.C,R25*%
X137750000Y-87037500D03*
X137750000Y-89962500D03*
%TD*%
D58*
%TO.C,J10*%
X93300000Y-88550000D03*
D59*
X93300000Y-86550000D03*
X93300000Y-84550000D03*
%TD*%
M02*
