M48
; DRILL file KiCad 10.0.4 date 2026-09-23T11:11:05
; FORMAT={-:-/ absolute / metric / decimal}
; #@! TF.CreationDate,2026-09-23T11:11:05-03:00
; #@! TF.GenerationSoftware,Kicad,Pcbnew,10.0.4
; #@! TF.FileFunction,Plated,1,2,PTH
FMAT,2
METRIC
; #@! TA.AperFunction,Plated,PTH,ViaDrill
T1C0.300
; #@! TA.AperFunction,Plated,PTH,ComponentDrill
T2C0.300
; #@! TA.AperFunction,Plated,PTH,ComponentDrill
T3C0.750
; #@! TA.AperFunction,Plated,PTH,ComponentDrill
T4C0.900
; #@! TA.AperFunction,Plated,PTH,ComponentDrill
T5C1.000
; #@! TA.AperFunction,Plated,PTH,ComponentDrill
T6C1.100
; #@! TA.AperFunction,Plated,PTH,ComponentDrill
T7C1.300
; #@! TA.AperFunction,Plated,PTH,ComponentDrill
T8C1.500
%
G90
G05
T1
X84.718Y-81.631
X86.775Y-79.548
X87.0Y-60.0
X87.0Y-65.0
X87.0Y-70.0
X87.0Y-75.0
X88.013Y-79.523
X89.112Y-118.664
X89.163Y-94.077
X89.772Y-100.224
X89.899Y-120.62
X89.925Y-106.802
X90.458Y-82.291
X90.636Y-86.787
X91.195Y-90.191
X91.449Y-120.417
X92.0Y-55.0
X92.0Y-60.0
X92.0Y-65.0
X92.0Y-70.0
X92.0Y-75.0
X92.0Y-130.0
X92.0Y-135.0
X92.55Y-114.65
X92.668Y-99.919
X92.795Y-106.472
X92.795Y-122.601
X92.846Y-94.788
X93.582Y-78.43
X93.582Y-80.615
X93.684Y-77.465
X93.684Y-81.707
X93.8Y-99.8
X94.548Y-117.699
X95.1Y-99.8
X95.208Y-90.343
X95.665Y-119.629
X96.224Y-99.944
X97.062Y-86.152
X97.088Y-87.778
X97.113Y-84.552
X97.316Y-104.796
X97.367Y-96.109
X97.57Y-122.372
X97.61Y-97.15
X98.027Y-89.556
X98.866Y-77.643
X98.88Y-97.15
X99.018Y-93.239
X99.628Y-80.005
X99.755Y-117.978
X99.907Y-96.312
X100.059Y-129.332
X100.466Y-113.66
X100.618Y-87.422
X100.898Y-85.06
X101.126Y-100.325
X102.0Y-55.0
X102.0Y-60.0
X102.0Y-65.0
X102.0Y-70.0
X102.0Y-75.0
X102.152Y-81.398
X102.168Y-87.93
X102.202Y-78.148
X102.574Y-122.779
X103.311Y-94.966
X103.412Y-83.942
X103.895Y-108.555
X104.174Y-80.025
X104.327Y-104.796
X104.403Y-113.152
X104.752Y-81.548
X105.47Y-110.46
X105.495Y-109.164
X105.52Y-106.624
X105.52Y-107.894
X105.647Y-84.704
X105.702Y-83.248
X105.851Y-78.126
X105.927Y-100.274
X106.105Y-87.27
X106.333Y-89.937
X106.5Y-97.15
X106.5Y-106.6
X106.5Y-107.9
X106.5Y-109.15
X106.5Y-110.45
X106.79Y-82.367
X106.841Y-83.891
X107.0Y-55.0
X107.0Y-60.0
X107.0Y-65.0
X107.0Y-70.0
X107.0Y-75.0
X107.0Y-120.0
X107.248Y-92.553
X107.425Y-96.388
X107.641Y-87.143
X108.619Y-115.286
X110.448Y-86.965
X110.6Y-85.415
X110.727Y-125.979
X111.235Y-89.378
X111.312Y-101.798
X111.591Y-128.519
X111.95Y-124.685
X111.997Y-122.144
X112.0Y-55.0
X112.0Y-60.0
X112.0Y-65.0
X112.0Y-70.0
X112.0Y-75.0
X112.0Y-80.0
X112.0Y-123.415
X112.0Y-125.955
X112.0Y-130.0
X112.0Y-135.0
X112.81Y-87.93
X112.963Y-104.897
X113.039Y-102.967
X114.055Y-85.873
X114.69Y-120.875
X115.045Y-93.594
X119.45Y-117.0
X119.49Y-110.775
X119.55Y-122.25
X120.075Y-101.392
X121.014Y-120.874
X121.975Y-112.9
X122.0Y-55.0
X122.0Y-60.0
X122.0Y-65.0
X122.0Y-70.0
X122.0Y-75.0
X122.0Y-80.0
X122.0Y-85.0
X122.0Y-90.0
X122.0Y-95.0
X122.0Y-105.0
X122.0Y-130.0
X122.0Y-135.0
X122.234Y-101.443
X123.25Y-118.613
X123.961Y-127.859
X124.088Y-122.779
X124.575Y-107.05
X124.621Y-103.526
X124.748Y-124.938
X125.434Y-117.953
X125.713Y-124.811
X126.45Y-112.365
X127.0Y-55.0
X127.0Y-60.0
X127.0Y-70.0
X127.0Y-75.0
X127.0Y-80.0
X127.0Y-95.0
X127.0Y-100.0
X127.0Y-130.0
X127.39Y-103.754
X127.5Y-116.3
X127.517Y-121.712
X127.7Y-120.0
X127.825Y-107.475
X127.9Y-123.35
X128.525Y-113.3
X128.868Y-117.389
X129.0Y-114.6
X129.0Y-115.6
X129.0Y-116.6
X129.0Y-119.6
X129.219Y-101.925
X129.701Y-107.285
X129.981Y-121.737
X130.2Y-113.35
X131.125Y-126.665
X131.65Y-110.625
X132.0Y-55.0
X132.0Y-60.0
X132.0Y-70.0
X132.0Y-75.0
X132.2Y-115.1
X132.2Y-116.1
X132.2Y-117.05
X132.546Y-105.659
X132.65Y-87.85
X133.1Y-114.75
X133.4Y-82.6
X133.425Y-95.375
X133.587Y-103.754
X133.925Y-106.45
X134.0Y-114.7
X134.65Y-100.9
X134.85Y-114.7
X135.365Y-113.94
X135.391Y-126.233
X135.85Y-116.9
X136.356Y-123.973
X136.6Y-107.2
X136.712Y-119.807
X137.0Y-70.0
X137.22Y-115.972
X137.397Y-79.167
X137.397Y-114.117
X137.397Y-119.096
X137.677Y-124.252
X138.363Y-112.136
X138.875Y-106.35
X139.125Y-128.291
X139.683Y-103.754
X139.734Y-110.282
X139.887Y-130.526
X140.675Y-88.8
X141.075Y-85.025
X141.4Y-95.75
X141.665Y-112.035
X141.715Y-120.188
X141.775Y-100.8
X142.0Y-55.0
X142.0Y-60.0
X142.0Y-65.0
X142.0Y-70.0
X142.0Y-125.0
X142.0Y-130.0
X142.0Y-135.0
X143.7Y-114.8
X143.9Y-78.975
X144.332Y-125.243
X144.357Y-106.015
X144.6Y-112.8
X145.805Y-103.729
X146.491Y-90.368
X146.541Y-126.563
X146.55Y-119.7
X147.0Y-55.0
X147.0Y-60.0
X147.0Y-65.0
X147.0Y-70.0
X147.0Y-105.0
X147.0Y-135.0
X148.015Y-116.302
X148.015Y-129.967
X148.04Y-109.368
X148.04Y-123.134
X148.15Y-84.525
X148.85Y-112.8
X149.005Y-119.68
X149.1Y-78.825
X149.488Y-126.563
X150.7Y-123.2
X151.469Y-109.317
X152.0Y-55.0
X152.0Y-60.0
X152.0Y-65.0
X152.0Y-70.0
X152.0Y-105.0
X152.0Y-120.0
X152.0Y-130.0
X152.0Y-135.0
X153.35Y-114.05
X153.806Y-125.293
X154.034Y-119.68
X154.034Y-122.22
X154.136Y-117.165
X154.161Y-111.349
X157.0Y-60.0
X157.0Y-90.0
X157.0Y-95.0
X157.0Y-100.0
X157.0Y-105.0
T2
X96.31Y-108.05
X96.31Y-109.45
X97.01Y-107.35
X97.01Y-108.75
X97.01Y-110.15
X97.71Y-108.05
X97.71Y-109.45
X98.41Y-107.35
X98.41Y-108.75
X98.41Y-110.15
X99.11Y-108.05
X99.11Y-109.45
T3
X93.3Y-84.55
X93.3Y-86.55
X93.3Y-88.55
T4
X137.75Y-55.35
X145.25Y-56.65
T5
X92.4Y-124.898
X92.4Y-127.438
X94.65Y-134.75
X94.947Y-55.0
X94.947Y-73.0
X97.19Y-134.75
X97.55Y-124.898
X97.55Y-127.438
X99.73Y-134.75
X102.27Y-134.75
X102.7Y-124.898
X102.7Y-127.438
X104.81Y-134.75
X107.35Y-134.75
X107.9Y-124.825
X107.9Y-127.365
X114.14Y-97.65
X115.45Y-81.59
X115.45Y-84.13
X115.45Y-86.67
X115.45Y-89.21
X116.68Y-97.65
X119.22Y-97.65
X121.76Y-97.65
X127.92Y-133.735
X127.92Y-136.275
X128.547Y-61.0
X128.547Y-67.0
X130.46Y-133.735
X130.46Y-136.275
X133.0Y-133.735
X133.0Y-136.275
X135.54Y-133.735
X135.54Y-136.275
X138.08Y-133.735
X138.08Y-136.275
X140.62Y-133.735
X140.62Y-136.275
T6
X156.0Y-110.76
X156.0Y-113.3
X156.0Y-115.84
X156.0Y-118.38
X156.0Y-120.92
X156.0Y-123.46
X156.0Y-126.0
X156.0Y-128.54
T7
X153.917Y-76.38
X153.917Y-81.46
X153.917Y-86.54
X153.917Y-91.62
T8
X135.0Y-66.25
X157.5Y-66.25
M30
